<svg width="48" height="48" viewBox="0 0 48 48" fill="none" xmlns="http://www.w3.org/2000/svg">
<rect width="48" height="48" fill="white"/>
<path d="M23.5 4C12.7509 4 4 12.7516 4 23.4999C4 23.9288 4.35085 24.28 4.78014 24.28C5.20904 24.28 5.56027 23.9292 5.56027 23.4999C5.56027 13.6093 13.6101 5.55968 23.5006 5.55968C33.391 5.55968 41.4409 13.6095 41.4409 23.4999C41.4409 33.3903 33.391 41.4401 23.5006 41.4401C18.2666 41.4401 13.2899 39.1311 9.91246 35.1998H12.8295C13.2584 35.1998 13.6096 34.849 13.6096 34.4197C13.6096 33.9908 13.2588 33.6396 12.8295 33.6396H8.29758C8.24302 33.6396 8.18846 33.6475 8.14148 33.6551C7.98537 33.6862 7.83723 33.7722 7.72811 33.8813C7.70462 33.9124 7.68113 33.9438 7.65802 33.9749L7.64248 33.9904C7.61899 34.0294 7.5955 34.076 7.57997 34.1151C7.56443 34.1541 7.5489 34.1931 7.54094 34.2397C7.52541 34.2943 7.51745 34.3568 7.51745 34.4189V38.9508C7.51745 39.3797 7.8683 39.731 8.29759 39.731C8.72649 39.731 9.07772 39.3801 9.07772 38.9508V36.6108C12.751 40.6524 17.993 43 23.5 43C34.2558 43 43 34.2561 43 23.5001C43 12.7511 34.256 4.00022 23.5 4.00022L23.5 4Z" fill="#676767"/>
<path d="M23.4962 35C29.8356 35 35 29.8356 35 23.4962C35 17.1567 29.8356 12 23.4962 12C17.1567 12 12 17.1565 12 23.4962C12 29.8356 17.1569 35 23.4962 35ZM23.32 24.2499C19.838 23.4316 19.3179 21.6256 19.3179 20.6222C19.3179 18.8417 20.7881 17.3569 22.7245 17.0392V15.9591C22.7245 15.5318 23.0703 15.1859 23.4977 15.1859C23.9251 15.1859 24.2709 15.5318 24.2709 15.9591V17.0392C26.2072 17.3569 27.6775 18.8417 27.6775 20.6222C27.6775 21.0496 27.3316 21.3954 26.9042 21.3954C26.4769 21.3954 26.131 21.0496 26.131 20.6222C26.131 19.4633 24.9496 18.5204 23.4977 18.5204C22.0458 18.5204 20.8644 19.4633 20.8644 20.6222C20.8644 21.8303 22.3925 22.4432 23.6745 22.7444C26.256 23.352 27.6774 24.6401 27.6774 26.372C27.6774 28.1525 26.2071 29.6373 24.2708 29.9551V31.0351C24.2708 31.4624 23.925 31.8083 23.4976 31.8083C23.0702 31.8083 22.7244 31.4624 22.7244 31.0351V29.9551C20.788 29.6374 19.3178 28.1525 19.3178 26.372C19.3178 25.9447 19.6637 25.5988 20.0911 25.5988C20.5184 25.5988 20.8643 25.9447 20.8643 26.372C20.8643 27.531 22.0457 28.4739 23.4976 28.4739C24.9495 28.4739 26.1309 27.5309 26.1309 26.372C26.1309 25.1004 24.3704 24.4966 23.32 24.2499Z" fill="#DD3333"/>
</svg>
