<svg width="48" height="48" viewBox="0 0 48 48" fill="none" xmlns="http://www.w3.org/2000/svg">
<rect width="48" height="48" fill="white"/>
<path d="M37 17L37 42H11V41.0841C11.0003 40.7798 11.1154 40.4882 11.3199 40.2731C11.5244 40.0579 11.8017 39.9369 12.0909 39.9366H34.9402V20.8851" stroke="#676767" stroke-miterlimit="10"/>
<path d="M9 34.7321V37L26.8005 37L39 13.9975L37.9438 12" stroke="#676767" stroke-miterlimit="10" stroke-linejoin="round"/>
<path d="M32.0742 22.383L28.5182 22.383L31.6783 16.6918H34.8385L32.0742 22.383ZM28.8228 28.0742L25.358 28.0742L28.1236 23.0943L31.6783 23.0955L28.8228 28.0742ZM16.9442 35L20.3952 28.7867H24.0917L20.6407 35H16.9442ZM12.4337 35L15.884 28.7867H19.5228L16.0718 35H12.4337ZM14.6112 23.0955H18.1718L15.4061 28.0742H11.8488L14.6112 23.0955ZM18.1652 16.6918H21.7265L18.5663 22.383H15.0057L18.1652 16.6918ZM29.3972 11L26.6309 15.9799H22.9928L25.7584 11M25.7584 11H29.3972H25.7584ZM26.237 16.6918L23.0742 22.383H19.4361L22.5963 16.6918H26.237ZM19.0442 23.0949H22.6803L19.9166 28.0742H16.2786L19.0442 23.0949ZM20.7891 28.0742L23.5554 23.0943H27.2512L24.4856 28.0742H20.7891ZM27.6457 22.3824H23.9492L27.1094 16.6912H30.8059L27.6457 22.3824ZM33.9661 11L31.1998 15.9799H27.5033L30.2696 11H33.9661ZM24.886 11L22.1203 15.9799H18.5597L21.3254 11H24.886ZM11.451 28.7861H15.0116L11.5613 35H8L11.451 28.7861ZM25.358 35L21.5131 35L24.9641 28.7867L28.5182 28.7867L25.358 35ZM37.998 11.0006L35.2409 15.9806H32.0742L34.8405 11.0006H38" fill="#DD3333"/>
<path d="M16 10H15V11H16V10Z" fill="#676767"/>
<path d="M13.9987 10.0001C13.9987 9.95321 13.9987 9.90632 13.9948 9.86009C13.9948 9.84251 13.9948 9.82493 13.9948 9.80735C13.9948 9.77804 13.9909 9.74939 13.9883 9.72009C13.9857 9.69079 13.9837 9.67776 13.9811 9.65497C13.9785 9.63218 13.9759 9.60679 13.972 9.58269C13.9681 9.5586 13.9655 9.53581 13.9616 9.51237C13.9577 9.48893 13.9544 9.47135 13.9505 9.45116C13.9466 9.43097 13.9414 9.39907 13.9355 9.37367C13.9355 9.35869 13.929 9.34437 13.9258 9.32939C13.9032 9.231 13.8756 9.13385 13.843 9.03832C13.8385 9.02465 13.8339 9.01032 13.8287 8.99665C13.8196 8.9706 13.8098 8.94521 13.8 8.91916C13.7903 8.89311 13.787 8.8853 13.7799 8.86837C13.7727 8.85144 13.761 8.82214 13.7512 8.79934C13.7414 8.77655 13.7329 8.75897 13.7232 8.73879C13.7134 8.7186 13.7056 8.70037 13.6965 8.68148C13.6821 8.65283 13.6678 8.62483 13.6528 8.59683C13.6476 8.58641 13.6424 8.57534 13.6366 8.56493C13.2656 7.88079 12.6421 7.3686 11.8988 7.13758L11.8864 7.13367C11.8493 7.12195 11.8121 7.11153 11.7744 7.10176L11.7333 7.09134L11.7066 7.08418C11.3169 6.98989 10.9122 6.97463 10.5165 7.03932C10.1208 7.104 9.74206 7.24732 9.40268 7.4608C9.0633 7.67428 8.77017 7.95359 8.54058 8.28223C8.311 8.61088 8.14962 8.98219 8.06599 9.37423C7.98236 9.76628 7.97818 10.1711 8.05368 10.5648C8.12918 10.9585 8.28284 11.333 8.50558 11.6664C8.72832 11.9997 9.01562 12.285 9.35051 12.5054C9.6854 12.7259 10.0611 12.877 10.4554 12.9499L10.4775 12.9538C10.5244 12.9616 10.5713 12.9687 10.6189 12.9746L10.6567 12.9798C10.7003 12.985 10.7446 12.9883 10.7869 12.9915L10.8286 12.9948C10.8846 12.9948 10.9419 13 10.9993 13C11.7951 13 12.5584 12.6839 13.1211 12.1213C13.6839 11.5588 14 10.7957 14 10.0001H13.9987Z" stroke="#676767" stroke-miterlimit="10"/>
<path d="M6 10H5V11H6V10Z" fill="#676767"/>
<path d="M11 4H10L9.99875 6H10.9987L11 4Z" fill="#676767"/>
<path d="M11 15H10L9.99937 16H10.9994L11 15Z" fill="#676767"/>
<path d="M13.6947 6.28066L13 7L13.6875 7.72623L14.3821 7.00689L13.6947 6.28066Z" fill="#676767"/>
<path d="M6.69466 13.2807L6 14L6.68746 14.7262L7.38211 14.0069L6.69466 13.2807Z" fill="#676767"/>
<path d="M6.682 5.26865L6 6L6.70003 6.71412L7.38203 5.98276L6.682 5.26865Z" fill="#676767"/>
<path d="M13.682 12.2686L13 13L13.7 13.7141L14.382 12.9828L13.682 12.2686Z" fill="#676767"/>
</svg>
