<svg width="60" height="42" viewBox="0 0 60 42" fill="none" xmlns="http://www.w3.org/2000/svg">
<path d="M48.8709 16.908C48.9049 16.4897 48.9221 16.0653 48.9221 15.6381C48.9221 7.53645 42.3792 0.945679 34.3376 0.945679C27.458 0.945679 21.5343 5.82928 20.0919 12.4896C18.5489 11.9451 16.9354 11.6695 15.2798 11.6695C7.23768 11.6691 0.695312 18.2604 0.695312 26.3619C0.695312 34.4636 7.23825 41.0544 15.2798 41.0544H47.4975C54.1278 41.0548 59.5214 35.6209 59.5214 28.9415C59.5214 22.6845 54.9216 17.5848 48.8721 16.9083L48.8709 16.908ZM47.4965 39.1424H15.2788C8.28316 39.1424 2.5919 33.4084 2.5919 26.3616C2.5919 19.3142 8.28373 13.5808 15.2788 13.5808C17.0715 13.5808 18.8073 13.9515 20.4381 14.6836C20.7103 14.8063 21.0262 14.7912 21.2874 14.6449C21.5486 14.4973 21.7256 14.2347 21.7648 13.936C22.5957 7.62112 28.0006 2.85802 34.3365 2.85802C41.3322 2.85802 47.0235 8.59197 47.0235 15.6388C47.0235 16.3251 46.9727 17.0003 46.8734 17.6457C46.8315 17.9168 46.9079 18.1933 47.0821 18.4044C47.2569 18.6156 47.5128 18.7405 47.785 18.748C53.209 18.8965 57.6217 23.4689 57.6217 28.9419C57.6217 34.5665 53.0788 39.1429 47.4952 39.1429L47.4965 39.1424Z" fill="#676767"/>
<path d="M23.2273 29.4674C22.6722 29.4674 22.1604 29.3714 21.6918 29.1793C21.2304 28.9799 20.8267 28.7029 20.4807 28.3484C20.1419 27.9864 19.8787 27.5617 19.6913 27.0742C19.5039 26.5793 19.4102 26.0401 19.4102 25.4565C19.4102 24.8878 19.5075 24.3633 19.7021 23.8832C19.8968 23.3957 20.1707 22.9747 20.5239 22.6201C20.8772 22.2582 21.2917 21.9775 21.7675 21.7781C22.2433 21.5786 22.7587 21.4789 23.3138 21.4789C23.6743 21.4789 24.0275 21.5306 24.3735 21.634C24.7268 21.7301 25.0476 21.8741 25.3359 22.0661C25.6315 22.2582 25.8838 22.4872 26.0929 22.7531L25.0764 23.9054C24.9034 23.7281 24.7232 23.5767 24.5357 23.4511C24.3555 23.3182 24.1609 23.2184 23.9518 23.152C23.75 23.0781 23.5337 23.0412 23.303 23.0412C22.993 23.0412 22.7011 23.1003 22.4271 23.2184C22.1604 23.3366 21.9261 23.5028 21.7242 23.717C21.5224 23.9238 21.3602 24.1787 21.2376 24.4815C21.1223 24.777 21.0646 25.1057 21.0646 25.4676C21.0646 25.837 21.1223 26.173 21.2376 26.4759C21.353 26.7713 21.5152 27.0262 21.7242 27.2404C21.9333 27.4472 22.182 27.6097 22.4704 27.7279C22.7659 27.8387 23.0903 27.8941 23.4436 27.8941C23.6743 27.8941 23.8977 27.8609 24.114 27.7944C24.3303 27.7279 24.5285 27.6356 24.7088 27.5174C24.8962 27.3992 25.062 27.2625 25.2062 27.1074L25.9956 28.4038C25.8225 28.6032 25.5882 28.7842 25.2927 28.9467C25.0043 29.1092 24.6799 29.2384 24.3195 29.3345C23.959 29.4231 23.595 29.4674 23.2273 29.4674Z" fill="#DD3333"/>
<path d="M30.7151 29.4674C30.16 29.4674 29.6482 29.3677 29.1796 29.1683C28.711 28.9688 28.3001 28.6918 27.9469 28.3373C27.6008 27.9753 27.3341 27.5506 27.1467 27.0631C26.9592 26.5682 26.8655 26.0327 26.8655 25.4565C26.8655 24.873 26.9592 24.3412 27.1467 23.8611C27.3341 23.3736 27.6008 22.9488 27.9469 22.5869C28.3001 22.225 28.711 21.9443 29.1796 21.7448C29.6482 21.5454 30.16 21.4457 30.7151 21.4457C31.2774 21.4457 31.7893 21.5454 32.2506 21.7448C32.7192 21.9443 33.1265 22.225 33.4726 22.5869C33.8258 22.9488 34.0961 23.3736 34.2836 23.8611C34.471 24.3486 34.5647 24.8804 34.5647 25.4565C34.5647 26.0327 34.471 26.5645 34.2836 27.052C34.0961 27.5395 33.8258 27.9643 33.4726 28.3262C33.1265 28.6881 32.7192 28.9688 32.2506 29.1683C31.7893 29.3677 31.2774 29.4674 30.7151 29.4674ZM30.7151 27.8941C31.0323 27.8941 31.3243 27.835 31.591 27.7168C31.865 27.5986 32.0992 27.4287 32.2939 27.2071C32.4885 26.9856 32.6399 26.727 32.7481 26.4316C32.8634 26.1361 32.9211 25.8111 32.9211 25.4565C32.9211 25.102 32.8634 24.777 32.7481 24.4815C32.6399 24.1861 32.4885 23.9312 32.2939 23.717C32.0992 23.4954 31.865 23.3255 31.591 23.2074C31.3243 23.0818 31.0323 23.019 30.7151 23.019C30.3979 23.019 30.106 23.0818 29.8392 23.2074C29.5725 23.3255 29.3382 23.4954 29.1364 23.717C28.9345 23.9312 28.7795 24.1861 28.6714 24.4815C28.5705 24.777 28.52 25.102 28.52 25.4565C28.52 25.8111 28.5705 26.1361 28.6714 26.4316C28.7795 26.727 28.9345 26.9856 29.1364 27.2071C29.3382 27.4287 29.5725 27.5986 29.8392 27.7168C30.106 27.835 30.3979 27.8941 30.7151 27.8941Z" fill="#DD3333"/>
<path d="M35.8056 29.3566L35.4488 28.4481L37.6872 25.9108C37.8097 25.7779 37.9395 25.6227 38.0765 25.4455C38.2206 25.2682 38.3576 25.0872 38.4874 24.9026C38.6243 24.7105 38.7325 24.5258 38.8118 24.3486C38.8911 24.1639 38.9307 23.9977 38.9307 23.85C38.9307 23.6801 38.8947 23.5324 38.8226 23.4068C38.7505 23.2738 38.646 23.1704 38.509 23.0966C38.372 23.0227 38.2026 22.9858 38.0008 22.9858C37.8133 22.9858 37.6367 23.0375 37.4709 23.1409C37.3051 23.2369 37.1501 23.3809 37.0059 23.573C36.8618 23.765 36.7356 23.9977 36.6275 24.271L35.4164 23.573C35.5605 23.1446 35.766 22.7716 36.0327 22.4539C36.2995 22.1363 36.6167 21.8889 36.9843 21.7116C37.352 21.5343 37.7449 21.4457 38.163 21.4457C38.6027 21.4531 38.9992 21.5491 39.3525 21.7338C39.7057 21.9184 39.9832 22.1769 40.1851 22.5093C40.3869 22.8417 40.4879 23.2258 40.4879 23.6616C40.4879 23.8241 40.4698 23.9903 40.4338 24.1602C40.405 24.3301 40.3509 24.5074 40.2716 24.692C40.1995 24.8767 40.1022 25.0725 39.9796 25.2793C39.8643 25.4787 39.7201 25.6929 39.5471 25.9219C39.3813 26.1435 39.1903 26.3762 38.974 26.6199L37.2546 28.5367L37.0384 27.8609H40.8015V29.3566H35.8056Z" fill="#DD3333"/>
</svg>
