<svg width="41" height="42" viewBox="0 0 41 42" fill="none" xmlns="http://www.w3.org/2000/svg">
<path d="M28.5636 2.50522C26.091 1.46992 23.4645 0.945679 20.7565 0.945679C15.3747 0.945679 10.3112 3.03287 6.50098 6.82345C2.68916 10.6129 0.589844 15.648 0.589844 20.9995C0.589844 25.7845 2.27255 30.3132 5.3526 33.9287H2.72609C2.23215 33.9287 1.83217 34.3268 1.83217 34.8176C1.83217 35.3084 2.23215 35.7066 2.72609 35.7066H7.53164C8.02558 35.7066 8.42556 35.3084 8.42556 34.8176V29.6931C8.42556 29.2024 8.02558 28.8042 7.53164 28.8042C7.03769 28.8042 6.63771 29.2024 6.63771 29.6931V32.6887C3.88113 29.4096 2.37799 25.3187 2.37799 21.0001C2.37799 16.1229 4.29103 11.5346 7.7648 8.08042C11.2383 4.6259 15.8521 2.72405 20.7569 2.72405C23.2253 2.72405 25.6186 3.20201 27.8704 4.14472C28.3249 4.33451 28.8496 4.12281 29.0413 3.67007C29.233 3.21733 29.0192 2.69554 28.564 2.50533L28.5636 2.50522Z" fill="#676767"/>
<path d="M16.282 33.0326C16.1439 33.0326 16.0042 33.0013 15.8746 32.9373C15.5093 32.7573 15.3128 32.3572 15.397 31.9651L17.2928 22.9971H12.1904C11.8883 22.9971 11.6059 22.8489 11.438 22.6028C11.2697 22.3564 11.2385 22.0443 11.3538 21.7702L16.5231 9.51601C16.6632 9.18371 16.9931 8.96741 17.3592 8.96741H23.8747C24.1726 8.96741 24.4516 9.11106 24.6204 9.35213C24.7891 9.59361 24.8261 9.90033 24.7188 10.1732L21.9612 17.2069L29.0974 17.2065C29.4546 17.2065 29.7778 17.4125 29.9234 17.732C30.0695 18.0515 30.0101 18.4255 29.7719 18.6859L16.9565 32.7367C16.7806 32.9298 16.5332 33.0326 16.282 33.0326Z" fill="#DD3333"/>
<path d="M38.7242 8.06605C39.2105 8.06605 39.6042 7.66917 39.6042 7.17996C39.6042 6.69076 39.2105 6.29387 38.7242 6.29387L33.6815 6.29346C33.1953 6.29346 32.8015 6.69034 32.8015 7.17955V11.9987C32.8015 12.4879 33.1953 12.8848 33.6815 12.8848C34.1678 12.8848 34.5615 12.4879 34.5615 11.9987V9.19906C37.3907 12.5024 38.9383 16.6637 38.9383 21.0644C38.9383 25.9256 37.0551 30.4987 33.6354 33.9426C30.216 37.3861 25.6739 39.2818 20.8455 39.2818C18.5874 39.2818 16.3858 38.8689 14.3031 38.054C13.7125 37.822 13.1288 37.5574 12.5693 37.266C12.1379 37.0426 11.607 37.2124 11.3835 37.6468C11.1605 38.0812 11.3295 38.6162 11.7613 38.8412C12.3757 39.161 13.0159 39.4516 13.665 39.7063C15.9522 40.601 18.3684 41.0543 20.8455 41.0543C26.1435 41.0543 31.1282 38.9738 34.8791 35.1954C38.6316 31.4173 40.6982 26.3987 40.6982 21.0648C40.6982 16.2457 39.0069 11.6879 35.9146 8.06632L38.7242 8.06605Z" fill="#676767"/>
</svg>
