<svg width="49" height="48" viewBox="0 0 49 48" fill="none" xmlns="http://www.w3.org/2000/svg">
<g clip-path="url(#clip0_3370_10184)">
<rect width="48" height="48" transform="translate(0.78125)" fill="white"/>
<path d="M26.8539 19.8191L25.9965 19.0017C25.8818 18.8867 25.7261 18.822 25.5637 18.8219H24.2409L24.0286 18.0454C23.9986 17.9427 23.9423 17.8497 23.8653 17.7756L15.512 9.34844C15.1106 8.92818 14.6294 8.59244 14.0966 8.36093C13.5637 8.12942 12.9901 8.0068 12.4093 8.00027C11.8285 7.99375 11.2522 8.10346 10.7144 8.32295C10.1765 8.54244 9.68785 8.86729 9.27713 9.27843C8.86641 9.68957 8.54189 10.1787 8.32263 10.7171C8.10336 11.2555 7.99376 11.8324 8.00027 12.4138C8.00679 12.9952 8.12929 13.5694 8.36057 14.1028C8.59184 14.6361 8.92724 15.1178 9.34707 15.5197L17.6677 23.8161C17.7422 23.8908 17.8352 23.9444 17.9372 23.9714L18.7537 24.2166L18.8027 25.5898C18.8027 25.6678 18.8186 25.7451 18.8495 25.8168C18.8804 25.8885 18.9256 25.9531 18.9824 26.0066L19.7989 26.824C19.9148 26.9369 20.07 27 20.2317 27C20.3933 27 20.5486 26.9369 20.6644 26.824L26.8376 20.6446C26.9392 20.5321 26.9969 20.3866 26.9999 20.2349C27.0029 20.0832 26.951 19.9355 26.8539 19.8191Z" fill="#DD3333"/>
<path d="M42.5843 39.1483C42.5268 39.0584 42.446 38.9858 42.3504 38.9383L41.06 38.2925C41.0362 38.1947 40.986 38.1053 40.9148 38.0342L30.0993 27.2324L31.6639 25.6662C33.0168 24.3036 34.5833 23.1718 36.3015 22.3159L36.9467 21.9929C37.2142 22.0265 37.4836 22.0427 37.7532 22.0414C38.6375 22.0422 39.5133 21.8679 40.33 21.5284C41.1466 21.189 41.8882 20.6911 42.5117 20.0635L43.2376 19.3288C44.13 18.4366 44.7193 17.286 44.9219 16.0399C45.1246 14.7938 44.9304 13.5154 44.3668 12.386C44.2912 12.2473 44.1664 12.1421 44.017 12.0913C43.8676 12.0404 43.7046 12.0477 43.5602 12.1115C43.5025 12.1426 43.4507 12.1836 43.407 12.2326L40.3583 15.2761C40.1873 15.4473 39.9842 15.5832 39.7607 15.6758C39.5372 15.7685 39.2977 15.8162 39.0558 15.8162C38.8139 15.8162 38.5743 15.7685 38.3508 15.6758C38.1273 15.5832 37.9243 15.4473 37.7532 15.2761C37.5822 15.1049 37.4465 14.9016 37.3539 14.6779C37.2614 14.4542 37.2137 14.2145 37.2137 13.9723C37.2137 13.7302 37.2614 13.4904 37.3539 13.2667C37.4465 13.043 37.5822 12.8397 37.7532 12.6685L40.7938 9.6169C40.8511 9.56055 40.8967 9.49333 40.9277 9.41917C40.9588 9.34501 40.9748 9.2654 40.9748 9.18499C40.9748 9.10458 40.9588 9.02497 40.9277 8.95081C40.8967 8.87666 40.8511 8.80944 40.7938 8.75308C40.749 8.70399 40.694 8.6654 40.6325 8.64006C39.5073 8.07334 38.2323 7.87595 36.9886 8.07594C35.7449 8.27594 34.5957 8.86315 33.7045 9.75414L32.9705 10.4888C32.3399 11.1153 31.8403 11.8614 31.5011 12.6834C31.1618 13.5053 30.9896 14.3868 30.9945 15.2761C30.9946 15.5272 31.0107 15.778 31.0429 16.0269L30.7203 16.6647C29.8627 18.383 28.7323 19.9507 27.3732 21.3067L25.8085 22.9213L24.8407 21.9364L22.2276 24.5521L23.1712 25.4886L21.3001 27.3615C19.9491 28.7242 18.3821 29.8536 16.6625 30.7038L16.0254 31.0348C15.7766 31.0026 15.5261 30.9864 15.2753 30.9864C14.3868 30.9814 13.5062 31.1538 12.685 31.4934C11.8638 31.833 11.1185 32.333 10.4926 32.9643L9.76671 33.6989C8.87178 34.5879 8.28064 35.7373 8.07783 36.9829C7.87503 38.2285 8.07095 39.5063 8.63758 40.6337C8.71172 40.7737 8.83649 40.8802 8.98641 40.9312C9.13632 40.9822 9.30005 40.974 9.4441 40.9082C9.50019 40.8778 9.55177 40.8398 9.59735 40.7952L12.6379 37.7516C12.8074 37.5788 13.0092 37.4411 13.2319 37.3464C13.4545 37.2516 13.6936 37.2017 13.9355 37.1994C14.1774 37.1972 14.4174 37.2427 14.6417 37.3332C14.8661 37.4238 15.0704 37.5578 15.243 37.7274C15.4157 37.897 15.5532 38.099 15.6479 38.3219C15.7425 38.5447 15.7924 38.784 15.7947 39.0262C15.7969 39.2683 15.7515 39.5085 15.661 39.7331C15.5705 39.9577 15.4367 40.1622 15.2672 40.335L12.2266 43.3785C12.1691 43.4356 12.1234 43.5035 12.0922 43.5783C12.061 43.6531 12.045 43.7334 12.045 43.8145C12.045 43.8956 12.061 43.9758 12.0922 44.0507C12.1234 44.1255 12.1691 44.1934 12.2266 44.2504C12.27 44.2976 12.322 44.336 12.3799 44.3635C13.5074 44.9286 14.784 45.1243 16.0289 44.9229C17.2737 44.7215 18.4237 44.1332 19.316 43.2413L20.0499 42.5067C20.7669 41.7919 21.3123 40.9235 21.6448 39.9669C21.9774 39.0103 22.0884 37.9905 21.9695 36.9847L22.3002 36.3307C23.1553 34.613 24.2829 33.0453 25.6392 31.6887L27.5103 29.8158L37.9952 40.3108C37.9857 40.4163 38.0053 40.5223 38.0516 40.6175L38.9146 42.3613C38.9621 42.4569 39.0345 42.5379 39.1243 42.5954L41.7294 44.3392C41.8506 44.4264 41.9994 44.4662 42.1479 44.4514C42.2964 44.4365 42.4344 44.3679 42.5359 44.2585L44.278 42.5147C44.3874 42.413 44.4559 42.2749 44.4707 42.1263C44.4856 41.9777 44.4457 41.8287 44.3587 41.7074L42.5843 39.1483ZM33.8093 11.3607L34.5352 10.626C35.1379 10.0224 35.8913 9.59169 36.7169 9.3787C37.5425 9.16571 38.4101 9.17827 39.2292 9.41508L36.8499 11.837C36.5634 12.1217 36.3357 12.46 36.1799 12.8327C36.024 13.2055 35.943 13.6053 35.9415 14.0094C35.94 14.4134 36.018 14.8138 36.1711 15.1877C36.3242 15.5616 36.5494 15.9016 36.8338 16.1884C37.1182 16.4752 37.4562 16.7031 37.8286 16.8591C38.2009 17.0151 38.6004 17.0962 39.004 17.0977C39.4077 17.0992 39.8077 17.0211 40.1813 16.8678C40.5548 16.7146 40.8945 16.4892 41.181 16.2045L43.5602 13.7826C43.7934 14.6021 43.8034 15.4691 43.5893 16.2938C43.3752 17.1185 42.9447 17.8709 42.3424 18.4731L41.6165 19.2077C41.0122 19.8171 40.2733 20.2757 39.4592 20.5463C38.6452 20.817 37.779 20.8922 36.9306 20.7658C36.6441 20.725 36.361 20.6629 36.0837 20.5802C35.8078 20.4945 35.5382 20.3893 35.2772 20.2653H35.2369C34.7123 20.0012 34.2331 19.6551 33.8174 19.24C32.9686 18.3923 32.4216 17.2889 32.2608 16.0996C32.2176 15.8327 32.196 15.5627 32.1962 15.2923C32.1887 14.5644 32.3252 13.8422 32.5979 13.1675C32.8706 12.4927 33.2741 11.8786 33.7851 11.3607H33.8093ZM28.212 22.1786C29.4866 20.8934 30.5728 19.4338 31.4381 17.8434C31.4643 17.9094 31.4939 17.9741 31.5268 18.0371C31.5752 18.1421 31.6236 18.2551 31.6801 18.3601L31.8172 18.6184L31.9785 18.8848C32.0303 18.9713 32.0868 19.0549 32.1479 19.1351C32.2051 19.2218 32.267 19.3053 32.3334 19.3853L32.5189 19.6275L32.7447 19.8778L32.9141 20.0635L33.0592 20.1926C33.1641 20.2895 33.2609 20.3864 33.3738 20.4752L33.5431 20.6044C33.6512 20.6942 33.7643 20.7778 33.8819 20.8546L34.0513 20.9677L34.4384 21.2018L34.5836 21.2825L35.1239 21.5328C33.5311 22.3965 32.0699 23.4839 30.7848 24.762L29.2121 26.3363L27.0183 24.1485L26.5989 23.7206L28.212 22.1786ZM19.195 41.667L18.4611 42.4017C17.8574 43.0039 17.104 43.4336 16.2787 43.6465C15.4534 43.8594 14.5863 43.8477 13.7671 43.6127L16.1463 41.2311C16.6907 40.6487 16.9878 39.8774 16.9749 39.08C16.962 38.2825 16.6402 37.5213 16.0773 36.9568C15.5144 36.3923 14.7545 36.0688 13.9578 36.0544C13.1612 36.04 12.3901 36.3359 11.8072 36.8797L9.42797 39.3016C9.19139 38.4817 9.17884 37.6133 9.39163 36.7869C9.60441 35.9605 10.0347 35.2064 10.6378 34.6031L11.3717 33.8765C12.0981 33.1608 13.0082 32.6602 14.0013 32.4301C14.9943 32.2 16.0316 32.2494 16.9983 32.5728C17.9651 32.8962 18.8236 33.481 19.4789 34.2625C20.1342 35.044 20.5607 35.9917 20.7113 37.0008C20.8387 37.8431 20.768 38.7035 20.5048 39.5135C20.2416 40.3236 19.7931 41.061 19.195 41.667ZM24.7843 30.841C23.5112 32.1306 22.4252 33.5926 21.5581 35.1844C21.5597 35.1656 21.5597 35.1467 21.5581 35.1278C21.4953 34.9648 21.4226 34.8057 21.3404 34.6515L21.2275 34.4578C21.1691 34.3414 21.1045 34.2282 21.0339 34.1187L20.8887 33.9088L20.679 33.6182L20.5177 33.4083L20.2435 33.1015C20.1571 33.0668 20.0757 33.0206 20.0016 32.9643L19.8483 32.827L19.558 32.5606L19.3321 32.383L19.066 32.1892L18.824 32.0278L18.5417 31.8583L18.2998 31.7291L17.953 31.5676L17.7755 31.4869C19.3699 30.6256 20.8314 29.5379 22.1146 28.2577L23.9858 26.3847L26.5909 29.0004L24.7843 30.841ZM38.7614 39.342L23.1147 23.6802L23.9777 22.8083L39.6324 38.4701L38.7614 39.342ZM41.9875 43.0476L39.9389 41.6751L39.334 40.4803L40.447 39.3662L41.6488 39.9636L43.0118 42.0223L41.9875 43.0476Z" fill="#676767"/>
</g>
<defs>
<clipPath id="clip0_3370_10184">
<rect width="48" height="48" fill="white" transform="translate(0.78125)"/>
</clipPath>
</defs>
</svg>
