<svg width="49" height="48" viewBox="0 0 49 48" fill="none" xmlns="http://www.w3.org/2000/svg">
<rect width="48" height="48" transform="translate(0.78125)" fill="white"/>
<path d="M37.4878 27.6667C37.8309 27.6664 38.1598 27.5301 38.4024 27.2878C38.6446 27.0453 38.781 26.7164 38.7812 26.3732V23.6268C38.781 23.2837 38.6446 22.9548 38.4024 22.7122C38.1598 22.47 37.831 22.3337 37.4878 22.3334C37.2092 22.3357 36.9369 22.2491 36.7107 22.0863C36.4842 21.9232 36.3161 21.6926 36.2301 21.4274C36.0152 20.7405 35.7384 20.0744 35.4033 19.4372C35.2762 19.1887 35.2315 18.906 35.2759 18.6304C35.3202 18.3548 35.4512 18.1003 35.65 17.9039C35.8926 17.6613 36.0289 17.3325 36.0289 16.9893C36.0289 16.6462 35.8926 16.3173 35.65 16.0747L33.7081 14.1328C33.4655 13.8902 33.1363 13.7536 32.7932 13.7536C32.4503 13.7536 32.1212 13.8902 31.8786 14.1328C31.6825 14.3313 31.428 14.4623 31.1524 14.5066C30.8765 14.5509 30.5941 14.5063 30.3452 14.3795C29.7083 14.0444 29.0422 13.7676 28.3554 13.5527C28.0896 13.4667 27.8584 13.2982 27.6953 13.0717C27.5319 12.8453 27.4453 12.5726 27.4479 12.2935C27.4476 11.9503 27.3113 11.6214 27.0691 11.3789C26.8265 11.1366 26.4976 11.0003 26.1545 11H23.4081C23.0649 11.0003 22.736 11.1366 22.4935 11.3789C22.2512 11.6214 22.1149 11.9503 22.1146 12.2935V12.3214C22.117 12.592 22.0331 12.8565 21.875 13.0762C21.717 13.2961 21.4929 13.4595 21.2352 13.5434C20.539 13.7592 19.8637 14.0387 19.2185 14.378C18.97 14.505 18.6872 14.5497 18.4116 14.5053C18.136 14.461 17.8816 14.33 17.6851 14.1312C17.4426 13.8887 17.1137 13.7524 16.7706 13.7524C16.4274 13.7524 16.0985 13.8887 15.856 14.1312L13.914 16.0732C13.6715 16.3157 13.5349 16.6449 13.5349 16.9881C13.5349 17.3309 13.6715 17.6601 13.914 17.9026C14.1125 18.0988 14.2435 18.3532 14.2878 18.6288C14.3322 18.9047 14.2875 19.1872 14.1608 19.436C13.8253 20.0729 13.5489 20.739 13.3339 21.4259C13.2479 21.6916 13.0795 21.9229 12.853 22.086C12.6265 22.2494 12.3539 22.336 12.0747 22.3333C11.7316 22.3336 11.4027 22.4699 11.1601 22.7122C10.9179 22.9547 10.7815 23.2836 10.7812 23.6268V26.3735V26.3732C10.7815 26.7163 10.9179 27.0452 11.1601 27.2878C11.4027 27.53 11.7315 27.6663 12.0747 27.6666C12.3533 27.6643 12.6256 27.7509 12.8518 27.9137C13.0783 28.0768 13.2464 28.3074 13.3324 28.5726C13.5476 29.2595 13.8241 29.9256 14.1592 30.5628C14.2863 30.8113 14.331 31.094 14.2866 31.3696C14.2423 31.6452 14.1113 31.8997 13.9125 32.0961C13.67 32.3387 13.5336 32.6675 13.5336 33.0107C13.5336 33.3538 13.67 33.6827 13.9125 33.9253L15.8544 35.8672C16.097 36.1098 16.4262 36.2464 16.7693 36.2464C17.1122 36.2464 17.4414 36.1098 17.6839 35.8672C17.88 35.6687 18.1345 35.5378 18.4101 35.4934C18.686 35.4491 18.9684 35.4937 19.2173 35.6205C19.8542 35.9556 20.5203 36.2324 21.2071 36.4473C21.4729 36.5333 21.7041 36.7018 21.8672 36.9283C22.0306 37.1547 22.1172 37.4274 22.1146 37.7065C22.1149 38.0497 22.2512 38.3786 22.4934 38.6211C22.736 38.8634 23.0649 38.9997 23.408 39H26.1547H26.1544C26.4976 38.9997 26.8265 38.8634 27.069 38.6211C27.3113 38.3786 27.4476 38.0497 27.4479 37.7065C27.4455 37.428 27.5321 37.1556 27.6949 36.9295C27.858 36.703 28.0887 36.5348 28.3538 36.4488C28.8711 36.2833 29.3762 36.083 29.8658 35.8488L28.0057 33.7515L28.006 33.7512C25.3155 34.7486 22.3161 34.4572 19.8681 32.9602C17.4202 31.4634 15.7934 28.9266 15.455 26.0771C15.1163 23.2278 16.1029 20.3804 18.1321 18.3514C20.1613 16.3226 23.0089 15.3363 25.8585 15.6753C28.7077 16.014 31.2443 17.641 32.7409 20.0893C34.2374 22.5375 34.5287 25.5369 33.5311 28.2271L35.6279 30.0863C35.8668 29.5884 36.071 29.0742 36.2383 28.5477C36.3216 28.2899 36.4853 28.0652 36.7049 27.9069C36.9249 27.7483 37.1895 27.664 37.4603 27.6664L37.4878 27.6667Z" fill="#DD3333"/>
<path d="M36.792 32.8658L29.375 26.2868C29.8412 24.9838 29.7946 23.5525 29.2442 22.2828C28.6938 21.0129 27.6813 20.0002 26.4119 19.4498C25.1425 18.8993 23.711 18.8524 22.4082 19.3186L24.7883 21.6997L21.4801 25.0084L19.0994 22.6279C18.6336 23.9309 18.6808 25.3623 19.2312 26.6319C19.7818 27.9012 20.7941 28.914 22.0635 29.4643C23.3329 30.0145 24.7641 30.0617 26.0665 29.5958L32.6478 37.0142V37.0139C33.1854 37.6189 33.9487 37.9752 34.7574 37.9987C35.5662 38.0224 36.3488 37.7116 36.921 37.1393C37.4928 36.5674 37.8039 35.7842 37.78 34.9754C37.7563 34.1666 37.4001 33.4034 36.7956 32.8658L36.792 32.8658ZM35.435 35.6556C35.1439 35.9467 34.7062 36.0339 34.3261 35.8764C33.9457 35.7189 33.6976 35.3475 33.6976 34.9358C33.6976 34.5241 33.9457 34.153 34.3261 33.9955C34.7062 33.8379 35.1439 33.9252 35.435 34.2163C35.8321 34.6141 35.8315 35.2585 35.4338 35.6556L35.435 35.6556Z" fill="#DD3333"/>
<path d="M34.1665 3.74973C31.3923 2.58817 28.4455 2 25.4072 2C19.3691 2 13.6881 4.34173 9.41326 8.59457C5.13658 12.8461 2.78125 18.4953 2.78125 24.4994C2.78125 29.868 4.66917 34.9489 8.12483 39.0053H5.17801C4.62383 39.0053 4.17508 39.452 4.17508 40.0027C4.17508 40.5533 4.62383 41 5.17801 41H10.5696C11.1238 41 11.5725 40.5533 11.5725 40.0027V34.2533C11.5725 33.7026 11.1238 33.2559 10.5696 33.2559C10.0154 33.2559 9.56666 33.7026 9.56666 34.2533V37.6141C6.47392 33.9351 4.78746 29.3454 4.78746 24.5C4.78746 19.0281 6.9338 13.8803 10.8312 10.0048C14.7282 6.12903 19.9048 3.99525 25.4076 3.99525C28.1771 3.99525 30.8623 4.5315 33.3887 5.58917C33.8986 5.8021 34.4873 5.56459 34.7024 5.05663C34.9174 4.54868 34.6777 3.96325 34.1668 3.74985L34.1665 3.74973Z" fill="#676767"/>
<path d="M45.5665 9.98877C46.1121 9.98877 46.5538 9.54348 46.5538 8.99461C46.5538 8.44575 46.1121 8.00046 45.5665 8.00046L39.9089 8C39.3633 8 38.9215 8.44529 38.9215 8.99415V14.401C38.9215 14.9499 39.3633 15.3952 39.9089 15.3952C40.4544 15.3952 40.8962 14.9499 40.8962 14.401V11.2599C44.0704 14.9661 45.8067 19.6349 45.8067 24.5723C45.8067 30.0263 43.6938 35.1571 39.8571 39.021C36.0207 42.8844 30.9248 45.0113 25.5075 45.0113C22.974 45.0113 20.5039 44.548 18.1672 43.6338C17.5046 43.3735 16.8497 43.0766 16.222 42.7497C15.7379 42.4991 15.1423 42.6896 14.8916 43.177C14.6414 43.6643 14.831 44.2645 15.3155 44.517C16.0048 44.8758 16.7231 45.2018 17.4514 45.4875C20.0175 46.4914 22.7283 47 25.5075 47C31.4516 47 37.0441 44.6658 41.2525 40.4266C45.4626 36.1877 47.7812 30.5571 47.7812 24.5727C47.7812 19.1659 45.8837 14.0522 42.4143 9.98906L45.5665 9.98877Z" fill="#676767"/>
</svg>
