<svg width="48" height="48" viewBox="0 0 48 48" fill="none" xmlns="http://www.w3.org/2000/svg">
<rect width="48" height="48" fill="white"/>
<path d="M23.0676 21.7352H23.0195V23H23.0676C24.4886 22.9521 25.7808 22.1793 26.4773 20.9614C27.1742 19.7433 27.1742 18.2565 26.4773 17.0386C25.7808 15.8208 24.4886 15.048 23.0676 15H23V16.2648L23.0676 16.2644C24.0613 16.2644 24.979 16.7855 25.4759 17.6309C25.9727 18.4767 25.9727 19.5185 25.4759 20.3639C24.979 21.2094 24.0612 21.7304 23.0676 21.7304V21.7352Z" fill="#DD3333"/>
<path d="M36.1445 16.1317H33.4428C33.1806 15.0527 32.7421 14.0214 32.1435 13.077L34.046 11.2278H34.0457C34.2078 11.0729 34.2987 10.8613 34.2987 10.6407C34.2987 10.4203 34.2078 10.2088 34.0457 10.0539L31.8017 7.87804L31.8021 7.87836C31.4652 7.55556 30.9237 7.55556 30.5868 7.87836L28.6656 9.70924C27.693 9.12402 26.6291 8.69566 25.5149 8.44014V5.8296C25.5149 5.37148 25.1321 5 24.6597 5H23.014V12.0978H23.0561C25.3717 12.1575 27.4852 13.3899 28.6256 15.3447C29.7658 17.2998 29.7658 19.6913 28.6256 21.6461C27.4853 23.6008 25.3718 24.8333 23.0561 24.893H23V32H24.6407C24.8686 32 25.0868 31.9118 25.2472 31.7553C25.4079 31.5988 25.4976 31.3867 25.4963 31.166V28.5507C26.616 28.3 27.6864 27.8745 28.6656 27.2909L30.5773 29.1445C30.7371 29.3013 30.9552 29.3898 31.1828 29.3898C31.4101 29.3898 31.6282 29.3013 31.788 29.1445L34.0319 26.9687L34.0316 26.969C34.3645 26.6424 34.3645 26.117 34.0316 25.7904L32.1244 23.9411C32.7263 23.0037 33.1685 21.9784 33.4333 20.9044H36.1444C36.6169 20.9044 37 20.5332 37 20.0751V16.9612C37 16.5031 36.6169 16.1316 36.1444 16.1316L36.1445 16.1317Z" fill="#DD3333"/>
<path d="M22 32V30.7879H19.2297C18.4888 29.1227 17.4574 27.613 16.187 26.3347L16.1123 26.2622C13.8792 24.3487 12.4692 21.5994 12.1905 18.6144C11.9118 15.6297 12.7871 12.652 14.6252 10.3325C16.4633 8.01282 19.1146 6.53948 22 6.23486V5C18.7963 5.32012 15.8459 6.93911 13.7939 9.50294C11.742 12.0664 10.7559 15.3661 11.0515 18.6797C11.3467 21.9933 12.8997 25.0511 15.3702 27.1836C17.8377 29.7256 18.4128 31.9816 18.4128 31.9816L22 32Z" fill="#676767"/>
<path d="M19 34H29V35H19V34Z" fill="#676767"/>
<path d="M19 41.2962H20.0134L21.902 43.4125H21.9017C22.2365 43.7877 22.703 44.0003 23.1918 44H24.8362C25.3239 43.998 25.7902 43.7857 26.126 43.4125L28.0097 41.2962H29V40H19.0003L19 41.2962Z" fill="#676767"/>
<path d="M19 37H29V38H19V37Z" fill="#676767"/>
</svg>
