<svg width="49" height="48" viewBox="0 0 49 48" fill="none" xmlns="http://www.w3.org/2000/svg">
<rect width="48" height="48" transform="translate(0.78125)" fill="white"/>
<path d="M13.5361 41.4071H39.4084V21.8984L41.7408 17.92L41.7408 44.8H12.3008V42.5821C12.3012 42.2706 12.4314 41.9719 12.663 41.7517C12.8946 41.5314 13.2086 41.4075 13.5361 41.4071Z" stroke="#676767" stroke-width="2" stroke-miterlimit="10"/>
<path d="M11.6231 34.971L10.3828 36.0096V38.4L30.0825 38.2934L43.6628 14.0481L42.7028 12.1601L40.9985 12.1601" stroke="#676767" stroke-width="2" stroke-miterlimit="10" stroke-linejoin="round"/>
<path d="M36.3214 23.0548L32.3008 23.0548L35.8739 17.2877H39.447L36.3214 23.0548ZM32.6453 28.8219H28.7277L31.8547 23.7755L35.8739 23.7767L32.6453 28.8219ZM19.2145 35.84L23.1164 29.5438H27.2959L23.394 35.84H19.2145ZM14.1146 35.84L18.0158 29.5438H22.13L18.228 35.84H14.1146ZM16.5766 23.7767H20.6024L17.4754 28.8219H13.4533L16.5766 23.7767ZM20.595 17.2877H24.6216L21.0485 23.0548H17.0227L20.595 17.2877ZM33.2946 11.52L30.1669 16.5664H26.0534L29.1804 11.52M29.1804 11.52H33.2946H29.1804ZM29.7215 17.2877L26.1454 23.0548H22.032L25.6051 17.2877H29.7215ZM21.5889 23.7761H25.7001L22.5753 28.8219H18.4618L21.5889 23.7761ZM23.5617 28.8219L26.6895 23.7755H30.8683L27.7412 28.8219H23.5617ZM31.3143 23.0542H27.1348L30.7079 17.2871H34.8874L31.3143 23.0542ZM38.4606 11.52L35.3328 16.5664H31.1533L34.281 11.52H38.4606ZM28.194 11.52L25.067 16.5664H21.0411L24.1681 11.52H28.194ZM13.0035 29.5432H17.0293L13.1282 35.84H9.10156L13.0035 29.5432ZM28.7277 35.84L24.3804 35.84L28.2823 29.5438L32.3008 29.5438L28.7277 35.84ZM43.0193 11.5206L39.902 16.567H36.3214L39.4492 11.5206H43.0216" fill="#DD3333"/>
<path d="M18.0612 10.88H16.7812V11.52H18.0612V10.88Z" fill="#676767" stroke="#676767"/>
<path d="M14.8603 11.2002C14.8603 11.1551 14.8603 11.1101 14.8566 11.0658C14.8566 11.0489 14.8566 11.032 14.8566 11.0151C14.8566 10.987 14.8528 10.9595 14.8503 10.9314C14.8478 10.9032 14.8459 10.8907 14.8434 10.8688C14.8409 10.847 14.8384 10.8226 14.8347 10.7995C14.8309 10.7763 14.8284 10.7544 14.8247 10.7319C14.8209 10.7094 14.8178 10.6926 14.814 10.6732C14.8103 10.6538 14.8053 10.6232 14.7997 10.5988C14.7997 10.5844 14.7934 10.5707 14.7903 10.5563C14.7687 10.4618 14.7422 10.3686 14.7109 10.2769C14.7065 10.2637 14.7021 10.25 14.6971 10.2369C14.6884 10.2118 14.679 10.1875 14.6696 10.1625C14.6602 10.1375 14.6571 10.13 14.6502 10.1137C14.6433 10.0974 14.6321 10.0693 14.6227 10.0474C14.6133 10.0256 14.6052 10.0087 14.5958 9.9893C14.5864 9.96992 14.5789 9.95242 14.5702 9.93429C14.5564 9.90679 14.5427 9.87991 14.5283 9.85303C14.5233 9.84303 14.5183 9.8324 14.5127 9.8224C14.1566 9.16563 13.5579 8.67393 12.8444 8.45214L12.8325 8.44839C12.7969 8.43714 12.7612 8.42714 12.7249 8.41776L12.6856 8.40776L12.6599 8.40088C12.2858 8.31036 11.8973 8.29571 11.5174 8.35781C11.1375 8.41991 10.7739 8.5575 10.4481 8.76244C10.1223 8.96737 9.84092 9.23551 9.62052 9.55101C9.40012 9.86651 9.24519 10.223 9.16491 10.5993C9.08463 10.9757 9.08061 11.3643 9.1531 11.7423C9.22558 12.1202 9.37309 12.4798 9.58692 12.7998C9.80075 13.1198 10.0766 13.3937 10.3981 13.6053C10.7195 13.8169 11.0802 13.962 11.4587 14.0319L11.48 14.0357C11.525 14.0432 11.57 14.0501 11.6157 14.0557L11.6519 14.0607C11.6938 14.0657 11.7364 14.0688 11.777 14.0719L11.817 14.0751C11.8708 14.0751 11.9258 14.0801 11.9809 14.0801C12.7449 14.0801 13.4776 13.7766 14.0178 13.2366C14.5581 12.6965 14.8616 11.964 14.8616 11.2002H14.8603Z" stroke="#676767" stroke-width="2" stroke-miterlimit="10"/>
<path d="M7.82297 10.88H6.54297V11.52H7.82297V10.88Z" fill="#676767" stroke="#676767"/>
<path d="M12.3002 5.12H11.6602L11.6593 6.39999H12.2993L12.3002 5.12Z" fill="#676767" stroke="#676767"/>
<path d="M12.9408 16H12.3008L12.2999 17.28H12.9399L12.9408 16Z" fill="#676767" stroke="#676767"/>
<path d="M15.7485 6.75918L14.8594 7.67993L15.2978 8.14619L16.1869 7.22544L15.7485 6.75918Z" fill="#676767" stroke="#676767"/>
<path d="M8.70948 14.4392L7.82031 15.36L8.25872 15.8262L9.14788 14.9055L8.70948 14.4392Z" fill="#676767" stroke="#676767"/>
<path d="M7.61617 6.57197L7.17969 7.04004L8.07265 7.95711L8.50912 7.48905L7.61617 6.57197Z" fill="#676767" stroke="#676767"/>
<path d="M15.9446 14.2596L15.5 14.72L16.8487 16.0865L17.2933 15.6261L15.9446 14.2596Z" fill="#676767" stroke="#676767"/>
</svg>
