<svg width="49" height="48" viewBox="0 0 49 48" fill="none" xmlns="http://www.w3.org/2000/svg">
<rect width="48" height="48" transform="translate(0.78125)" fill="white"/>
<path d="M29.5811 9.37036V13.4075C29.5773 14.5163 29.1041 15.5788 28.2647 16.3629C27.4254 17.147 26.2881 17.589 25.1011 17.5926C23.9141 17.589 22.7768 17.147 21.9375 16.3629C21.0981 15.5788 20.6249 14.5163 20.6211 13.4075V9.37036" stroke="#676767" stroke-width="2" stroke-miterlimit="10" stroke-linecap="round"/>
<path d="M11.0195 26.186V22.8907C11.031 18.9452 12.518 15.1647 15.1561 12.3747C17.7941 9.5848 21.3688 8.01208 25.0995 8V8C28.8303 8.01208 32.4049 9.5848 35.043 12.3747C37.681 15.1647 39.1681 18.9452 39.1795 22.8907V26.5" stroke="#676767" stroke-width="2" stroke-miterlimit="10" stroke-linecap="round"/>
<path d="M40.6144 23.0741H9.58623C8.61094 23.0741 7.82031 24.1478 7.82031 25.4722C7.82031 26.7967 8.61094 27.8704 9.58623 27.8704H40.6144C41.5897 27.8704 42.3803 26.7967 42.3803 25.4722C42.3803 24.1478 41.5897 23.0741 40.6144 23.0741Z" fill="#DD3333"/>
<path d="M39.1795 29.9259L11.6038 29.9259C11.5279 29.9251 11.4526 29.9406 11.3821 29.9717C11.3116 30.0027 11.2474 30.0487 11.1932 30.107C11.1389 30.1652 11.0957 30.2347 11.0659 30.3113C11.0361 30.3879 11.0203 30.4702 11.0195 30.5535V32.9394C11.0194 33.0222 11.0346 33.1042 11.0641 33.1804C11.0937 33.2566 11.137 33.3255 11.1914 33.3829C11.2996 33.499 11.4444 33.5649 11.5958 33.5669H14.2383C14.435 34.2338 14.6853 34.8801 14.9864 35.4983L13.1162 37.494C13.0619 37.5515 13.0187 37.6204 12.9892 37.6966C12.9597 37.7728 12.9445 37.8547 12.9445 37.9375C12.9445 38.0203 12.9597 38.1022 12.9892 38.1784C13.0187 38.2546 13.0619 38.3235 13.1162 38.381L17.18 42.7449C17.2905 42.8643 17.4394 42.9313 17.5945 42.9313C17.7496 42.9313 17.8985 42.8643 18.009 42.7449L19.8792 40.7381C20.4397 41.0405 21.0219 41.292 21.62 41.4898V44.3725C21.6203 44.4552 21.6357 44.537 21.6652 44.6131C21.6947 44.6893 21.7378 44.7582 21.7918 44.8159C21.9002 44.9317 22.0449 44.9975 22.1962 45H27.9564C28.1077 44.998 28.2526 44.9321 28.3607 44.8159C28.4148 44.7582 28.4578 44.6893 28.4873 44.6131C28.5168 44.537 28.5322 44.4552 28.5326 44.3725V41.4898C29.1479 41.2833 29.7458 41.0192 30.3199 40.7004L32.1901 42.6961C32.3009 42.8157 32.4501 42.8827 32.6056 42.8827C32.761 42.8827 32.9102 42.8157 33.021 42.6961L37.0768 38.33C37.1306 38.2722 37.1734 38.2032 37.2025 38.127C37.2317 38.0509 37.2468 37.9691 37.2468 37.8865C37.2468 37.8039 37.2317 37.7221 37.2025 37.646C37.1734 37.5698 37.1306 37.5008 37.0768 37.443L35.2188 35.4473C35.5181 34.8275 35.7684 34.1806 35.9669 33.5137H38.5952C38.75 33.5141 38.8988 33.4481 39.0097 33.3297C39.0635 33.2719 39.1062 33.2029 39.1354 33.1267C39.1645 33.0506 39.1795 32.9688 39.1795 32.8862V30.549" stroke="#676767" stroke-width="2" stroke-miterlimit="10" stroke-linecap="round"/>
<path d="M31.4992 29.9259C31.4992 31.5614 30.8249 33.1299 29.6247 34.2864C28.4245 35.4429 26.7966 36.0926 25.0992 36.0926C23.4018 36.0926 21.774 35.4429 20.5737 34.2864C19.3735 33.1299 18.6992 31.5614 18.6992 29.9259" stroke="#676767" stroke-width="2" stroke-miterlimit="10" stroke-linecap="round"/>
</svg>
