<svg width="48" height="48" viewBox="0 0 48 48" fill="none" xmlns="http://www.w3.org/2000/svg">
<rect width="48" height="48" fill="white"/>
<g clip-path="url(#clip0_3370_10087)">
<path fill-rule="evenodd" clip-rule="evenodd" d="M39 7H42.8568C44.0379 7 45 8.0226 45 9.27626V35C45 33.7428 44.0319 32.7143 42.8484 32.7143H39V7Z" fill="#676767"/>
<path fill-rule="evenodd" clip-rule="evenodd" d="M9.18103 13C7.9797 13 7 13.9735 7 15.1657V29L7.8005 28.6911C7.98913 28.6186 8.18601 28.601 8.3711 28.6326V15.1657C8.3711 14.7246 8.73775 14.3607 9.18221 14.3607H16C15.8821 13.9208 15.7984 13.4657 15.7536 13H9.18103Z" fill="#676767"/>
<path fill-rule="evenodd" clip-rule="evenodd" d="M32 14H38V13H32.267C32.2184 13.3422 32.129 13.6758 32 14Z" fill="#676767"/>
<path fill-rule="evenodd" clip-rule="evenodd" d="M17 37H41.6652C43.0121 37 43.6238 36.6002 44 35.6338C44 35.084 43.5187 34.1579 42.9613 34C43.1459 34.6685 42.6462 35.6976 41.6663 35.6976H17.9799C17.9614 35.7077 17.9429 35.7167 17.9245 35.7256L17.0058 36.159C17.0231 36.439 17.0208 36.72 17.0012 37H17Z" fill="#676767"/>
<path fill-rule="evenodd" clip-rule="evenodd" d="M19.4656 23H33.5333C33.7899 23 34 23.2251 34 23.5C34 23.7749 33.7899 24 33.5333 24H19.4656C19.2089 24 19 23.7749 19 23.5C19 23.2251 19.2101 23 19.4656 23Z" fill="#676767"/>
<path fill-rule="evenodd" clip-rule="evenodd" d="M19.4603 29H26.5397C26.7934 29 27 29.2251 27 29.5C27 29.7749 26.7923 30 26.5397 30H19.4603C19.2066 30 19 29.7749 19 29.5C19 29.2251 19.2077 29 19.4603 29Z" fill="#676767"/>
<path fill-rule="evenodd" clip-rule="evenodd" d="M19.4656 26H33.5333C33.7899 26 34 26.2253 34 26.4994C34 26.7734 33.7899 27 33.5333 27H19.4656C19.2089 27 19 26.7747 19 26.4994C19 26.2241 19.2101 26 19.4656 26Z" fill="#676767"/>
<path d="M24.5 5C20.9098 5 18 8.13487 18 12C18 15.8651 20.9098 19 24.5 19C28.0902 19 31 15.8663 31 12C31 8.13366 28.0902 5 24.5 5ZM21.8655 17.5614L23.4891 12.0668L21.1603 12.3159L23.6628 6.45322L27.1221 6.43985L24.8272 10.3913L27.9379 10.0656L21.8643 17.5626L21.8655 17.5614Z" fill="#DD3333"/>
<path d="M16.3352 35.438L18 34.6297L17.2953 32.8154L15.5209 33.343C15.1029 32.6756 14.5487 32.0865 13.8766 31.6227L14.4813 29.8734L12.6996 29.0892L11.8179 30.7167C11.0228 30.5348 10.2133 30.5228 9.43872 30.6649L8.63042 29L6.81625 29.7048L7.34388 31.4793C6.67652 31.8974 6.08746 32.4515 5.62367 33.125L3.87456 32.5202L3.09035 34.3008L4.71659 35.1826C4.53469 35.979 4.52265 36.7873 4.66479 37.562L3 38.3703L3.70471 40.1846L5.47912 39.657C5.89713 40.3244 6.45125 40.9135 7.12464 41.3773L6.51992 43.1266L8.30156 43.9108L9.18334 42.2833C9.9796 42.4652 10.7879 42.4772 11.5625 42.3351L12.3708 44L14.1849 43.2952L13.6573 41.5207C14.3247 41.1014 14.9137 40.5485 15.3775 39.875L17.1254 40.4798L17.9097 38.698L16.2834 37.8162C16.4653 37.021 16.4774 36.2115 16.3352 35.4368V35.438ZM13.6393 37.8824C12.8755 39.616 10.8518 40.4027 9.11829 39.6389C7.38484 38.8751 6.59822 36.8512 7.36195 35.1176C8.12568 33.384 10.1495 32.5973 11.8829 33.3611C13.6164 34.1249 14.403 36.1488 13.6393 37.8824Z" fill="#DD3333"/>
<path d="M10.421 37.7245C10.9591 37.6003 11.2954 37.0632 11.1721 36.5248C11.0487 35.9865 10.5125 35.6508 9.97437 35.775C9.43624 35.8993 9.09999 36.4364 9.22332 36.9747C9.34666 37.5131 9.88289 37.8488 10.421 37.7245Z" fill="#DD3333"/>
</g>
<defs>
<clipPath id="clip0_3370_10087">
<rect width="42" height="39" fill="white" transform="translate(3 5)"/>
</clipPath>
</defs>
</svg>
