<svg width="48" height="48" viewBox="0 0 48 48" fill="none" xmlns="http://www.w3.org/2000/svg">
<path d="M29 5V9.90999C28.9958 11.2586 28.4676 12.5508 27.5308 13.5044C26.5941 14.458 25.3248 14.9957 24 15C22.6752 14.9957 21.4059 14.458 20.4692 13.5044C19.5324 12.5508 19.0042 11.2586 19 9.90999V5" stroke="#676767" stroke-width="2" stroke-miterlimit="10" stroke-linecap="round"/>
<path d="M8 23.6605V20.0981C8.01298 15.8326 9.70285 11.7456 12.7006 8.72944C15.6984 5.71329 19.7605 4.01306 24 4V4C28.2395 4.01306 32.3016 5.71329 35.2994 8.72944C38.2971 11.7456 39.987 15.8326 40 20.0981V24" stroke="#676767" stroke-width="2" stroke-miterlimit="10" stroke-linecap="round"/>
<path d="M41.9561 21H6.04388C4.91508 21 4 21.8954 4 23C4 24.1046 4.91508 25 6.04388 25H41.9561C43.0849 25 44 24.1046 44 23C44 21.8954 43.0849 21 41.9561 21Z" fill="#DD3333"/>
<path d="M41 28L8.68474 28C8.59575 27.9991 8.50744 28.0156 8.42487 28.0486C8.3423 28.0815 8.26707 28.1303 8.20349 28.1922C8.1399 28.254 8.08921 28.3277 8.05429 28.409C8.01938 28.4904 8.00093 28.5777 8 28.6661V31.1986C7.99989 31.2865 8.01768 31.3735 8.05229 31.4544C8.0869 31.5353 8.13761 31.6084 8.20139 31.6694C8.32817 31.7926 8.49789 31.8626 8.67526 31.8647H11.772C12.0025 32.5725 12.2958 33.2585 12.6486 33.9147L10.457 36.033C10.3934 36.094 10.3428 36.1671 10.3082 36.248C10.2736 36.3289 10.2558 36.4158 10.2558 36.5037C10.2558 36.5916 10.2736 36.6785 10.3082 36.7594C10.3428 36.8403 10.3934 36.9134 10.457 36.9744L15.2193 41.6064C15.3488 41.7331 15.5233 41.8042 15.7051 41.8042C15.8868 41.8042 16.0613 41.7331 16.1908 41.6064L18.3824 39.4763C19.0392 39.7974 19.7215 40.0642 20.4224 40.2742V43.3339C20.4228 43.4217 20.4408 43.5086 20.4754 43.5894C20.51 43.6702 20.5604 43.7434 20.6238 43.8047C20.7508 43.9275 20.9204 43.9974 21.0976 44H27.8479C28.0252 43.9979 28.195 43.9279 28.3217 43.8047C28.3851 43.7434 28.4355 43.6702 28.4701 43.5894C28.5047 43.5086 28.5227 43.4217 28.5231 43.3339V40.2742C29.2442 40.055 29.9449 39.7747 30.6176 39.4363L32.8092 41.5546C32.9391 41.6815 33.114 41.7526 33.2961 41.7526C33.4783 41.7526 33.6532 41.6815 33.783 41.5546L38.5359 36.9203C38.5989 36.8589 38.649 36.7857 38.6832 36.7049C38.7174 36.624 38.735 36.5372 38.735 36.4496C38.735 36.3619 38.7174 36.2751 38.6832 36.1943C38.649 36.1134 38.5989 36.0402 38.5359 35.9788L36.3585 33.8606C36.7093 33.2026 37.0026 32.516 37.2351 31.8082H40.3153C40.4966 31.8086 40.671 31.7385 40.801 31.6129C40.864 31.5515 40.9141 31.4782 40.9482 31.3974C40.9824 31.3166 41 31.2298 41 31.1421V28.6614" stroke="#676767" stroke-width="2" stroke-miterlimit="10" stroke-linecap="round"/>
<path d="M31 28C31 29.8565 30.2625 31.637 28.9497 32.9497C27.637 34.2625 25.8565 35 24 35C22.1435 35 20.363 34.2625 19.0503 32.9497C17.7375 31.637 17 29.8565 17 28" stroke="#676767" stroke-width="2" stroke-miterlimit="10" stroke-linecap="round"/>
</svg>
