<svg width="49" height="48" viewBox="0 0 49 48" fill="none" xmlns="http://www.w3.org/2000/svg">
<g clip-path="url(#clip0_3370_10243)">
<rect width="48" height="48" transform="translate(0.78125)" fill="white"/>
<path d="M43.1088 4H13.5227C13.3443 4 13.1732 4.07084 13.0472 4.19692C12.9211 4.323 12.8502 4.49411 12.8502 4.67241V11.3966C12.8502 11.7679 13.1513 12.069 13.5227 12.069C13.894 12.069 14.1951 11.7679 14.1951 11.3966V5.34483H42.4364V36.9483C42.4364 38.6299 41.5392 40.1837 40.083 41.0245C38.6268 41.8653 36.8323 41.8653 35.3761 41.0245C33.9199 40.1837 33.0226 38.6299 33.0226 36.9483C33.0244 36.7694 32.9542 36.5974 32.8275 36.471C32.7011 36.3443 32.5291 36.2741 32.3502 36.2759H14.1951V34.2586C14.1951 33.8873 13.894 33.5862 13.5227 33.5862C13.1513 33.5862 12.8502 33.8873 12.8502 34.2586V36.2759H5.4537C5.27479 36.2741 5.10278 36.3443 4.97641 36.471C4.84973 36.5974 4.77949 36.7694 4.78128 36.9483C4.78369 38.5525 5.42217 40.0903 6.55661 41.2247C7.69103 42.3591 9.22882 42.9975 10.833 43H37.7295C39.334 42.9982 40.8722 42.36 42.0068 41.2256C43.1413 40.0909 43.7794 38.5528 43.7812 36.9483V4.67241C43.7812 4.49411 43.7104 4.323 43.5843 4.19692C43.4583 4.07085 43.2871 4 43.1088 4ZM10.833 41.6552C9.7022 41.6534 8.60981 41.2445 7.7555 40.504C6.90119 39.7631 6.3419 38.7398 6.17983 37.6207H31.7177C31.8951 39.2027 32.6873 40.6519 33.9231 41.6552H10.833Z" fill="#676767"/>
<path d="M16.7812 28V32.3705V32.3703C16.769 32.7135 16.4627 32.989 16.0812 33C15.9746 32.9986 15.8699 32.9772 15.7731 32.937L13.2812 31.8162L10.7894 32.937C10.5737 33.0323 10.3181 33.018 10.1172 32.8994C9.90968 32.7883 9.78219 32.5876 9.78125 32.3703V28.0127C9.97563 28.1732 10.1866 28.3166 10.4112 28.4408C10.6541 28.5884 10.9119 28.7149 11.1812 28.8187C12.5175 29.3559 14.045 29.3559 15.3812 28.8187C15.6478 28.7178 15.9013 28.591 16.1372 28.4408C16.3706 28.3174 16.5868 28.1692 16.7812 28Z" fill="#DD3333"/>
<path d="M20.6931 20.366C20.8944 19.4667 20.748 18.5248 20.2833 17.7293C19.8207 16.9279 19.0751 16.3285 18.193 16.0492C17.4748 15.8421 16.818 15.4622 16.2804 14.9425C15.5894 14.3351 14.7008 14 13.7805 14C12.8602 14 11.9716 14.3351 11.2807 14.9425C10.7431 15.4621 10.0862 15.8421 9.36812 16.0492H9.35439C8.47586 16.333 7.73456 16.9338 7.27499 17.7342C6.81545 18.535 6.6703 19.4778 6.8679 20.3798C7.04568 21.1068 7.04568 21.8658 6.8679 22.5928C6.66908 23.4966 6.81515 24.4419 7.27774 25.2432C7.74033 26.0446 8.48594 26.6438 9.36807 26.9234C9.716 27.0243 10.0508 27.1667 10.3652 27.3469C10.6985 27.5342 11.0062 27.7638 11.2806 28.03C11.4185 28.1629 11.5697 28.2822 11.7313 28.3852C12.3394 28.7862 13.052 29 13.7805 29C14.5112 29.0015 15.2257 28.7826 15.8297 28.3715C15.9947 28.2727 16.1459 28.1535 16.2804 28.0163C16.5552 27.7543 16.8628 27.5293 17.1959 27.3469C17.5133 27.1597 17.853 27.0127 18.2067 26.9097C19.0856 26.631 19.8284 26.0333 20.2885 25.234C20.7487 24.4352 20.8929 23.4929 20.6932 22.5927C20.5154 21.8612 20.5154 21.0977 20.6932 20.3661L20.6931 20.366ZM13.7805 24.9013C12.8748 24.9013 12.0061 24.5415 11.3653 23.9012C10.7249 23.2608 10.3652 22.3921 10.3652 21.4861C10.3652 20.5804 10.725 19.7117 11.3653 19.0713C12.006 18.4306 12.8748 18.0708 13.7805 18.0708C14.6862 18.0708 15.5549 18.4306 16.1956 19.0713C16.836 19.7116 17.1958 20.5804 17.1958 21.4861C17.1955 22.3918 16.8356 23.2604 16.195 23.9009C15.5546 24.5412 14.6862 24.901 13.7805 24.9013Z" fill="#DD3333"/>
<path d="M15.7812 21C15.7812 22.1048 14.8857 23 13.7812 23C12.6768 23 11.7812 22.1048 11.7812 21C11.7812 19.8955 12.6768 19 13.7812 19C14.8857 19 15.7812 19.8955 15.7812 21Z" fill="#DD3333"/>
<path d="M39.1048 9H17.4577C17.0842 9 16.7812 8.77611 16.7812 8.5C16.7812 8.22389 17.0842 8 17.4577 8H39.1048C39.4783 8 39.7812 8.22389 39.7812 8.5C39.7812 8.77611 39.4783 9 39.1048 9Z" fill="#676767"/>
<path d="M39.1048 13H17.4577C17.0842 13 16.7812 12.7761 16.7812 12.5C16.7812 12.2239 17.0842 12 17.4577 12H39.1048C39.4783 12 39.7812 12.2239 39.7812 12.5C39.7812 12.7761 39.4783 13 39.1048 13Z" fill="#676767"/>
<path d="M39.1146 17H24.4479C24.0798 17 23.7812 16.7761 23.7812 16.5C23.7812 16.2239 24.0798 16 24.4479 16H39.1146C39.4827 16 39.7812 16.2239 39.7812 16.5C39.7812 16.7761 39.4827 17 39.1146 17Z" fill="#676767"/>
<path d="M39.1146 33H28.4479C28.0798 33 27.7812 32.7761 27.7812 32.5C27.7812 32.2239 28.0798 32 28.4479 32H39.1146C39.4827 32 39.7812 32.2239 39.7812 32.5C39.7812 32.7761 39.4827 33 39.1146 33Z" fill="#676767"/>
<path d="M39.0309 28.4268C35.5788 28.8684 33.7262 28.5606 32.7396 28.119H32.7399C33.6792 27.2226 34.1933 25.9662 34.1525 24.6654C34.1525 23.5945 33.686 23.1929 33.2996 23.0456V23.0459C32.9128 22.9602 32.5091 22.9951 32.1423 23.1457C31.7757 23.2966 31.4633 23.5557 31.247 23.8891C30.7454 24.4036 30.4077 25.0568 30.2772 25.7646C30.1469 26.4727 30.2293 27.2038 30.514 27.8648C30.5274 27.8917 30.5539 27.9183 30.5672 27.9452V27.9449C29.8871 28.2185 29.1665 28.3769 28.4347 28.4134C28.2562 28.4184 28.0866 28.4943 27.964 28.6252C27.8414 28.7558 27.7757 28.9303 27.7816 29.1095C27.7941 29.4696 28.0896 29.754 28.4481 29.7519H28.4614C29.5295 29.7253 30.578 29.4552 31.527 28.9622C32.8869 29.7379 34.4453 30.092 36.0055 29.9796C37.0709 29.9692 38.1348 29.8933 39.191 29.7519C39.5563 29.7029 39.8164 29.3707 39.7774 29.0026C39.7259 28.6387 39.3942 28.3829 39.0309 28.4268L39.0309 28.4268ZM31.7802 25.4684C31.9899 24.9958 32.3389 24.5987 32.7798 24.3307C32.8126 24.4391 32.8259 24.5524 32.8197 24.6653C32.8548 25.6522 32.443 26.602 31.7002 27.2489C31.4517 26.6749 31.4815 26.0179 31.7802 25.4684Z" fill="#676767"/>
</g>
<defs>
<clipPath id="clip0_3370_10243">
<rect width="48" height="48" fill="white" transform="translate(0.78125)"/>
</clipPath>
</defs>
</svg>
