<svg width="48" height="48" viewBox="0 0 48 48" fill="none" xmlns="http://www.w3.org/2000/svg">
<rect width="48" height="48" fill="white"/>
<g clip-path="url(#clip0_3370_9981)">
<path d="M32 25.3335V19.0155L30.5599 20.473V25.3366M28.8677 42.5592H7.88022C7.49828 42.5592 7.13198 42.407 6.86191 42.136C6.59184 41.865 6.44011 41.4975 6.44011 41.1143V15.1024C6.44011 14.7191 6.59184 14.3516 6.86191 14.0806C7.13198 13.8097 7.49828 13.6574 7.88022 13.6574H9.85985V16.5473H27.1401V13.6585H29.1198C29.5015 13.6585 29.8677 13.8105 30.1377 14.0813C30.4078 14.3521 30.5596 14.7193 30.5599 15.1024V20.4688L32 19.0114V15.1024C32 14.7229 31.9255 14.3472 31.7807 13.9966C31.636 13.646 31.4238 13.3275 31.1563 13.0593C30.8889 12.791 30.5714 12.5782 30.2219 12.4331C29.8725 12.288 29.498 12.2134 29.1198 12.2135H26.8911C26.6618 11.5634 26.2814 10.9775 25.7814 10.5043C25.2814 10.031 24.6763 9.68415 24.0161 9.4923C23.6918 9.39986 23.3964 9.22604 23.1577 8.98725C22.919 8.74846 22.7449 8.45258 22.6517 8.12753C22.3909 7.22557 21.8452 6.43297 21.0968 5.86896C20.3483 5.30494 19.4376 5 18.5016 5C17.5655 5 16.6548 5.30494 15.9064 5.86896C15.1579 6.43297 14.6122 7.22557 14.3514 8.12753C14.2588 8.45347 14.0848 8.75029 13.8458 8.98986C13.6069 9.22943 13.3109 9.40381 12.986 9.49647C12.3256 9.68773 11.7201 10.034 11.2196 10.5067C10.7192 10.9793 10.338 11.5648 10.1078 12.2146H7.87918C7.50113 12.2144 7.12676 12.289 6.77745 12.4341C6.42813 12.5791 6.11073 12.7918 5.84336 13.06C5.57599 13.3282 5.36389 13.6466 5.21919 13.997C5.07448 14.3474 5 14.723 5 15.1024V41.1101C4.99986 41.4896 5.07424 41.8653 5.21887 42.216C5.3635 42.5666 5.57556 42.8851 5.84293 43.1535C6.1103 43.4219 6.42774 43.6348 6.77713 43.78C7.12651 43.9252 7.501 44 7.87918 44H29.1198M11.3 13.6356C11.3072 13.0136 11.5132 12.4104 11.8876 11.9147C12.2621 11.419 12.7853 11.057 13.3802 10.8821C13.9399 10.7223 14.4496 10.4217 14.8611 10.0089C15.2725 9.59607 15.5721 9.08465 15.7313 8.52312C15.9046 7.92088 16.2683 7.39149 16.7676 7.01472C17.2669 6.63794 17.8747 6.4342 18.4995 6.4342C19.1242 6.4342 19.732 6.63794 20.2313 7.01472C20.7306 7.39149 21.0943 7.92088 21.2676 8.52312C21.4266 9.08452 21.7259 9.59583 22.1372 10.0085C22.5485 10.4212 23.0582 10.7215 23.6177 10.881C24.2172 11.0566 24.744 11.422 25.1193 11.9229C25.4947 12.4237 25.6984 13.0329 25.7 13.6595V15.1024H11.3V13.6356Z" fill="#676767"/>
<path d="M11 21H26" stroke="#676767" stroke-width="2" stroke-miterlimit="10" stroke-linecap="round"/>
<path d="M11 26H26" stroke="#676767" stroke-width="2" stroke-miterlimit="10" stroke-linecap="round"/>
<path d="M11 31H24" stroke="#676767" stroke-width="2" stroke-miterlimit="10" stroke-linecap="round"/>
<path d="M11 36H23" stroke="#676767" stroke-width="2" stroke-miterlimit="10" stroke-linecap="round"/>
<path d="M32.6125 30.8717C32.7094 30.8058 32.8201 30.7704 32.9332 30.7692C33.0462 30.768 33.1575 30.8011 33.2554 30.8651L35 32V25H31V31.9756L32.6125 30.8717Z" fill="#DD3333"/>
<path d="M35.9826 25V32.7474C35.9827 32.8657 35.9522 32.982 35.8942 33.0845C35.8362 33.1871 35.7528 33.2722 35.6523 33.3315C35.5518 33.3908 35.4378 33.4221 35.3217 33.4222C35.2056 33.4224 35.0915 33.3915 34.9908 33.3325L32.5158 31.8813L30.1665 33.3252C30.0661 33.387 29.9513 33.4205 29.834 33.4222C29.7167 33.424 29.6011 33.3939 29.4989 33.3352C29.3967 33.2764 29.3117 33.191 29.2526 33.0877C29.1935 32.9844 29.1624 32.867 29.1624 32.7474V25H24V44H42V25H35.9826Z" fill="#DD3333"/>
<circle cx="18.5" cy="9.5" r="1.5" fill="#676767"/>
</g>
<defs>
<clipPath id="clip0_3370_9981">
<rect width="37" height="39" fill="white" transform="translate(5 5)"/>
</clipPath>
</defs>
</svg>
