<svg width="48" height="48" viewBox="0 0 48 48" fill="none" xmlns="http://www.w3.org/2000/svg">
<rect width="48" height="48" fill="white"/>
<path d="M0 26H6V43H0V26Z" fill="#DD3333"/>
<path d="M14 21H20V43H14V21Z" fill="#DD3333"/>
<path d="M28 28H34V43H28V28Z" fill="#DD3333"/>
<path d="M42 18H48V43H42V18Z" fill="#DD3333"/>
<path d="M45.5 5C46.3295 5 47 5.67301 47 6.50162C47 7.33019 46.3263 8 45.5 8C44.6737 8 44 7.32698 44 6.50162C44 5.67626 44.6737 5 45.5 5Z" fill="#676767"/>
<path d="M32.5714 19.4508C32.8381 19.7206 33 20.092 33 20.4984C33 21.3238 32.327 22 31.5016 22C30.6731 22 30 21.327 30 20.4984C30 20.146 30.1206 19.8222 30.3238 19.5682C30.6 19.2222 31.0222 19 31.4984 19C31.9206 19 32.3016 19.1714 32.5714 19.4508Z" fill="#676767"/>
<path d="M19 9.5032C19 9.85521 18.8793 10.1787 18.6761 10.4324C18.4 10.778 17.9777 11 17.5016 11C16.9778 11 16.5111 10.7273 16.2444 10.3182C16.0921 10.0835 16 9.80129 16 9.50002C16 8.67234 16.673 8 17.5016 8C18.327 8.00634 19 8.67869 19 9.5032Z" fill="#676767"/>
<path d="M3.50163 17C4.32702 17 5 17.673 5 18.4984C5 19.3269 4.32698 20 3.50163 20C2.67306 20 2 19.327 2 18.4984C2 17.673 2.67302 17 3.50163 17Z" fill="#676767"/>
<path d="M44 8.75975L33.734 19C33.5442 18.6961 33.2923 18.4365 33 18.2371L43.266 8C43.4558 8.30072 43.7046 8.56032 44 8.75975Z" fill="#676767"/>
<path d="M19.6794 10L30 18.149C29.7185 18.3811 29.4856 18.6712 29.3206 19L19 10.851C19.2815 10.6189 19.5144 10.3288 19.6794 10Z" fill="#676767"/>
<path d="M15 10.8602L5.56231 17C5.43769 16.6748 5.24316 16.383 5 16.1398L14.4377 10C14.5653 10.3252 14.7568 10.617 15 10.8602Z" fill="#676767"/>
</svg>
