<svg width="56" height="42" viewBox="0 0 56 42" fill="none" xmlns="http://www.w3.org/2000/svg">
<path d="M1.52344 29.337C1.52344 26.0233 4.20973 23.337 7.52344 23.337H14.0234C17.3371 23.337 20.0234 26.0233 20.0234 29.337V40.0544H1.52344V29.337Z" stroke="#676767" stroke-width="2"/>
<path d="M36.2812 29.337C36.2812 26.0233 38.9675 23.337 42.2812 23.337H48.7813C52.095 23.337 54.7813 26.0233 54.7813 29.337V40.0544H36.2812V29.337Z" stroke="#676767" stroke-width="2"/>
<circle cx="10.7707" cy="12.9782" r="5.68478" stroke="#676767" stroke-width="2"/>
<circle cx="45.5363" cy="12.9782" r="5.68478" stroke="#676767" stroke-width="2"/>
<circle cx="26.8144" cy="8.52177" r="6.57609" stroke="#DD3333" stroke-width="2"/>
<path d="M15.6758 25.7717C15.6758 21.9057 18.8098 18.7717 22.6758 18.7717H31.8497C35.7157 18.7717 38.8497 21.9057 38.8497 25.7717V41.0543H15.6758V25.7717Z" fill="#DD3333"/>
</svg>
