<svg width="49" height="48" viewBox="0 0 49 48" fill="none" xmlns="http://www.w3.org/2000/svg">
<rect width="48" height="48" transform="translate(0.78125)" fill="white"/>
<path d="M29.7812 5V9.90999C29.777 11.2586 29.2489 12.5508 28.3121 13.5044C27.3753 14.458 26.106 14.9957 24.7812 15C23.4565 14.9957 22.1872 14.458 21.2504 13.5044C20.3136 12.5508 19.7855 11.2586 19.7812 9.90999V5" stroke="#676767" stroke-width="2" stroke-miterlimit="10" stroke-linecap="round"/>
<path d="M8.78125 23.6605V20.0981C8.79423 15.8326 10.4841 11.7456 13.4819 8.72944C16.4797 5.71329 20.5418 4.01306 24.7813 4V4C29.0207 4.01306 33.0828 5.71329 36.0806 8.72944C39.0784 11.7456 40.7683 15.8326 40.7813 20.0981V24" stroke="#676767" stroke-width="2" stroke-miterlimit="10" stroke-linecap="round"/>
<path d="M42.7374 21H6.82513C5.69633 21 4.78125 21.8954 4.78125 23C4.78125 24.1046 5.69633 25 6.82513 25H42.7374C43.8662 25 44.7812 24.1046 44.7812 23C44.7812 21.8954 43.8662 21 42.7374 21Z" fill="#DD3333"/>
<path d="M41.7813 28L9.46599 28C9.377 27.9991 9.28869 28.0156 9.20612 28.0486C9.12355 28.0815 9.04832 28.1303 8.98474 28.1922C8.92115 28.254 8.87046 28.3277 8.83554 28.409C8.80063 28.4904 8.78218 28.5777 8.78125 28.6661V31.1986C8.78114 31.2865 8.79893 31.3735 8.83354 31.4544C8.86815 31.5353 8.91886 31.6084 8.98264 31.6694C9.10942 31.7926 9.27914 31.8626 9.45651 31.8647H12.5532C12.7837 32.5725 13.0771 33.2585 13.4299 33.9147L11.2382 36.033C11.1746 36.094 11.124 36.1671 11.0894 36.248C11.0549 36.3289 11.0371 36.4158 11.0371 36.5037C11.0371 36.5916 11.0549 36.6785 11.0894 36.7594C11.124 36.8403 11.1746 36.9134 11.2382 36.9744L16.0006 41.6064C16.13 41.7331 16.3045 41.8042 16.4863 41.8042C16.6681 41.8042 16.8426 41.7331 16.972 41.6064L19.1636 39.4763C19.8205 39.7974 20.5028 40.0642 21.2036 40.2742V43.3339C21.2041 43.4217 21.2221 43.5086 21.2567 43.5894C21.2913 43.6702 21.3417 43.7434 21.405 43.8047C21.5321 43.9275 21.7016 43.9974 21.8789 44H28.6291C28.8065 43.9979 28.9762 43.9279 29.103 43.8047C29.1663 43.7434 29.2168 43.6702 29.2513 43.5894C29.2859 43.5086 29.3039 43.4217 29.3044 43.3339V40.2742C30.0254 40.055 30.7261 39.7747 31.3989 39.4363L33.5905 41.5546C33.7203 41.6815 33.8952 41.7526 34.0774 41.7526C34.2596 41.7526 34.4344 41.6815 34.5643 41.5546L39.3172 36.9203C39.3802 36.8589 39.4303 36.7857 39.4645 36.7049C39.4987 36.624 39.5163 36.5372 39.5163 36.4496C39.5163 36.3619 39.4987 36.2751 39.4645 36.1943C39.4303 36.1134 39.3802 36.0402 39.3172 35.9788L37.1397 33.8606C37.4906 33.2026 37.7839 32.516 38.0164 31.8082H41.0965C41.2779 31.8086 41.4522 31.7385 41.5822 31.6129C41.6453 31.5515 41.6953 31.4782 41.7295 31.3974C41.7637 31.3166 41.7813 31.2298 41.7813 31.1421V28.6614" stroke="#676767" stroke-width="2" stroke-miterlimit="10" stroke-linecap="round"/>
<path d="M31.7813 28C31.7813 29.8565 31.0438 31.637 29.731 32.9497C28.4182 34.2625 26.6378 35 24.7812 35C22.9247 35 21.1443 34.2625 19.8315 32.9497C18.5187 31.637 17.7813 29.8565 17.7812 28" stroke="#676767" stroke-width="2" stroke-miterlimit="10" stroke-linecap="round"/>
</svg>
