<svg width="48" height="48" viewBox="0 0 48 48" fill="none" xmlns="http://www.w3.org/2000/svg">
<rect width="48" height="48" fill="white"/>
<path d="M25.8075 11C25.6116 11.0016 25.4291 11.0977 25.3191 11.2572L16.0659 24.6102C16.0196 24.6707 15.9964 24.745 16.0005 24.8206C16.0407 25.0167 16.2221 25.1539 16.4254 25.1418H21.852C22.2105 25.1415 22.5534 25.2857 22.8008 25.5408C23.0479 25.7961 23.1776 26.1399 23.1598 26.4918L22.604 37.3937C22.5914 37.6535 22.7567 37.8898 23.0079 37.971C23.2591 38.0522 23.5349 37.9586 23.6816 37.7421L32.9341 24.3877C32.9804 24.3272 33.0036 24.2529 32.9995 24.1773C32.9596 23.9809 32.7782 23.8437 32.5746 23.8561H27.148C26.7895 23.8564 26.4466 23.7122 26.1992 23.4571C25.9521 23.2018 25.8224 22.858 25.8402 22.5061L26.396 11.6042C26.4009 11.4469 26.3413 11.2943 26.2307 11.1808C26.1202 11.0673 25.9675 11.0019 25.8077 11L25.8075 11Z" fill="#DD3333"/>
<path d="M11.5641 38.3022C11.4454 38.4207 11.2847 38.4857 11.1185 38.482C10.9524 38.4785 10.7949 38.4068 10.6811 38.2829C9.79914 37.3403 9.01419 36.3078 8.33908 35.2018C7.70036 36.2375 7.97582 37.8099 9.06559 38.916H9.06533C10.4138 40.1899 12.1643 40.9291 14 41C13.7261 40.5524 13.5033 40.074 13.3361 39.5745C13.1626 38.9669 13.0926 38.3333 13.1296 37.7013C13.2622 36.648 12.9029 35.5925 12.1591 34.8503C11.7088 34.336 11.074 34.0295 10.3991 34C10.0057 34.0045 9.6207 34.1172 9.28449 34.3259C9.93684 35.4347 10.7077 36.4658 11.5828 37.4009C11.8205 37.6556 11.8121 38.0583 11.5642 38.3023L11.5641 38.3022Z" fill="#DD3333"/>
<path d="M24.5114 5C19.8488 4.99973 15.34 6.66842 11.8023 9.70384C8.26435 12.7395 5.93108 16.941 5.225 21.5472C4.51892 26.1537 5.48712 30.8604 7.95371 34.8154C8.04 34.6875 8.13799 34.5678 8.24632 34.4579C8.32036 34.3777 8.40065 34.3037 8.48694 34.2368C8.62711 34.1198 8.77709 34.0156 8.93551 33.9247C6.72829 30.2758 5.87442 25.9674 6.52308 21.7534C7.17198 17.5389 9.28231 13.6867 12.4849 10.869C15.6878 8.05206 19.7791 6.44973 24.0443 6.34228C28.3096 6.23455 32.4764 7.6285 35.8176 10.2806C39.1585 12.9324 41.4607 16.6738 42.3214 20.8502C43.1821 25.0266 42.5468 29.3723 40.5263 33.1281C38.5061 36.8836 35.2291 39.8102 31.2684 41.396C27.3078 42.9818 22.9158 43.1256 18.8603 41.803C18.6956 41.7497 18.5163 41.7638 18.3619 41.8424C18.2076 41.9211 18.0911 42.0576 18.0375 42.2222C17.9262 42.565 18.114 42.9333 18.4569 43.0446C22.0431 44.2097 25.8905 44.3115 29.5327 43.3373C33.1755 42.3632 36.4576 40.355 38.9822 37.5554C41.5067 34.7559 43.1655 31.2855 43.7578 27.5632C44.3501 23.8414 43.8506 20.0272 42.3198 16.5834C40.789 13.1396 38.2921 10.2122 35.1315 8.15669C31.9711 6.10113 28.2823 5.00483 24.5114 5.00051L24.5114 5Z" fill="#676767"/>
</svg>
