<svg width="48" height="48" viewBox="0 0 48 48" fill="none" xmlns="http://www.w3.org/2000/svg">
<path d="M41.8653 41H5.13467C4.50801 41 4 41.4477 4 42C4 42.5523 4.50801 43 5.13467 43H41.8653C42.492 43 43 42.5523 43 42C43 41.4477 42.492 41 41.8653 41Z" stroke="#676767" stroke-width="2" stroke-miterlimit="10" stroke-linecap="round"/>
<path d="M15 40H14.9906C14.9559 39.4573 14.7306 38.949 14.3602 38.5777C13.9899 38.2065 13.502 38 12.9953 38C12.4886 38 12.0007 38.2065 11.6304 38.5777C11.26 38.949 11.0347 39.4573 11 40" stroke="#676767" stroke-width="2" stroke-miterlimit="10" stroke-linecap="round"/>
<path d="M27 40H26.9836C26.949 39.4573 26.7241 38.949 26.3543 38.5777C25.9846 38.2065 25.4976 38 24.9918 38C24.486 38 23.999 38.2065 23.6293 38.5777C23.2595 38.949 23.0346 39.4573 23 40" stroke="#676767" stroke-width="2" stroke-miterlimit="10" stroke-linecap="round"/>
<path d="M39 40H38.9906C39.0094 39.744 38.9718 39.4871 38.8801 39.2453C38.7884 39.0035 38.6447 38.7819 38.4578 38.5944C38.2709 38.4068 38.0448 38.2573 37.7936 38.155C37.5425 38.0528 37.2715 38 36.9977 38C36.7238 38 36.4529 38.0528 36.2017 38.155C35.9505 38.2573 35.7244 38.4068 35.5375 38.5944C35.3506 38.7819 35.2069 39.0035 35.1152 39.2453C35.0236 39.4871 34.9859 39.744 35.0047 40" stroke="#676767" stroke-width="2" stroke-miterlimit="10" stroke-linecap="round"/>
<path d="M37 29V38" stroke="#676767" stroke-width="2" stroke-miterlimit="10" stroke-linecap="round"/>
<path d="M25 29V38" stroke="#676767" stroke-width="2" stroke-miterlimit="10" stroke-linecap="round"/>
<path d="M13 29V38" stroke="#676767" stroke-width="2" stroke-miterlimit="10" stroke-linecap="round"/>
<path fill-rule="evenodd" clip-rule="evenodd" d="M42.075 24.6335L32.0616 34.6469C31.8348 34.873 31.5276 35 31.2073 35C30.8871 35 30.5799 34.873 30.3531 34.6469C30.127 34.4201 30 34.1129 30 33.7927C30 33.4724 30.127 33.1652 30.3531 32.9384L42.9384 20.3531C43.1652 20.127 43.4724 20 43.7927 20C44.1129 20 44.4201 20.127 44.6469 20.3531C44.873 20.5799 45 20.8871 45 21.2073C45 21.5276 44.873 21.8348 44.6469 22.0616L43.804 22.9046" fill="#DD3333"/>
<path d="M17.4747 33.7005C16.9837 34.1894 16.9024 34.9024 17.2929 35.2929C17.6834 35.6834 18.398 35.6036 18.8889 35.1147L31.9902 22.066C32.4811 21.577 32.5625 20.8641 32.172 20.4736C31.7815 20.083 31.0669 20.1628 30.576 20.6518L17.4747 33.7005Z" fill="#DD3333"/>
<path fill-rule="evenodd" clip-rule="evenodd" d="M7.40762 29.8838L16.9384 20.3531C17.1652 20.127 17.4724 20 17.7927 20C18.1129 20 18.4201 20.127 18.6469 20.3531C18.873 20.5799 19 20.8871 19 21.2073C19 21.5276 18.873 21.8348 18.6469 22.0616L6.06162 34.6469C5.83481 34.873 5.52761 35 5.20734 35C4.88708 35 4.57988 34.873 4.35307 34.6469C4.12696 34.4201 4 34.1129 4 33.7927C4 33.4724 4.12696 33.1652 4.35307 32.9384L5.88714 31.4043" fill="#DD3333"/>
<path d="M16 17L17 18" stroke="#676767" stroke-width="2" stroke-miterlimit="10" stroke-linecap="round"/>
<path d="M18 12H20" stroke="#676767" stroke-width="2" stroke-miterlimit="10" stroke-linecap="round"/>
<path d="M16 7L17 6" stroke="#676767" stroke-width="2" stroke-miterlimit="10" stroke-linecap="round"/>
<path d="M11 6V4" stroke="#676767" stroke-width="2" stroke-miterlimit="10" stroke-linecap="round"/>
<path d="M7 8L6 7" stroke="#676767" stroke-width="2" stroke-miterlimit="10" stroke-linecap="round"/>
<path d="M5 12H3" stroke="#676767" stroke-width="2" stroke-miterlimit="10" stroke-linecap="round"/>
<path d="M6 17L5 18" stroke="#676767" stroke-width="2" stroke-miterlimit="10" stroke-linecap="round"/>
<path d="M11 19V21" stroke="#676767" stroke-width="2" stroke-miterlimit="10" stroke-linecap="round"/>
<path d="M11.5024 9C12.3284 9.00058 13.1276 9.29327 13.7586 9.82628C14.3896 10.3593 14.8117 11.0983 14.9503 11.9126C15.089 12.7268 14.9352 13.5639 14.5161 14.2757C14.0971 14.9875 13.4398 15.5281 12.6605 15.802C11.8813 16.0759 11.0303 16.0653 10.258 15.7722C9.48581 15.4791 8.84212 14.9224 8.44083 14.2004C8.03954 13.4785 7.90651 12.6379 8.06527 11.8273C8.22403 11.0167 8.66435 10.2884 9.30835 9.77114" stroke="#676767" stroke-width="2" stroke-miterlimit="10" stroke-linecap="round"/>
</svg>
