<svg width="49" height="48" viewBox="0 0 49 48" fill="none" xmlns="http://www.w3.org/2000/svg">
<rect width="48" height="48" transform="translate(0.78125)" fill="white"/>
<g clip-path="url(#clip0_3370_10163)">
<path d="M18.5811 18.9492H11.7367C10.9001 18.9489 10.0979 18.6239 9.50652 18.0457C8.91784 17.4658 8.58583 16.6831 8.58203 15.8663V15.5255C8.58614 15.3649 8.65325 15.212 8.76948 15.0985C8.8857 14.9849 9.04215 14.9193 9.20647 14.9153H20.1949L18.5811 18.9492Z" fill="#DD3333"/>
<path d="M34.0017 18.9492H40.8428C41.6799 18.9489 42.4827 18.6239 43.0745 18.0457C43.6585 17.4625 43.9899 16.682 43.9996 15.8663V15.5255C43.9955 15.3649 43.9284 15.212 43.812 15.0985C43.6957 14.9849 43.5392 14.9193 43.3747 14.9153H32.3867L34.0017 18.9492Z" fill="#DD3333"/>
<path d="M23.273 24.1194H29.3079C30.7407 24.1151 32.1134 23.552 33.1257 22.5534C34.1381 21.5547 34.7076 20.2018 34.7098 18.7906V18.5152C34.7076 17.104 34.1381 15.751 33.1257 14.7524C32.1134 13.7537 30.7407 13.1907 29.3079 13.1864H23.273C22.5629 13.1864 21.8598 13.3243 21.2039 13.5922C20.5479 13.8601 19.9521 14.2527 19.4504 14.7477C18.9486 15.2426 18.5509 15.8301 18.2799 16.4766C18.0089 17.123 17.87 17.8158 17.8711 18.5152V18.8068C17.87 19.5062 18.0089 20.1989 18.2799 20.8454C18.5509 21.4919 18.9486 22.0794 19.4504 22.5743C19.9521 23.0692 20.5479 23.4619 21.2039 23.7298C21.8598 23.9977 22.5629 24.1356 23.273 24.1356V24.1194ZM29.3079 14.4012C29.8521 14.4002 30.391 14.5057 30.8935 14.7114C31.3959 14.9172 31.8519 15.2191 32.235 15.5998C33.0161 16.361 33.4518 18.7663 33.4518 18.7663C33.4411 19.8369 33.0046 20.8607 32.2359 21.6178C31.4673 22.375 30.4278 22.8049 29.3408 22.8155H23.273C22.1788 22.8155 21.1289 22.3902 20.3514 21.632C19.5739 20.8738 19.1317 19.8439 19.1209 18.7663V18.4828C19.1317 17.4052 19.5739 16.3753 20.3514 15.6171C21.1289 14.8588 22.1788 14.4335 23.273 14.4336L29.3079 14.4012Z" fill="#676767"/>
<path d="M27.7414 28.1694C27.665 28.1705 27.5891 28.156 27.5183 28.1268C27.4474 28.0976 27.3831 28.0543 27.329 27.9994C27.275 27.9446 27.2323 27.8793 27.2035 27.8075C27.1747 27.7356 27.1604 27.6587 27.1614 27.5811V23.6024C27.1561 23.5223 27.1673 23.4419 27.1942 23.3665C27.221 23.291 27.2631 23.2219 27.3176 23.1637C27.3721 23.1055 27.4379 23.0594 27.5108 23.0284C27.5838 22.9973 27.6623 22.9819 27.7414 22.9831C27.8952 22.9845 28.0426 23.0454 28.1535 23.1534C28.2614 23.265 28.3217 23.4151 28.3214 23.5714V27.5502C28.3217 27.7064 28.2614 27.8565 28.1535 27.9682C28.0476 28.0876 27.8995 28.1598 27.7414 28.1694Z" fill="#676767"/>
<path d="M23.6821 28.1695C23.6062 28.17 23.5308 28.1551 23.4605 28.1257C23.3902 28.0963 23.3262 28.053 23.2722 27.9981C23.2167 27.944 23.1726 27.8787 23.1426 27.8064C23.1126 27.7341 23.0973 27.6562 23.0977 27.5776V23.5749C23.0973 23.4963 23.1126 23.4184 23.1426 23.3461C23.1726 23.2738 23.2167 23.2085 23.2722 23.1544C23.3262 23.0995 23.3902 23.0562 23.4605 23.0268C23.5308 22.9974 23.6062 22.9825 23.6821 22.983C23.835 22.9844 23.9816 23.0457 24.092 23.1544C24.1992 23.2667 24.2592 23.4177 24.2589 23.5749V27.5776C24.2592 27.7348 24.1992 27.8858 24.092 27.9981C23.9816 28.1068 23.835 28.1681 23.6821 28.1695Z" fill="#676767"/>
<path d="M21.3872 14.8665C21.3064 14.8676 21.2262 14.8527 21.1513 14.8227C21.0765 14.7927 21.0084 14.7482 20.9513 14.6919C20.8941 14.6356 20.849 14.5685 20.8186 14.4947C20.7882 14.4209 20.773 14.3418 20.7741 14.2622C20.7741 14.119 20.7257 14.5166 21.4356 10.2224C21.5142 9.76043 21.757 9.34107 22.1207 9.03946C22.4843 8.73784 22.945 8.57367 23.4202 8.57633H27.9943C28.4684 8.57335 28.9281 8.7364 29.2916 9.03642C29.655 9.33644 29.8986 9.75394 29.9789 10.2145L30.6323 14.1906C30.6484 14.2693 30.6484 14.3504 30.6323 14.4291C30.6154 14.509 30.5825 14.5847 30.5355 14.6518C30.4887 14.719 30.4283 14.7759 30.358 14.8188C30.2886 14.8608 30.2121 14.8904 30.1322 14.9063C30.052 14.9183 29.9704 14.9183 29.8902 14.9063C29.8094 14.8849 29.733 14.8499 29.6643 14.8029C29.6 14.7518 29.5454 14.6899 29.5029 14.62C29.4606 14.5492 29.4332 14.4708 29.4223 14.3894L28.7688 10.4133C28.7345 10.2369 28.6407 10.0771 28.5026 9.96002C28.3607 9.84777 28.1844 9.78611 28.0024 9.78507H23.4202C23.2315 9.78132 23.0474 9.84292 22.9 9.95916C22.7526 10.0754 22.6512 10.2389 22.6135 10.4212L21.96 14.3496C21.9365 14.4945 21.8623 14.6268 21.7503 14.7234C21.6487 14.8094 21.521 14.8597 21.3872 14.8665Z" fill="#676767"/>
<path d="M14.856 16.6357C14.7718 16.6352 14.6885 16.6179 14.611 16.5849C14.5335 16.5519 14.4633 16.5037 14.4045 16.4433C14.2869 16.3258 14.2207 16.1663 14.2206 16V13.8083C14.2187 13.5226 14.1046 13.2492 13.9029 13.0471C13.8042 12.9481 13.6869 12.8698 13.5577 12.8167C13.4285 12.7635 13.29 12.7366 13.1503 12.7375H12.6737C12.5325 12.7364 12.3924 12.7633 12.2616 12.8166C12.1308 12.8699 12.0118 12.9486 11.9116 13.0482C11.8113 13.1477 11.7317 13.2661 11.6774 13.3966C11.6231 13.527 11.5951 13.667 11.5951 13.8083V16C11.595 16.1663 11.5288 16.3258 11.4112 16.4433C11.3527 16.504 11.2826 16.5523 11.205 16.5853C11.1274 16.6183 11.044 16.6353 10.9597 16.6353C10.8754 16.6353 10.792 16.6183 10.7144 16.5853C10.6368 16.5523 10.5667 16.504 10.5082 16.4433C10.3905 16.3258 10.3244 16.1663 10.3242 16V13.8083C10.3231 13.4993 10.3832 13.1931 10.5008 12.9074C10.6185 12.6217 10.7915 12.3622 11.0099 12.1437C11.2283 11.9252 11.4878 11.7521 11.7733 11.6343C12.0589 11.5166 12.3649 11.4566 12.6737 11.4577H13.1838C13.4939 11.4564 13.8013 11.5163 14.0882 11.634C14.3752 11.7517 14.6361 11.9249 14.856 12.1436C15.2984 12.5882 15.5477 13.1893 15.55 13.8166V16.0083C15.5437 16.1764 15.4736 16.3357 15.354 16.4538C15.2343 16.5719 15.0742 16.6399 14.9062 16.6441L14.856 16.6357Z" fill="#676767"/>
<path d="M12.647 12.6099C12.4923 12.6077 12.3447 12.541 12.236 12.424C12.1273 12.307 12.0664 12.1493 12.0664 11.985V8.61686C12.0662 8.45302 12.1265 8.29564 12.2345 8.17861C12.3455 8.06538 12.4931 8.00151 12.647 8.00005C12.7236 7.99896 12.7995 8.01417 12.8704 8.04479C12.9413 8.0754 13.0058 8.12079 13.0599 8.17828C13.114 8.23578 13.1567 8.30421 13.1855 8.37954C13.2144 8.45487 13.2287 8.53556 13.2276 8.61686V12.0012C13.2282 12.0824 13.2136 12.1629 13.1847 12.2381C13.1559 12.3133 13.1134 12.3817 13.0596 12.4394C13.0051 12.4959 12.9405 12.5401 12.8697 12.5693C12.7988 12.5986 12.7231 12.6124 12.647 12.6099Z" fill="#676767"/>
<path d="M17.2595 9.15249H8.61145C8.44904 9.15271 8.29304 9.09281 8.17704 8.98569C8.06481 8.87548 8.0015 8.72902 8.00005 8.57627C7.99897 8.50032 8.01405 8.42493 8.04439 8.35456C8.07474 8.28419 8.11973 8.22026 8.17672 8.16655C8.23371 8.11284 8.30154 8.07043 8.3762 8.04183C8.45087 8.01324 8.53086 7.99903 8.61145 8.00005H17.2595C17.4216 8.00141 17.577 8.06108 17.6939 8.16685C17.8076 8.27618 17.8711 8.42321 17.8709 8.57627C17.872 8.65223 17.8569 8.72761 17.8266 8.79798C17.7962 8.86835 17.7512 8.93228 17.6942 8.986C17.6373 9.03971 17.5694 9.08211 17.4948 9.11071C17.4201 9.13931 17.3401 9.15351 17.2595 9.15249Z" fill="#676767"/>
<path d="M41.0373 16.6441C40.8677 16.6399 40.706 16.5718 40.5852 16.4535C40.4644 16.3351 40.3936 16.1756 40.3872 16.0073V13.8121C40.3895 13.6706 40.3631 13.5301 40.3096 13.399C40.2561 13.2679 40.1766 13.1487 40.0758 13.0487C39.975 12.9486 39.855 12.8697 39.7228 12.8166C39.5907 12.7635 39.4492 12.7373 39.3066 12.7396H38.8254C38.6829 12.7373 38.5413 12.7635 38.4092 12.8166C38.2771 12.8697 38.157 12.9486 38.0562 13.0487C37.9554 13.1487 37.8759 13.2679 37.8224 13.399C37.7689 13.5301 37.7425 13.6706 37.7448 13.8121V16.0073C37.7267 16.1647 37.6508 16.3099 37.5317 16.4153C37.4126 16.5208 37.2586 16.5791 37.099 16.5791C36.9394 16.5791 36.7853 16.5208 36.6662 16.4153C36.5471 16.3099 36.4713 16.1647 36.4531 16.0073V13.8121C36.452 13.5026 36.5126 13.1959 36.6314 12.9098C36.7503 12.6236 36.925 12.3636 37.1455 12.1448C37.366 11.9259 37.6279 11.7525 37.9163 11.6346C38.2046 11.5167 38.5136 11.4565 38.8254 11.4577H39.3066C39.6185 11.4565 39.9275 11.5167 40.2158 11.6346C40.5041 11.7525 40.7661 11.9259 40.9866 12.1448C41.2071 12.3636 41.3818 12.6236 41.5006 12.9098C41.6194 13.1959 41.68 13.5026 41.6789 13.8121V16.0073C41.6788 16.1739 41.612 16.3336 41.4932 16.4514C41.4339 16.5119 41.363 16.5601 41.2848 16.5932C41.2065 16.6262 41.1224 16.6436 41.0373 16.6441Z" fill="#676767"/>
<path d="M38.7797 12.594C38.626 12.5899 38.4795 12.523 38.3707 12.4071C38.262 12.2911 38.1992 12.1351 38.1953 11.9712V8.61483C38.1949 8.5332 38.2102 8.45234 38.2402 8.37724C38.2702 8.30213 38.3144 8.23436 38.3699 8.1781C38.4779 8.06401 38.6239 8 38.776 8C38.9281 8 39.074 8.06401 39.182 8.1781C39.2375 8.23436 39.2817 8.30213 39.3117 8.37724C39.3417 8.45234 39.357 8.5332 39.3566 8.61483V11.9874C39.3528 12.1499 39.2911 12.3048 39.1839 12.4205C39.0767 12.5362 38.9322 12.604 38.7797 12.6102V12.594Z" fill="#676767"/>
<path d="M43.3884 9.15254H34.7404C34.578 9.15276 34.4219 9.09286 34.3059 8.98573C34.1937 8.87552 34.1304 8.72906 34.129 8.5763C34.1279 8.50034 34.143 8.42495 34.1733 8.35458C34.2036 8.2842 34.2486 8.22027 34.3056 8.16656C34.3626 8.11285 34.4304 8.07043 34.5051 8.04183C34.5798 8.01324 34.6598 7.99903 34.7404 8.00005H43.3884C43.469 7.99903 43.549 8.01324 43.6237 8.04183C43.6983 8.07043 43.7662 8.11285 43.8232 8.16656C43.8801 8.22027 43.9251 8.2842 43.9555 8.35458C43.9858 8.42495 44.0009 8.50034 43.9998 8.5763C43.9984 8.72906 43.9351 8.87552 43.8228 8.98573C43.7068 9.09286 43.5508 9.15276 43.3884 9.15254Z" fill="#676767"/>
<path d="M28.299 20.6779H23.1128C22.9547 20.6766 22.8031 20.6169 22.6891 20.5111C22.5779 20.4019 22.5156 20.2549 22.5156 20.1017C22.5156 19.9485 22.5779 19.8014 22.6891 19.6922C22.8031 19.5864 22.9547 19.5268 23.1128 19.5254H28.299C28.3775 19.5249 28.4553 19.5394 28.528 19.568C28.6007 19.5966 28.6669 19.6388 28.7226 19.6922C28.7796 19.7453 28.8249 19.8089 28.8558 19.8792C28.8868 19.9496 28.9027 20.0252 28.9027 20.1017C28.9027 20.1781 28.8868 20.2538 28.8558 20.3241C28.8249 20.3945 28.7796 20.4581 28.7226 20.5111C28.6669 20.5645 28.6007 20.6067 28.528 20.6353C28.4553 20.664 28.3775 20.6784 28.299 20.6779Z" fill="#676767"/>
<path d="M28.299 18.3729H23.1128C22.9547 18.3715 22.8031 18.3118 22.6891 18.2061C22.5779 18.0968 22.5156 17.9498 22.5156 17.7966C22.5156 17.6434 22.5779 17.4964 22.6891 17.3872C22.8031 17.2814 22.9547 17.2217 23.1128 17.2204H28.299C28.3775 17.2198 28.4553 17.2343 28.528 17.2629C28.6007 17.2916 28.6669 17.3338 28.7226 17.3872C28.7796 17.4402 28.8249 17.5038 28.8558 17.5742C28.8868 17.6445 28.9027 17.7202 28.9027 17.7966C28.9027 17.873 28.8868 17.9487 28.8558 18.0191C28.8249 18.0894 28.7796 18.153 28.7226 18.2061C28.6669 18.2594 28.6007 18.3017 28.528 18.3303C28.4553 18.3589 28.3775 18.3734 28.299 18.3729Z" fill="#676767"/>
<path d="M31.1787 31.6185H20.8249C20.7419 31.6196 20.6595 31.6037 20.5827 31.5716C20.5058 31.5395 20.4359 31.4919 20.3773 31.4317C20.3186 31.3714 20.2722 31.2997 20.241 31.2208C20.2098 31.1418 20.1943 31.0573 20.1954 30.9721V28.5225C20.1975 28.1239 20.3527 27.7422 20.6272 27.4604C20.9017 27.1785 21.2733 27.0192 21.6615 27.017H30.3421C30.7303 27.0192 31.1019 27.1785 31.3764 27.4604C31.6509 27.7422 31.806 28.1239 31.8082 28.5225V31.0146C31.8085 31.0994 31.7915 31.1834 31.7585 31.2612C31.7299 31.3412 31.6848 31.4138 31.6261 31.474C31.5675 31.5342 31.4968 31.5806 31.4189 31.61C31.3402 31.6295 31.2585 31.6324 31.1787 31.6185ZM21.4544 30.3256H30.5658V28.5225C30.5603 28.468 30.5368 28.4171 30.499 28.3783C30.4613 28.3396 30.4117 28.3154 30.3587 28.3098H21.6615C21.6345 28.3091 21.6077 28.315 21.5832 28.3268C21.5588 28.3386 21.5374 28.3561 21.5207 28.3779C21.5003 28.3958 21.4839 28.418 21.4725 28.4429C21.4611 28.4678 21.4549 28.4949 21.4544 28.5225V30.3256Z" fill="#676767"/>
<path d="M25.7138 33.356C25.5391 33.3547 25.3683 33.4057 25.225 33.502C25.0808 33.5986 24.9695 33.7341 24.9048 33.8913C24.8415 34.0516 24.824 34.2253 24.8543 34.3943C24.8892 34.5602 24.9742 34.7126 25.0986 34.8323C25.2165 34.9517 25.3693 35.0338 25.5368 35.0675C25.7065 35.1018 25.8831 35.0848 26.0424 35.0189C26.2023 34.9543 26.3377 34.8438 26.43 34.7025C26.5317 34.5623 26.5847 34.3948 26.5817 34.2239C26.5827 33.9948 26.4922 33.7741 26.3289 33.6074C26.2496 33.5274 26.1541 33.4637 26.0483 33.4205C25.9425 33.3772 25.8287 33.3553 25.7138 33.356Z" fill="#676767"/>
<path d="M30.4969 30.0794C30.4403 30.0214 30.3717 29.9754 30.2957 29.9443C30.2196 29.9131 30.1376 29.8975 30.055 29.8984H21.9775C21.895 29.8988 21.8135 29.9151 21.7376 29.9462C21.6617 29.9772 21.593 30.0225 21.5355 30.0794C21.4196 30.199 21.3553 30.3565 21.3555 30.5201V33.9277C21.352 35.1505 21.8419 36.3269 22.7222 37.2094C23.1472 37.6311 23.6559 37.9664 24.2183 38.1954C24.7806 38.4244 25.3851 38.5424 25.9957 38.5424C26.6064 38.5424 27.2109 38.4244 27.7732 38.1954C28.3356 37.9664 28.8443 37.6311 29.2693 37.2094C30.1475 36.325 30.6396 35.1505 30.6442 33.9277V30.5201C30.6559 30.3604 30.6031 30.2025 30.4969 30.0794ZM27.4934 35.7063C27.302 35.8963 27.0732 36.0478 26.8203 36.1518C26.5673 36.2559 26.2954 36.3104 26.0203 36.3122C25.6052 36.3138 25.1996 36.1929 24.8582 35.966C24.5116 35.7313 24.2419 35.4064 24.0807 35.0295C23.9243 34.6467 23.8846 34.2291 23.9661 33.8254C24.046 33.4253 24.245 33.0562 24.539 32.763C24.8296 32.474 25.2026 32.2741 25.6111 32.1885C26.0152 32.1088 26.435 32.15 26.8141 32.3065C27.2042 32.47 27.5327 32.7447 27.7553 33.0935C28.0235 33.4967 28.1435 33.9747 28.096 34.4512C28.0486 34.9277 27.8364 35.3751 27.4934 35.722V35.7063Z" fill="#DD3333"/>
<path d="M11.5714 40.3395C10.2848 35.9089 10.861 31.0887 13.2369 26.3956C14.2767 24.3007 15.6055 22.3645 17.1836 20.6447C18.5254 19.2686 19.2279 20.8992 18.3755 21.2572C18.2472 21.3123 18.1316 21.3935 18.0361 21.4958C16.5393 23.1279 15.2748 24.9616 14.2789 26.9445C12.045 31.3591 11.4925 35.8771 12.7002 39.9974C12.7329 40.1339 12.7949 40.2615 12.8817 40.3713C12.9694 40.4825 13.0764 40.5769 13.1975 40.6497C13.4397 40.7791 13.721 40.8131 13.9868 40.7451C14.1218 40.703 14.2477 40.6355 14.3578 40.5463C14.4675 40.4583 14.5565 40.347 14.6183 40.2202C14.6894 40.0993 14.7301 39.9628 14.7367 39.8225C14.7514 39.6807 14.738 39.5374 14.6972 39.4009C13.6395 35.7817 14.121 31.9477 16.0943 27.9944C17.0454 26.1111 18.2456 24.3665 19.6621 22.8082C19.7015 22.7394 19.755 22.6797 19.8189 22.6331C19.8829 22.5865 19.9558 22.554 20.0331 22.5378C20.1891 22.5015 20.3531 22.5272 20.4909 22.6094C20.6252 22.6977 20.7212 22.8342 20.7593 22.9912C20.7933 23.1469 20.7649 23.3099 20.6803 23.4446C19.3053 24.9917 18.1255 26.7043 17.1678 28.5433C15.3365 32.2102 14.8866 35.7499 15.8496 39.0668C15.9377 39.3549 15.9672 39.6579 15.9364 39.9577C15.9053 40.2557 15.8168 40.5448 15.676 40.8088C15.387 41.3395 14.902 41.7339 14.3262 41.9065C14.0398 41.9925 13.7391 42.0196 13.4422 41.986C13.1449 41.9529 12.8572 41.8606 12.5957 41.7145C12.3342 41.5684 12.1041 41.3714 11.9187 41.1349C11.7379 40.8976 11.6039 40.6276 11.5241 40.3395H11.5714Z" fill="#676767"/>
<path d="M37.4677 41.9076C36.8605 41.7374 36.3485 41.3441 36.0438 40.8139C35.7392 40.2837 35.6667 39.6597 35.8422 39.0785C36.8592 35.7552 36.3924 32.2089 34.45 28.535C33.4501 26.6902 32.2061 24.976 30.7487 23.4347C30.6991 23.3688 30.6676 23.292 30.657 23.2115C30.6404 23.1326 30.6404 23.0513 30.657 22.9724C30.6766 22.8956 30.7105 22.8227 30.757 22.7573C30.8052 22.6898 30.8677 22.6328 30.9404 22.5899C31.0132 22.5496 31.0919 22.52 31.1739 22.5022C31.2581 22.4887 31.3444 22.4916 31.4275 22.5108C31.5106 22.5299 31.5888 22.565 31.6574 22.6138C31.7254 22.6602 31.7823 22.72 31.8241 22.7891C31.8619 22.8516 31.9097 22.9081 31.9658 22.9565C33.4028 24.4696 34.6197 26.161 35.5837 27.9851C37.6761 31.9698 38.1763 35.7871 37.0676 39.4211C37.0181 39.5538 37.001 39.6956 37.0176 39.8355C37.0257 39.9774 37.0655 40.116 37.1343 40.242C37.2072 40.3687 37.3032 40.4821 37.4177 40.5767C37.5344 40.6636 37.6674 40.7285 37.8095 40.768C37.9481 40.8058 38.0933 40.8169 38.2364 40.8004C38.3796 40.784 38.5178 40.7405 38.6431 40.6723C38.7701 40.6012 38.8806 40.5063 38.9683 40.3934C39.0611 40.28 39.1291 40.1499 39.1683 40.0109C40.4271 35.8748 39.8519 31.3562 37.5011 26.9332C36.4546 24.9523 35.1247 23.1204 33.5497 21.4901C33.446 21.3927 33.3245 21.3144 33.1912 21.259C33.0466 21.1857 32.9362 21.0629 32.8821 20.9152C32.828 20.7674 32.8342 20.6056 32.8995 20.4621C32.9642 20.3219 33.0796 20.2088 33.2246 20.1433C33.3719 20.0878 33.5357 20.0878 33.6831 20.1433C33.9728 20.2615 34.2361 20.4319 34.4583 20.6454C36.116 22.3754 37.5183 24.3139 38.6265 26.4072C41.1274 31.1171 41.7526 35.9704 40.3938 40.3854C40.2099 40.9608 39.8008 41.4461 39.2517 41.7402C38.702 42.0141 38.0627 42.074 37.4677 41.9076Z" fill="#676767"/>
</g>
<defs>
<clipPath id="clip0_3370_10163">
<rect width="36" height="34" fill="white" transform="translate(8 8)"/>
</clipPath>
</defs>
</svg>
