<svg width="49" height="48" viewBox="0 0 49 48" fill="none" xmlns="http://www.w3.org/2000/svg">
<g clip-path="url(#clip0_3370_10150)">
<rect width="48" height="48" transform="translate(0.78125)" fill="white"/>
<g clip-path="url(#clip1_3370_10150)">
<path d="M39.7812 41H37.7812V43H39.7812V41Z" fill="#676767"/>
<path d="M33.7869 6H18.8455C18.5632 6 18.2925 6.10508 18.093 6.29212C17.8934 6.47916 17.7812 6.73285 17.7812 6.99737V11.9974C17.7812 12.2619 17.8934 12.5156 18.093 12.7026C18.2925 12.8897 18.5632 12.9947 18.8455 12.9947H23.0465V15.0026C23.0447 15.1882 23.099 15.3705 23.2031 15.5283C23.3072 15.6862 23.4568 15.8133 23.6346 15.895C23.7837 15.9609 23.9459 15.9966 24.1107 16C24.3424 16.0009 24.5683 15.9319 24.7548 15.8031L28.7458 12.9947H33.7169C33.9991 12.9947 34.2698 12.8897 34.4694 12.7026C34.669 12.5156 34.7811 12.2619 34.7811 11.9974V7.01049C34.7853 6.7547 34.6845 6.50718 34.4994 6.31911C34.3144 6.13104 34.0593 6.0168 33.7869 6ZM32.7227 10.9475H28.4237C28.1923 10.9484 27.967 11.0172 27.7795 11.1444L25.2309 12.9422V11.9449C25.228 11.6901 25.1225 11.4458 24.9355 11.2609C24.7486 11.076 24.494 10.964 24.2227 10.9475H20.0218V7.94225H32.8347L32.7227 10.9475Z" fill="#676767"/>
<path d="M66.2768 27.8252C67.3596 26.8105 68.1101 25.4978 68.4312 24.0568C68.7522 22.6158 68.6292 21.1126 68.0779 19.7414C67.5266 18.3703 66.5724 17.1943 65.3386 16.3653C64.1048 15.5363 62.6482 15.0924 61.1568 15.091C59.5441 15.0817 57.972 15.591 56.6771 16.5422C55.3823 17.4934 54.4347 18.835 53.9771 20.3651C53.5195 21.8952 53.5766 23.5309 54.1398 25.0262C54.703 26.5214 55.7418 27.7951 57.0999 28.6556C56.3893 29.1343 55.8059 29.7756 55.3992 30.525C54.9925 31.2744 54.7745 32.1098 54.7638 32.9603V40.3516H44.0901C43.8081 40.3516 43.5377 40.4625 43.3383 40.6598C43.1389 40.857 43.0269 41.1246 43.0269 41.4036V45.6252H34.4936V41.4036C34.4936 41.2655 34.4661 41.1287 34.4127 41.001C34.3592 40.8734 34.2809 40.7574 34.1822 40.6598C34.0835 40.5621 33.9663 40.4846 33.8373 40.4317C33.7083 40.3789 33.5701 40.3516 33.4304 40.3516H22.7708V32.9603C22.7691 32.1004 22.5554 31.2539 22.1483 30.4941C21.7412 29.7343 21.153 29.0843 20.4346 28.6003C21.7403 27.7659 22.7504 26.5493 23.3242 25.1199C23.8981 23.6906 24.007 22.1198 23.6358 20.6263C23.2646 19.1329 22.4319 17.7912 21.2535 16.7882C20.0752 15.7851 18.61 15.1708 17.0622 15.0307C15.5143 14.8906 13.9607 15.2318 12.6181 16.0067C11.2754 16.7815 10.2105 17.9515 9.57165 19.3535C8.93282 20.7556 8.75192 22.3199 9.05416 23.8285C9.35639 25.3371 10.1267 26.7149 11.2578 27.7698C10.011 27.9699 8.8766 28.6015 8.05674 29.5522C7.23688 30.5028 6.78486 31.7106 6.78126 32.9603V48.7949C6.77899 50.0005 7.19426 51.1704 7.95789 52.1099C8.72152 53.0493 9.7874 53.7015 10.978 53.9578V69.8893H13.1043V54.1239H22.7008V68.9481C22.7008 69.2271 22.8128 69.4946 23.0122 69.6919C23.2116 69.8892 23.482 70 23.764 70H30.171C30.453 70 30.7234 69.8892 30.9228 69.6919C31.1221 69.4946 31.2342 69.2271 31.2342 68.9481V52.0615H37.6272V67.8407H33.4304V69.9446H44.0901V67.8407H39.8934V52.0061H46.2584V68.9481C46.2584 69.2271 46.3704 69.4946 46.5698 69.6919C46.7692 69.8892 47.0396 70 47.3216 70H53.7146C53.9979 70 54.2697 69.8897 54.4713 69.6928C54.673 69.4959 54.7881 69.2283 54.7917 68.9481V54.1239H64.3882V69.9446H66.5146V54.0132C67.7181 53.7708 68.8 53.1245 69.5775 52.1838C70.3549 51.2431 70.7801 50.0655 70.7812 48.8503V32.9603C70.7634 31.7161 70.3015 30.5183 69.4771 29.5785C68.6528 28.6388 67.5192 28.0177 66.2768 27.8252ZM55.8269 22.4685C55.8269 21.4255 56.1395 20.4059 56.7252 19.5387C57.3108 18.6714 58.1432 17.9955 59.1171 17.5964C60.091 17.1972 61.1627 17.0928 62.1966 17.2963C63.2305 17.4997 64.1801 18.002 64.9255 18.7395C65.6709 19.4771 66.1785 20.4167 66.3842 21.4397C66.5899 22.4627 66.4843 23.523 66.0809 24.4866C65.6775 25.4503 64.9944 26.2739 64.1179 26.8533C63.2414 27.4328 62.2109 27.7421 61.1568 27.7421C59.7443 27.7385 58.3908 27.1817 57.3921 26.1935C56.3933 25.2053 55.8306 23.866 55.8269 22.4685ZM11.0619 22.4685C11.0619 21.4255 11.3745 20.4059 11.9602 19.5387C12.5458 18.6714 13.3782 17.9955 14.3521 17.5964C15.326 17.1972 16.3977 17.0928 17.4316 17.2963C18.4654 17.4997 19.4151 18.002 20.1605 18.7395C20.9059 19.4771 21.4135 20.4167 21.6192 21.4397C21.8248 22.4627 21.7193 23.523 21.3159 24.4866C20.9125 25.4503 20.2293 26.2739 19.3528 26.8533C18.4764 27.4328 17.4459 27.7421 16.3918 27.7421C14.9769 27.7421 13.6198 27.1869 12.618 26.1983C11.6163 25.2098 11.0516 23.8684 11.0479 22.4685H11.0619ZM29.2477 67.8407H25.051V53.0581C25.0473 52.7778 24.9322 52.5103 24.7306 52.3134C24.529 52.1165 24.2571 52.0061 23.9738 52.0061H12.1111C11.2639 52.0061 10.4512 51.6741 9.85081 51.0827C9.25044 50.4912 8.9113 49.6885 8.9076 48.8503V32.9603C8.9113 32.1221 9.25044 31.3194 9.85081 30.728C10.4512 30.1365 11.2639 29.8045 12.1111 29.8045H17.4409C18.2881 29.8045 19.1008 30.1365 19.7012 30.728C20.3016 31.3194 20.6407 32.1221 20.6444 32.9603V41.4036C20.6444 41.5418 20.6719 41.6785 20.7254 41.8062C20.7788 41.9338 20.8571 42.0498 20.9558 42.1474C21.0545 42.2451 21.1717 42.3226 21.3007 42.3755C21.4297 42.4283 21.568 42.4556 21.7076 42.4556H32.3673V45.6252H17.4409V36.13H15.3146V46.8018C15.3146 47.0808 15.4266 47.3483 15.626 47.5456C15.8254 47.7429 16.0958 47.8537 16.3778 47.8537H25.9743C26.8095 47.8571 27.6103 48.1832 28.2061 48.7623C28.8019 49.3415 29.1455 50.128 29.1638 50.9542L29.2477 67.8407ZM46.4263 49.8469H31.1782C31.0283 49.0785 30.703 48.3541 30.2269 47.7291H47.2936C46.8218 48.3771 46.4973 49.1185 46.3423 49.9022L46.4263 49.8469ZM68.6409 48.8503C68.6409 49.6873 68.3049 50.49 67.7067 51.0818C67.1086 51.6737 66.2973 52.0061 65.4514 52.0061H53.6866C53.4046 52.0061 53.1342 52.117 52.9348 52.3143C52.7355 52.5115 52.6234 52.7791 52.6234 53.0581V67.8407H48.4267V50.9542C48.4304 50.1147 48.7691 49.3106 49.3691 48.7169C49.969 48.1233 50.7817 47.7882 51.6302 47.7845H61.2267C61.5087 47.7845 61.7791 47.6737 61.9785 47.4764C62.1779 47.2791 62.2899 47.0115 62.2899 46.7325V36.1854H60.0936V45.6806H45.1673V42.5109H55.8269C55.9665 42.5109 56.1048 42.4837 56.2338 42.4308C56.3628 42.378 56.48 42.3005 56.5787 42.2028C56.6774 42.1051 56.7557 41.9891 56.8092 41.8615C56.8626 41.7339 56.8901 41.5971 56.8901 41.459V32.9603C56.8938 32.1221 57.233 31.3194 57.8333 30.728C58.4337 30.1365 59.2464 29.8045 60.0936 29.8045H65.4234C65.8446 29.8008 66.2624 29.8798 66.6526 30.0367C67.0428 30.1937 67.3977 30.4255 67.6969 30.719C67.996 31.0124 68.2335 31.3615 68.3955 31.7462C68.5575 32.1309 68.6409 32.5436 68.6409 32.9603V48.8503Z" fill="#676767"/>
<path d="M34.1325 40.8608V45H42.4986V40.8608C42.4986 40.7253 42.5256 40.5912 42.5779 40.4661C42.6303 40.341 42.7071 40.2273 42.8039 40.1315C42.9007 40.0357 43.0156 39.9597 43.142 39.9079C43.2685 39.8561 43.4041 39.8294 43.5409 39.8294H49.7812V34.6588C49.7774 32.8863 49.1184 31.1764 47.9285 29.8515C46.7385 28.5265 45.0999 27.6781 43.3215 27.4661C44.3779 26.4684 45.1081 25.1805 45.418 23.7684C45.7279 22.3563 45.6032 20.8848 45.0602 19.5434C44.5171 18.202 43.5805 17.0524 42.371 16.2426C41.1616 15.4328 39.7347 15 38.2744 15C36.8141 15 35.3872 15.4328 34.1778 16.2426C32.9683 17.0524 32.0317 18.202 31.4886 19.5434C30.9455 20.8848 30.8209 22.3563 31.1308 23.7684C31.4407 25.1805 32.1709 26.4684 33.2273 27.4661C31.4513 27.6812 29.816 28.5309 28.6289 29.8556C27.4418 31.1802 26.7847 32.8883 26.7812 34.6588V39.8294H33.049C33.1893 39.8239 33.3293 39.8465 33.4605 39.8959C33.5918 39.9453 33.7116 40.0204 33.8128 40.1167C33.914 40.213 33.9944 40.3286 34.0494 40.4565C34.1043 40.5843 34.1326 40.7219 34.1325 40.8608ZM38.247 33.7767L36.6286 29.4882H39.879L38.247 33.7767ZM33.0216 22.2412C33.0216 21.2185 33.328 20.2188 33.9022 19.3685C34.4764 18.5182 35.2925 17.8555 36.2473 17.4642C37.2021 17.0728 38.2528 16.9704 39.2664 17.1699C40.28 17.3694 41.2111 17.8619 41.9419 18.585C42.6727 19.3081 43.1703 20.2294 43.372 21.2324C43.5736 22.2354 43.4701 23.2751 43.0746 24.2199C42.6791 25.1647 42.0094 25.9722 41.15 26.5404C40.2907 27.1085 39.2804 27.4118 38.247 27.4118C36.8741 27.3905 35.5646 26.8367 34.6002 25.8697C33.6358 24.9027 33.0936 23.5998 33.0901 22.2412H33.0216Z" fill="#DD3333"/>
</g>
</g>
<defs>
<clipPath id="clip0_3370_10150">
<rect width="48" height="48" fill="white" transform="translate(0.78125)"/>
</clipPath>
<clipPath id="clip1_3370_10150">
<rect width="64" height="64" fill="white" transform="translate(6.78125 6)"/>
</clipPath>
</defs>
</svg>
