<svg width="48" height="48" viewBox="0 0 48 48" fill="none" xmlns="http://www.w3.org/2000/svg">
<rect width="48" height="48" fill="white"/>
<path d="M24.5 20.7301C25.5477 20.7301 26.4002 21.4044 26.4002 22.2327C26.4002 22.6555 26.7584 22.9973 27.2001 22.9973C27.6421 22.9973 28 22.6552 28 22.2327C28 20.8002 26.8442 19.6035 25.2999 19.2882V18.7646C25.2999 18.3418 24.9416 18 24.5 18C24.058 18 23.7001 18.3421 23.7001 18.7646V19.2882C22.1558 19.6035 21 20.8001 21 22.2327C21 23.2371 21.5732 24.5746 24.3021 25.2409C25.6943 25.5815 26.4002 26.0945 26.4002 26.7673C26.4002 27.5955 25.5477 28.2699 24.5 28.2699C23.4523 28.2699 22.5998 27.5956 22.5998 26.7673C22.5998 26.3445 22.2416 26.0027 21.7999 26.0027C21.3579 26.0027 21 26.3448 21 26.7673C21 28.1998 22.1558 29.3965 23.7001 29.7118V30.2354C23.7001 30.6582 24.0584 31 24.5 31C24.942 31 25.2999 30.6579 25.2999 30.2354V29.7118C26.8442 29.3965 28 28.1999 28 26.7673C28 25.7629 27.4274 24.4261 24.6979 23.7591C23.3057 23.4195 22.5998 22.9055 22.5998 22.2327C22.5998 21.4045 23.4523 20.7301 24.5 20.7301Z" fill="#676767"/>
<path d="M43.3138 21.3644L39.7023 20.9119C39.32 19.2663 38.6727 17.7218 37.7912 16.2864L40.0222 13.4081C40.2641 13.096 40.2328 12.6592 39.9598 12.3785L36.6216 9.04022C36.3408 8.75947 35.904 8.73597 35.592 8.97787L32.7139 11.2085C31.2781 10.3274 29.7337 9.68004 28.088 9.29778L27.6356 5.67837C27.5889 5.28858 27.2533 5 26.8635 5H22.1365C21.7464 5 21.4111 5.28858 21.3645 5.6787L20.912 9.29811C19.2664 9.68006 17.7219 10.3274 16.2865 11.2088L13.4084 8.9782C13.0963 8.7363 12.6595 8.7598 12.3788 9.04055L9.04053 12.3788C8.76762 12.6596 8.73628 13.0964 8.97818 13.4084L11.2091 16.2867C10.3274 17.7218 9.68002 19.2662 9.29776 20.9119L5.6862 21.3644C5.29641 21.4111 5 21.7467 5 22.1365V26.8632C5 27.2533 5.29642 27.5886 5.68653 27.6353L9.29808 28.0877C9.68003 29.7337 10.3274 31.2782 11.2088 32.7136L8.97784 35.5919C8.73594 35.904 8.76728 36.3408 9.04019 36.6215L12.3785 39.9598C12.6592 40.2327 13.096 40.264 13.4081 40.0221L16.2861 37.7915C17.7219 38.6726 19.2663 39.32 20.912 39.7022L21.3645 43.3216C21.4111 43.7114 21.7467 44 22.1365 44H26.8635C27.2536 44 27.5889 43.7114 27.6356 43.3213L28.088 39.7019C29.7336 39.3199 31.2781 38.6726 32.7136 37.7912L35.5916 40.0218C35.9037 40.2637 36.3405 40.2324 36.6212 39.9594L39.9595 36.6212C40.2324 36.3404 40.2637 35.9036 40.0219 35.5916L37.7909 32.7133C38.6727 31.2782 39.32 29.7338 39.7023 28.0881L43.3138 27.6356C43.7036 27.5889 44 27.2533 44 26.8635V22.1368C44 21.7467 43.7036 21.4111 43.3138 21.3644ZM24.5001 35.6778C18.3381 35.6778 13.3224 30.6624 13.3224 24.5C13.3224 18.3376 18.3377 13.3223 24.5001 13.3223C30.6626 13.3223 35.6779 18.3376 35.6779 24.5C35.6779 30.6624 30.6626 35.6778 24.5001 35.6778Z" fill="#DD3333"/>
</svg>
