<svg width="48" height="48" viewBox="0 0 48 48" fill="none" xmlns="http://www.w3.org/2000/svg">
<rect width="48" height="48" fill="white"/>
<path d="M33.8302 11.1124C33.7766 11.061 33.7129 11.0203 33.6429 10.9928C33.5728 10.9652 33.4977 10.9513 33.4219 10.9518H29.7462C29.6043 9.32901 28.832 7.81654 27.5822 6.71418C26.3325 5.61181 24.6966 5 22.9988 5C21.3009 5 19.665 5.61181 18.4153 6.71418C17.1656 7.81654 16.3933 9.32901 16.2514 10.9518H12.5715C12.42 10.9518 12.2746 11.0096 12.1674 11.1124C12.0602 11.2152 12 11.3546 12 11.5V15.7184C12 15.8638 12.0602 16.0032 12.1674 16.1061C12.2746 16.2089 12.42 16.2666 12.5715 16.2666C12.7231 16.2666 12.8685 16.2089 12.9757 16.1061C13.0829 16.0032 13.1431 15.8638 13.1431 15.7184V12.0482H16.2514C16.3933 13.671 17.1656 15.1835 18.4153 16.2858C19.665 17.3882 21.3009 18 22.9988 18C24.6966 18 26.3325 17.3882 27.5822 16.2858C28.832 15.1835 29.6043 13.671 29.7462 12.0482H32.8569V15.7184C32.8569 15.8638 32.9171 16.0032 33.0243 16.1061C33.1315 16.2089 33.2769 16.2666 33.4285 16.2666C33.58 16.2666 33.7254 16.2089 33.8326 16.1061C33.9398 16.0032 34 15.8638 34 15.7184V11.5C33.9997 11.4278 33.9845 11.3565 33.9554 11.2899C33.9262 11.2234 33.8837 11.1631 33.8302 11.1124ZM26.0802 10.9769L22.7514 15.6639C22.6776 15.7673 22.5691 15.8433 22.444 15.8793C22.3189 15.9153 22.1847 15.9091 22.0638 15.8618C21.9429 15.8145 21.8425 15.7288 21.7794 15.6192C21.7163 15.5095 21.6942 15.3824 21.7169 15.259L22.1586 12.8799H20.3828C20.2789 12.8798 20.177 12.8525 20.088 12.8011C19.9991 12.7496 19.9264 12.6759 19.8779 12.5878C19.8294 12.4997 19.8068 12.4005 19.8126 12.3011C19.8184 12.2016 19.8524 12.1055 19.9108 12.0231L23.2396 7.33612C23.3134 7.23274 23.4219 7.15671 23.547 7.1207C23.6721 7.08469 23.8063 7.09086 23.9272 7.13819C24.0481 7.18552 24.1485 7.27116 24.2116 7.38084C24.2748 7.49051 24.2968 7.61762 24.2741 7.74099L23.8324 10.1201H25.6082C25.7121 10.1202 25.814 10.1475 25.903 10.1989C25.9919 10.2504 26.0646 10.3241 26.1131 10.4122C26.1616 10.5003 26.1842 10.5995 26.1784 10.6989C26.1726 10.7984 26.1386 10.8945 26.0802 10.9769Z" fill="#DD3333"/>
<path d="M13.5867 35.8648V34.4518H14.5094C15.8661 34.4504 17.1667 33.888 18.126 32.888C19.0853 31.8881 19.6248 30.5322 19.6262 29.118V27.5441C19.6262 27.3818 19.5643 27.2261 19.4542 27.1113C19.3441 26.9965 19.1947 26.932 19.039 26.932H17.5291C16.7756 26.9322 16.0315 27.106 15.3499 27.441C14.6684 27.776 14.0663 28.2638 13.5867 28.8697V27.7618L14.4826 26.828C14.9578 26.3327 15.3347 25.7447 15.5918 25.0975C15.849 24.4504 15.9814 23.7568 15.9814 23.0563C15.9814 22.3558 15.849 21.6622 15.5918 21.0151C15.3347 20.3679 14.9578 19.7799 14.4826 19.2846L13.4148 18.1724C13.3026 18.0617 13.154 18 12.9996 18C12.8451 18 12.6965 18.0617 12.5844 18.1724L11.5174 19.2846C11.0422 19.7799 10.6653 20.3679 10.4082 21.0151C10.151 21.6622 10.0186 22.3558 10.0186 23.0563C10.0186 23.7568 10.151 24.4504 10.4082 25.0975C10.6653 25.7447 11.0422 26.3327 11.5174 26.828L12.4124 27.7618V28.8697C11.9332 28.2634 11.3312 27.7752 10.6496 27.4402C9.96795 27.1052 9.22362 26.9317 8.47003 26.932H6.96018C6.80446 26.932 6.6551 26.9965 6.54499 27.1113C6.43487 27.2261 6.37302 27.3818 6.37302 27.5441V29.118C6.37479 30.5321 6.91444 31.8877 7.87362 32.8875C8.83281 33.8874 10.1332 34.45 11.4897 34.4518H12.4124V35.8648C10.5868 35.9738 8.82896 36.6242 7.34602 37.7395C5.86308 38.8549 4.71673 40.3887 4.04197 42.1604C4.01347 42.2353 3.99923 42.3152 4.00003 42.3957C4.00202 42.5578 4.06567 42.7126 4.17702 42.8259C4.23209 42.8822 4.2974 42.9265 4.36911 42.9561C4.44064 42.9867 4.51745 43.0016 4.59474 42.9999C4.67174 42.9989 4.74782 42.9822 4.81871 42.9509C4.88955 42.9191 4.95368 42.873 5.00744 42.8154C5.06154 42.758 5.10404 42.6899 5.13242 42.6151C5.7606 40.975 6.84604 39.5689 8.24858 38.5784C9.65111 37.5879 11.3063 37.0584 13.0004 37.0584C14.6945 37.0584 16.3497 37.5879 17.7523 38.5784C19.1548 39.5689 20.2402 40.975 20.8684 42.6151C20.8971 42.6898 20.9395 42.7578 20.9934 42.8154C21.0473 42.8728 21.1114 42.9188 21.1821 42.9509C21.253 42.9824 21.3291 42.999 21.4061 42.9999C21.4833 43.0007 21.56 42.9858 21.6317 42.9561C21.7758 42.8953 21.8912 42.7779 21.953 42.6291C21.9832 42.5553 21.9991 42.4759 22 42.3957C22.0008 42.3152 21.9865 42.2353 21.958 42.1604C21.2832 40.3886 20.1367 38.8547 18.6536 37.7393C17.1705 36.6239 15.4126 35.9736 13.5867 35.8648ZM17.5291 28.1562H18.4518V29.118C18.4518 30.208 18.0365 31.2533 17.2971 32.024C16.5578 32.7947 15.555 33.2277 14.5094 33.2277H13.5867V32.2658C13.5867 31.1759 14.0021 30.1306 14.7414 29.3599C15.4808 28.5892 16.4836 28.1562 17.5291 28.1562ZM11.192 23.0567C11.1903 22.5167 11.2915 21.9817 11.4898 21.4827C11.6881 20.9838 11.9794 20.5309 12.347 20.1503L12.9987 19.4709L13.6513 20.1503C14.0174 20.5319 14.3079 20.9849 14.506 21.4835C14.7041 21.9822 14.8061 22.5166 14.8061 23.0563C14.8061 23.596 14.7041 24.1304 14.506 24.629C14.3079 25.1277 14.0174 25.5807 13.6513 25.9623L12.9987 26.6426L12.347 25.9623C11.9795 25.5818 11.6882 25.1291 11.4899 24.6303C11.2917 24.1315 11.1904 23.5966 11.192 23.0567ZM7.54651 29.118V28.1562H8.46919C9.51478 28.1562 10.5175 28.5892 11.2569 29.3599C11.9962 30.1306 12.4116 31.1759 12.4116 32.2658V33.2277H11.4889C10.4433 33.2277 9.44055 32.7947 8.70121 32.024C7.96186 31.2533 7.54651 30.208 7.54651 29.118Z" fill="#676767"/>
<path d="M41.9514 42.1505C41.2767 40.3801 40.1306 38.8473 38.6479 37.7327C37.1653 36.6181 35.4078 35.9682 33.5825 35.8593V34.4473H34.505C35.8612 34.4454 37.1614 33.8833 38.1204 32.8841C39.0794 31.8849 39.619 30.5302 39.6208 29.1172V27.5444C39.6208 27.3822 39.5589 27.2266 39.4488 27.1119C39.3387 26.9972 39.1894 26.9327 39.0337 26.9327H37.5241C36.7707 26.9324 36.0265 27.1058 35.345 27.4406C34.6635 27.7753 34.0616 28.2632 33.5825 28.869V27.762L34.4773 26.8287C34.9524 26.3338 35.3293 25.7462 35.5864 25.0995C35.8435 24.4528 35.9758 23.7597 35.9758 23.0597C35.9758 22.3597 35.8435 21.6666 35.5864 21.0199C35.3293 20.3732 34.9524 19.7856 34.4773 19.2906L33.4106 18.1792C33.3561 18.1224 33.2913 18.0773 33.2201 18.0466C33.1489 18.0158 33.0725 18 32.9954 18C32.9184 18 32.842 18.0158 32.7708 18.0466C32.6996 18.0773 32.6348 18.1224 32.5803 18.1792L31.5127 19.2906C31.0376 19.7856 30.6608 20.3732 30.4037 21.0199C30.1466 21.6666 30.0142 22.3597 30.0142 23.0597C30.0142 23.7597 30.1466 24.4528 30.4037 25.0995C30.6608 25.7462 31.0376 26.3338 31.5127 26.8287L32.4109 27.762V28.869C31.9315 28.2636 31.3295 27.7761 30.6481 27.4413C29.9666 27.1066 29.2226 26.9329 28.4693 26.9327H26.9597C26.804 26.9327 26.6547 26.9972 26.5446 27.1119C26.4345 27.2266 26.3727 27.3822 26.3727 27.5444V29.1172C26.374 30.5304 26.9134 31.8853 27.8725 32.8846C28.8316 33.8839 30.132 34.4459 31.4884 34.4473H32.4109V35.8593C30.5856 35.9682 28.8281 36.6181 27.3455 37.7327C25.8628 38.8473 24.7167 40.3801 24.0421 42.1505C24.0128 42.2251 23.9985 42.3051 24.0001 42.3856C24.0009 42.4658 24.0169 42.5451 24.0471 42.6189C24.0852 42.7113 24.1445 42.7924 24.2198 42.8552C24.2952 42.918 24.3842 42.9605 24.4791 42.9789C24.574 42.9973 24.6717 42.9911 24.7637 42.9608C24.8557 42.9304 24.9391 42.8769 25.0065 42.805C25.0604 42.7475 25.1028 42.6795 25.1315 42.6049C25.7595 40.966 26.8448 39.5608 28.247 38.571C29.6493 37.5812 31.3042 37.0521 32.998 37.0521C34.6918 37.0521 36.3466 37.5812 37.7489 38.571C39.1512 39.5608 40.2364 40.966 40.8645 42.6049C40.8921 42.6809 40.934 42.7504 40.9878 42.8094C41.0413 42.8686 41.1057 42.9158 41.1773 42.9483C41.2487 42.981 41.3257 42.9985 41.4037 42.9999C41.4815 43.0016 41.5589 42.9868 41.631 42.9562C41.7035 42.9258 41.7696 42.881 41.8256 42.8242C41.881 42.7671 41.925 42.6991 41.955 42.6241C41.9849 42.5491 42.0002 42.4686 42 42.3873C42.0003 42.306 41.9846 42.2254 41.9539 42.1505H41.9514ZM37.5267 28.156H38.4492V29.1172C38.4476 30.2059 38.0318 31.2495 37.293 32.0193C36.5541 32.7892 35.5524 33.2224 34.5075 33.224H33.585V32.2628C33.585 31.1736 34.0003 30.129 34.7395 29.3589C35.4787 28.5887 36.4813 28.156 37.5267 28.156ZM31.1915 23.0601C31.1903 22.5205 31.2918 21.986 31.49 21.4875C31.6882 20.989 31.9793 20.5363 32.3463 20.1557L32.9988 19.4767L33.6504 20.1557C34.0165 20.537 34.3068 20.9898 34.5049 21.488C34.703 21.9863 34.805 22.5204 34.805 23.0597C34.805 23.599 34.703 24.1331 34.5049 24.6313C34.3068 25.1296 34.0165 25.5824 33.6504 25.9637L32.9988 26.6435L32.3463 25.9637C31.9794 25.5831 31.6884 25.1306 31.4902 24.6323C31.292 24.1339 31.1905 23.5996 31.1915 23.0601ZM27.5468 29.1172V28.156H28.4693C29.5147 28.156 30.5172 28.5887 31.2564 29.3589C31.9956 30.129 32.4109 31.1736 32.4109 32.2628V33.224H31.4884C30.443 33.224 29.4404 32.7913 28.7012 32.0211C27.962 31.251 27.5468 30.2064 27.5468 29.1172Z" fill="#676767"/>
</svg>
