<svg width="55" height="42" viewBox="0 0 55 42" fill="none" xmlns="http://www.w3.org/2000/svg">
<path d="M52.5311 24.0719C52.2512 23.4726 51.6431 23.0898 50.9752 23.0921L47.4099 23.088L49.4126 14.2823C49.5715 13.5856 49.2285 12.8727 48.5821 12.5542C47.9352 12.2351 47.1523 12.3935 46.684 12.9374L44.9107 14.9966L43.1823 3.66082C42.9113 1.88834 40.9239 0.5 38.6561 0.5H9.42001C7.15175 0.5 5.16395 1.88881 4.89377 3.66082L1.05362 28.8379C0.859645 30.0033 1.19757 31.194 1.97672 32.0902C2.87178 33.0732 4.1562 33.6226 5.49476 33.5949H38.9414L37.629 38.6676C37.4364 39.3713 37.7748 40.1109 38.4366 40.4333C38.6614 40.5478 38.911 40.6082 39.1639 40.6087C39.6276 40.6073 40.0655 40.3995 40.3576 40.0436L52.294 25.8801C52.7249 25.3754 52.8177 24.6684 52.5311 24.0719ZM38.6561 1.53412C40.3892 1.53412 41.9555 2.55726 42.1476 3.81544L43.024 9.56417H31.0666L30.6581 1.53412H38.6561ZM18.4658 1.53412H29.6113L30.0198 9.56417H18.0577L18.4658 1.53412ZM18.005 10.5984H30.072L30.5558 20.1183H17.5208L18.005 10.5984ZM5.93078 3.81449C6.12195 2.55723 7.68777 1.53412 9.4213 1.53412H17.4175L17.009 9.56417H5.05395L5.93078 3.81449ZM15.8405 32.5611H5.49656C4.46175 32.5948 3.46485 32.1756 2.77169 31.4156C2.19353 30.7471 1.9444 29.8597 2.09117 28.9926L3.2863 21.1528H16.4206L15.8405 32.5611ZM3.44438 20.1186L4.89614 10.5991H16.9572L16.4734 20.1186H3.44438ZM16.8898 32.5611L17.4699 21.1528H30.609L31.189 32.5615L16.8898 32.5611ZM31.1202 10.599H43.1824L44.0121 16.0411L40.5005 20.1189H31.6037L31.1202 10.599ZM32.2368 32.5611L31.6568 21.1528H39.6105L34.8178 26.7168C34.5322 27.0483 34.3863 27.4754 34.4097 27.9098C34.4335 28.3443 34.6247 28.7534 34.9444 29.0526C35.2641 29.3518 35.688 29.5184 36.1283 29.5184H39.997L39.2099 32.5606L32.2368 32.5611Z" fill="#676767" stroke="#676767"/>
<path d="M51.7444 22.6884C52.4605 22.6859 53.1125 23.097 53.4127 23.7406C53.7198 24.3812 53.6204 25.1405 53.1584 25.6824L40.3604 40.8931C40.0471 41.2754 39.5776 41.4985 39.0805 41.5C38.8093 41.4995 38.5417 41.4346 38.3007 41.3116C37.5911 40.9655 37.2283 40.1711 37.4347 39.4154L38.8419 33.9676L39.1297 32.8569L39.9736 29.5898H35.8258C35.3537 29.5898 34.8992 29.4108 34.5564 29.0895C34.2136 28.7682 34.0086 28.3289 33.9831 27.8623C33.958 27.3957 34.1144 26.937 34.4206 26.581L39.5593 20.6056L40.5135 19.4953L44.2786 15.116L45.2421 13.9943L47.1434 11.7828C47.6455 11.1987 48.4849 11.0287 49.1785 11.3713C49.8716 11.7134 50.2394 12.479 50.069 13.2272L47.9217 22.6839L51.7444 22.6884Z" fill="#DD3333" stroke="#DD3333"/>
</svg>
