<svg width="48" height="48" viewBox="0 0 48 48" fill="none" xmlns="http://www.w3.org/2000/svg">
<rect width="48" height="48" fill="white"/>
<path d="M31.6965 37.9905C32.1967 37.9905 32.6588 37.7225 32.9088 37.2875C33.1588 36.8526 33.1588 36.3165 32.9088 35.8816C32.6588 35.4466 32.1967 35.1786 31.6965 35.1786H23.2979C23.2226 35.1786 23.1479 35.1666 23.0766 35.1428L20.3855 34.2414C19.4578 33.9307 18.4864 33.7726 17.5084 33.7726H16.9135C15.2641 33.7726 13.6459 34.2229 12.2318 35.0753L11.0601 35.7783H11.0605C10.9517 35.8448 10.8271 35.8806 10.6999 35.8816H10V42.9115H15.2708C15.517 42.9115 15.7629 42.9262 16.0072 42.9551L24.3499 43.9393C26.2961 44.1649 28.2633 43.7579 29.9621 42.7778L42.3001 35.6242C42.5138 35.5018 42.6913 35.3242 42.8144 35.1098C42.9375 34.8958 43.0015 34.6526 43 34.4053C42.9997 33.9031 42.7328 33.4393 42.2998 33.1883C41.8667 32.9372 41.3334 32.9372 40.9003 33.1886L34.4654 36.9185C34.3858 37.6002 34.0599 38.2288 33.5497 38.6854C33.0394 39.1421 32.3802 39.395 31.6968 39.3966H21.1985V37.9906L31.6965 37.9905Z" fill="#DD3333"/>
<path d="M4 35H8V43H4V35Z" fill="#DD3333"/>
<path d="M23.5 12C22.0412 12 20.6423 12.5795 19.611 13.611C18.5795 14.6423 18 16.0412 18 17.5C18 18.9588 18.5795 20.3577 19.611 21.389C20.6423 22.4205 22.0412 23 23.5 23C24.9588 23 26.3577 22.4205 27.389 21.389C28.4205 20.3577 29 18.9588 29 17.5C28.9985 16.0418 28.4184 14.6438 27.3872 13.6128C26.3562 12.5816 24.9582 12.0015 23.5 12ZM22.8125 16.8125H24.1875C24.9244 16.8125 25.6052 17.2057 25.9737 17.8438C26.342 18.4818 26.342 19.2682 25.9737 19.9063C25.6051 20.5443 24.9244 20.9375 24.1875 20.9375V21.625H22.8125V20.9375C22.2656 20.9375 21.7407 20.7202 21.3541 20.3335C20.9674 19.9468 20.75 19.4219 20.75 18.875H22.125C22.125 19.0573 22.1975 19.2323 22.3264 19.3612C22.4553 19.4901 22.6302 19.5625 22.8125 19.5625H24.1875C24.5672 19.5625 24.875 19.2547 24.875 18.875C24.875 18.4954 24.5672 18.1875 24.1875 18.1875H22.8125C22.0756 18.1875 21.3949 17.7944 21.0263 17.1563C20.658 16.5182 20.658 15.7319 21.0263 15.0938C21.3949 14.4557 22.0756 14.0625 22.8125 14.0625V13.375H24.1875V14.0625C24.7345 14.0625 25.2593 14.2798 25.646 14.6666C26.0326 15.0533 26.25 15.5781 26.25 16.125H24.875C24.875 15.9427 24.8026 15.7677 24.6737 15.6388C24.5448 15.5099 24.3698 15.4375 24.1875 15.4375H22.8125C22.4328 15.4375 22.125 15.7453 22.125 16.125C22.125 16.5047 22.4328 16.8125 22.8125 16.8125Z" fill="#DD3333"/>
<path d="M25.0909 10.2231L26.1715 9.3135L25.3434 8.32339L25.3437 8.32371C28.3281 8.82507 30.9186 10.6698 32.3726 13.3289C33.8265 15.9882 33.9835 19.1685 32.7983 21.9586C31.6135 24.7487 29.217 26.8403 26.2966 27.6345L26.6659 29H26.6656C30.0168 28.0901 32.7637 25.6849 34.1129 22.4796C35.4623 19.2741 35.2637 15.6247 33.5753 12.585C31.8866 9.54522 28.8956 7.45322 25.4657 6.91298L26.4539 6.08201L25.5463 5L23.2523 6.92842C23.1089 7.04902 23.0191 7.22172 23.0027 7.40863C22.9863 7.59554 23.0449 7.78119 23.1653 7.92484L25.0909 10.2231Z" fill="#676767"/>
<path d="M21.5344 29.0853L20.5463 29.9163L21.4541 31L23.7481 29.0714V29.071C23.8914 28.9504 23.9809 28.7777 23.9973 28.5908C24.0137 28.4038 23.9551 28.2182 23.8347 28.0745L21.9101 25.7757L20.8287 26.6854L21.6568 27.6757L21.6565 27.6754C18.6744 27.1717 16.0871 25.3267 14.6348 22.6684C13.1825 20.0103 13.0256 16.8319 14.2091 14.0425C15.3927 11.2537 17.7858 9.16176 20.7037 8.3657L20.3337 7H20.3341C16.983 7.91036 14.2362 10.3155 12.887 13.5214C11.5377 16.727 11.7363 20.3769 13.4246 23.4172C15.1132 26.4573 18.1042 28.5496 21.5339 29.0899L21.5344 29.0853Z" fill="#676767"/>
<path d="M37 17H38V18H37V17Z" fill="#676767"/>
<path d="M36 14.4228L37.5772 14L38 15.5772L36.4228 16L36 14.4228Z" fill="#676767"/>
<path d="M34 10.7321L35.2679 10L36 11.2679L34.7321 12L34 10.7321Z" fill="#676767"/>
<path d="M32 8.99968L33.0003 8L34 9.00032L32.9997 10L32 8.99968Z" fill="#676767"/>
<path d="M30 6.26797L30.732 5L32 5.73203L31.268 7L30 6.26797Z" fill="#676767"/>
<path d="M36 22.5772L36.4228 21L38 21.4228L37.5772 23L36 22.5772Z" fill="#676767"/>
<path d="M34 25.2679L34.7321 24L36 24.7321L35.2679 26L34 25.2679Z" fill="#676767"/>
<path d="M32 28.0003L32.9997 27L34 27.9997L33.0003 29L32 28.0003Z" fill="#676767"/>
<path d="M30 29.732L31.268 29L32 30.268L30.732 31L30 29.732Z" fill="#676767"/>
<path d="M10 17H11V18H10V17Z" fill="#676767"/>
<path d="M10 15.5772L10.4228 14L12 14.4228L11.5772 16L10 15.5772Z" fill="#676767"/>
<path d="M11 11.268L11.732 10L13 10.732L12.268 12L11 11.268Z" fill="#676767"/>
<path d="M13 9L14 8L15 9L14 10L13 9Z" fill="#676767"/>
<path d="M16 5.73203L17.268 5L18 6.26797L16.732 7L16 5.73203Z" fill="#676767"/>
<path d="M10 21.4228L11.5772 21L12 22.5772L10.4228 23L10 21.4228Z" fill="#676767"/>
<path d="M11 24.732L12.268 24L13 25.268L11.732 26L11 24.732Z" fill="#676767"/>
<path d="M13 28L14 27L15 28L14 29L13 28Z" fill="#676767"/>
<path d="M16 30.268L16.732 29L18 29.732L17.268 31L16 30.268Z" fill="#676767"/>
</svg>
