<svg width="48" height="48" viewBox="0 0 48 48" fill="none" xmlns="http://www.w3.org/2000/svg">
<rect width="48" height="48" fill="white"/>
<path d="M44.449 30.6419C44.3562 29.7796 43.8948 28.9172 43.0648 28.4861C41.7735 27.7971 40.4821 27.3659 39.2835 27.0203C39.0871 26.9799 38.882 27.0001 38.6989 27.0778C38.5158 27.1556 38.3646 27.2867 38.268 27.4515L35.9623 31.3309H35.2239L32.9182 27.4515C32.8218 27.2868 32.6708 27.1557 32.4879 27.078C32.3051 27.0002 32.1001 26.98 31.9039 27.0203C30.5829 27.3604 29.3123 27.8528 28.1214 28.4861C27.289 28.9172 26.7373 29.7796 26.6457 30.6419L26 38.0518C26 38.3107 26.0916 38.483 26.2759 38.7419C26.4506 38.898 26.68 38.9896 26.9216 38.9997H44.0803C44.2015 39.0028 44.3219 38.9814 44.4334 38.9369C44.5449 38.8924 44.6447 38.8259 44.726 38.7419C44.9097 38.5538 45.0078 38.3063 44.9995 38.0518L44.449 30.6419Z" stroke="#676767" stroke-miterlimit="10"/>
<path d="M8 19.9905C8 22.2835 10.0106 25 12.5 25C14.9894 25 17 22.2835 17 19.9905C17.0006 19.4663 16.8847 18.9471 16.6588 18.4627C16.4329 17.9783 16.1014 17.5382 15.6834 17.1675C15.2654 16.7968 14.7691 16.5029 14.2228 16.3026C13.6766 16.1023 13.0911 15.9994 12.5 16C11.9089 15.9994 11.3234 16.1023 10.7772 16.3026C10.2309 16.5029 9.73456 16.7968 9.31657 17.1675C8.89858 17.5382 8.56714 17.9783 8.34122 18.4627C8.11531 18.9471 7.99935 19.4663 8 19.9905Z" stroke="#676767" stroke-miterlimit="10"/>
<path d="M21.0617 28.4971C19.7706 27.802 18.4795 27.3677 17.2811 27.0207C17.0849 26.9797 16.8798 26.9999 16.6969 27.0783C16.514 27.1566 16.3631 27.2888 16.267 27.455L13.9605 31.3625H13.2234L10.917 27.455C10.8209 27.2888 10.67 27.1566 10.487 27.0783C10.3041 26.9999 10.099 26.9797 9.90284 27.0207C8.58169 27.3623 7.31118 27.8582 6.12098 28.4971C5.28876 28.9314 4.7383 29.7989 4.64557 30.6674L4 38.0448C4 38.3056 4.09274 38.4791 4.27701 38.7399C4.45161 38.8974 4.68105 38.9897 4.92258 38.9996H22.0771C22.1983 39.0032 22.3188 38.9818 22.4303 38.937C22.5419 38.8921 22.6416 38.8249 22.7226 38.7399C22.9075 38.551 23.0069 38.3016 22.9996 38.0448L22.4456 30.5779C22.4456 29.7127 21.8928 28.9314 21.0617 28.4971Z" stroke="#676767" stroke-miterlimit="10"/>
<path d="M31 19.992C31 22.2843 33.0106 25 35.5 25C37.9894 25 40 22.2843 40 19.992C40.0006 19.468 39.8847 18.949 39.6588 18.4647C39.4329 17.9805 39.1014 17.5405 38.6834 17.1699C38.2654 16.7993 37.7691 16.5055 37.2228 16.3052C36.6766 16.105 36.0911 16.0022 35.5 16.0027C33.0167 15.9185 31 17.7851 31 19.992Z" stroke="#676767" stroke-miterlimit="10"/>
<path d="M32.6587 25.9808C31.1633 25.0624 29.6679 24.4877 28.2786 24.027C28.0514 23.9732 27.8141 24.0002 27.6023 24.1038C27.3905 24.2075 27.2157 24.3822 27.1041 24.6017L24.4342 29.7728H23.5708L20.9009 24.6017C20.7889 24.3822 20.6138 24.2076 20.4018 24.104C20.1899 24.0004 19.9524 23.9734 19.725 24.027C18.1958 24.4804 16.7249 25.1367 15.3463 25.9808C14.3825 26.5555 13.7436 27.705 13.6361 28.8545L13 38.7404C13 39.0855 13.106 39.3151 13.3208 39.6603C13.524 39.8673 13.7902 39.9879 14.0699 39.9995H33.9378C34.0782 40.0043 34.2179 39.976 34.347 39.9166C34.4762 39.8573 34.5917 39.7682 34.6855 39.6558C34.8961 39.4058 35.0087 39.0777 34.9995 38.7404L34.3578 28.8589C34.3178 28.2655 34.1416 27.692 33.8451 27.1897C33.5486 26.6874 33.1409 26.2721 32.6587 25.9808Z" fill="#DD3333"/>
<path d="M23.9999 12C23.2119 11.9992 22.4314 12.1363 21.7032 12.4034C20.975 12.6704 20.3133 13.0622 19.756 13.5564C19.1987 14.0505 18.7567 14.6372 18.4554 15.283C18.1541 15.9288 17.9993 16.621 18 17.3199C18 20.3761 20.6807 24 23.9999 24C27.3192 24 30 20.3848 30 17.3199C30.0006 16.621 29.8458 15.9288 29.5445 15.283C29.2432 14.6372 28.8012 14.0505 28.2439 13.5564C27.6866 13.0622 27.0249 12.6704 26.2967 12.4034C25.5685 12.1363 24.788 11.9992 23.9999 12Z" fill="#DD3333"/>
</svg>
