<svg width="48" height="48" viewBox="0 0 48 48" fill="none" xmlns="http://www.w3.org/2000/svg">
<g clip-path="url(#clip0_3370_10062)">
<rect width="48" height="48" fill="white"/>
<path fill-rule="evenodd" clip-rule="evenodd" d="M25.469 9.90458C25.429 9.69988 25.4591 9.48722 25.5543 9.30278C25.6495 9.11833 25.8039 8.9735 25.9912 8.89291L27.9053 8.07021C28.0928 7.98951 28.3017 7.978 28.4966 8.03764C28.6914 8.09729 28.8602 8.22441 28.9743 8.39744L29.8036 9.66031C30.4605 9.63862 31.1166 9.72577 31.7467 9.91841L32.8673 8.90904C33.0184 8.76844 33.2128 8.68687 33.4164 8.67859C33.6195 8.67028 33.8191 8.73462 33.9812 8.86065L35.6307 10.1558C35.7929 10.2816 35.907 10.4618 35.9535 10.6651C36 10.8686 35.9779 11.0823 35.8907 11.2711L35.2385 12.64C35.5854 13.2147 35.8411 13.8424 35.9961 14.4998L37.4013 14.986C37.5938 15.0525 37.7579 15.1855 37.8658 15.3624C37.9736 15.5393 38.0186 15.7491 37.993 15.9562L37.7151 18.0925C37.6896 18.3001 37.5948 18.4923 37.4468 18.636C37.2988 18.7798 37.1069 18.8662 36.9038 18.8806L35.4245 18.9866C35.116 19.5862 34.7157 20.1309 34.2389 20.5998L34.5303 22.0931C34.5704 22.2978 34.5403 22.5104 34.4451 22.6949C34.3498 22.8793 34.1954 23.0242 34.0081 23.1047L32.0941 23.9297C31.9064 24.0107 31.6971 24.0221 31.5021 23.962C31.3071 23.9018 31.1385 23.774 31.025 23.6002L30.1958 22.3373C29.5389 22.3598 28.8828 22.2735 28.2526 22.0815L27.132 23.0886C26.9808 23.229 26.7865 23.3106 26.5829 23.3191C26.3796 23.3265 26.18 23.2614 26.0181 23.1347L24.3686 21.8419C24.2074 21.7148 24.0936 21.5347 24.0463 21.3316C23.9989 21.1285 24.021 20.9149 24.1086 20.7265L24.7586 19.3553C24.4134 18.7809 24.1585 18.154 24.0033 17.4979L22.598 17.0093C22.4056 16.9434 22.2415 16.8106 22.1341 16.6337C22.0273 16.4561 21.9822 16.2465 22.0064 16.0392L22.2708 13.9213C22.2972 13.7142 22.3924 13.5229 22.5402 13.3797C22.6881 13.2365 22.8795 13.1502 23.0821 13.1355L24.5613 13.0272C24.8699 12.427 25.2711 11.8822 25.7492 11.414L25.469 9.90458ZM31.0205 18.4911C31.5846 18.2512 32.0502 17.8175 32.3381 17.2641C32.626 16.7107 32.7183 16.0717 32.5993 15.4562C32.4804 14.8406 32.1575 14.2865 31.6857 13.8883C31.2139 13.4901 30.6224 13.2724 30.012 13.2724C29.4016 13.2724 28.8101 13.4901 28.3383 13.8883C27.8665 14.2865 27.5436 14.8406 27.4247 15.4562C27.3057 16.0717 27.398 16.7107 27.6859 17.2641C27.9738 17.8175 28.4394 18.2512 29.0035 18.4911C29.3231 18.6277 29.6659 18.698 30.012 18.698C30.3581 18.698 30.7009 18.6277 31.0205 18.4911Z" fill="#DD3333"/>
<path fill-rule="evenodd" clip-rule="evenodd" d="M35.9708 25.3955C36.0193 25.2638 36.1136 25.153 36.2373 25.0825C36.3609 25.0125 36.5052 24.9859 36.6464 25.0071L38.0887 25.2356C38.2306 25.2564 38.3605 25.3252 38.4557 25.43C38.551 25.5348 38.6056 25.6689 38.61 25.8091L38.6521 26.8258C39.054 27.0511 39.4163 27.3381 39.7251 27.6757L40.7537 27.5021C40.8944 27.4791 41.039 27.5042 41.1629 27.5733C41.2868 27.6424 41.3826 27.7512 41.4339 27.8814L41.9576 29.2157C42.0099 29.3457 42.0139 29.4896 41.9691 29.6223C41.9243 29.755 41.8334 29.8682 41.7121 29.9422L40.8261 30.4929C40.8266 30.9446 40.7532 31.3935 40.6087 31.8226L41.2773 32.6086C41.3667 32.717 41.4154 32.8521 41.4154 32.9913C41.4154 33.1305 41.3667 33.2656 41.2773 33.374L40.3586 34.4844C40.2689 34.5933 40.1433 34.6685 40.0033 34.6969C39.8635 34.7242 39.7184 34.704 39.5919 34.6398L38.6568 34.1645C38.2574 34.3921 37.8234 34.5556 37.3711 34.6489L37.0087 35.604C36.9599 35.7354 36.8658 35.8461 36.7425 35.917C36.6192 35.9879 36.4744 36.0146 36.3331 35.9924L34.8885 35.7639C34.747 35.7423 34.6176 35.6732 34.5225 35.5686C34.4274 35.464 34.3725 35.3303 34.3672 35.1904L34.3251 34.1737C33.9243 33.9477 33.5629 33.6608 33.2544 33.3237L32.2259 33.4951C32.0847 33.52 31.9391 33.4958 31.8144 33.4266C31.6908 33.3568 31.5952 33.248 31.5433 33.1181L31.036 31.7929C30.988 31.6614 30.988 31.5177 31.036 31.3862C31.0803 31.2533 31.1714 31.1399 31.2931 31.0664L32.1744 30.5203C32.1743 30.0688 32.2469 29.62 32.3895 29.1905L31.7092 28.4C31.6176 28.293 31.5672 28.158 31.5666 28.0185C31.5667 27.8789 31.6153 27.7435 31.7046 27.6346L32.6233 26.5242C32.7133 26.4157 32.8387 26.3407 32.9786 26.3117C33.1191 26.2845 33.265 26.3046 33.3924 26.3688L34.3157 26.8441C34.7157 26.6161 35.1506 26.4526 35.6038 26.3597L35.9661 25.4046L35.9708 25.3955ZM36.2046 32.2864C36.6282 32.3517 37.0618 32.2713 37.4316 32.0591C37.8014 31.8469 38.0845 31.5159 38.2327 31.1225C38.3808 30.7292 38.3848 30.2978 38.244 29.9019C38.1033 29.506 37.8264 29.17 37.4606 28.9512C37.0949 28.7325 36.6628 28.6444 36.238 28.702C35.8133 28.7597 35.4221 28.9595 35.1311 29.2674C34.8402 29.5753 34.6675 29.9723 34.6424 30.3908C34.6173 30.8092 34.7415 31.2232 34.9937 31.5622C35.1369 31.7547 35.3176 31.9178 35.5254 32.0421C35.7331 32.1664 35.9639 32.2494 36.2046 32.2864Z" stroke="#676767" stroke-width="2" stroke-linecap="round" stroke-linejoin="round"/>
<path d="M12 35C10.4157 31.5297 6.71493 31.9626 5 34.5716V9.29716C5 8.4227 5.36875 7.58405 6.02513 6.96572C6.6815 6.34738 7.57174 6 8.5 6V6C9.42826 6 10.3185 6.34738 10.9749 6.96572C11.6313 7.58405 12 8.4227 12 9.29716V35Z" stroke="#676767" stroke-width="2" stroke-linecap="round" stroke-linejoin="round"/>
<path d="M39 38.35C38.997 39.3175 38.6248 40.2444 37.9647 40.9283C37.3046 41.6122 36.4103 41.9975 35.4771 42H10.7064C9.19521 41.9925 7.74797 41.3668 6.67937 40.2589C5.61077 39.1511 5.00724 37.6506 5 36.0839V31" stroke="#676767" stroke-width="2" stroke-linecap="round" stroke-linejoin="round"/>
<path d="M19 7.2575V26.7427L16.7863 30L15 26.7427V7.2575C15 6.00469 15.8965 5.00018 17 5.00018C18.1035 4.98438 19 6.00469 19 7.2575Z" stroke="#676767" stroke-width="2" stroke-linecap="round" stroke-linejoin="round"/>
<path d="M12 9H15" stroke="#676767" stroke-width="2" stroke-linecap="round" stroke-linejoin="round"/>
<path d="M17 34H24" stroke="#676767" stroke-width="2" stroke-linecap="round" stroke-linejoin="round"/>
<path d="M17 37H29" stroke="#676767" stroke-width="2" stroke-linecap="round" stroke-linejoin="round"/>
</g>
<defs>
<clipPath id="clip0_3370_10062">
<rect width="48" height="48" fill="white"/>
</clipPath>
</defs>
</svg>
