<svg width="49" height="48" viewBox="0 0 49 48" fill="none" xmlns="http://www.w3.org/2000/svg">
<rect width="48" height="48" transform="translate(0.78125)" fill="white"/>
<mask id="path-1-inside-1_3370_10195" fill="white">
<path d="M12.3008 24.32V5.12H33.334L39.1808 12.3129V23.3949"/>
</mask>
<path d="M10.3008 24.32C10.3008 25.4246 11.1962 26.32 12.3008 26.32C13.4054 26.32 14.3008 25.4246 14.3008 24.32H10.3008ZM12.3008 5.12V3.12H10.3008V5.12H12.3008ZM33.334 5.12L34.886 3.85848L34.2857 3.12H33.334V5.12ZM39.1808 12.3129H41.1808V11.6026L40.7327 11.0514L39.1808 12.3129ZM37.1808 23.3949C37.1808 24.4995 38.0762 25.3949 39.1808 25.3949C40.2854 25.3949 41.1808 24.4995 41.1808 23.3949H37.1808ZM14.3008 24.32V5.12H10.3008V24.32H14.3008ZM12.3008 7.12H33.334V3.12H12.3008V7.12ZM31.7821 6.38151L37.6288 13.5744L40.7327 11.0514L34.886 3.85848L31.7821 6.38151ZM37.1808 12.3129V23.3949H41.1808V12.3129H37.1808Z" fill="#676767" mask="url(#path-1-inside-1_3370_10195)"/>
<path d="M36.4974 11.16H32.7482L33.5861 7.41074L36.4974 11.16Z" stroke="#676767" stroke-width="2" stroke-linecap="round" stroke-linejoin="round"/>
<path d="M16.1406 10.24H28.9406" stroke="#676767" stroke-width="2" stroke-miterlimit="10" stroke-linecap="round"/>
<path d="M16.1406 14.08H28.9406" stroke="#676767" stroke-width="2" stroke-miterlimit="10" stroke-linecap="round"/>
<path d="M16.7812 18.5601H30.2212" stroke="#676767" stroke-width="2" stroke-miterlimit="10" stroke-linecap="round"/>
<path d="M23.8203 25.6C23.8203 23.8517 24.1935 21.12 25.8168 21.12C27.4401 21.12 27.7573 25.2995 28.5037 25.2995C29.25 25.2995 30.0617 23.6969 30.8734 23.6969C31.685 23.6969 31.9649 25.4179 33.4203 25.4179" stroke="#676767" stroke-width="2" stroke-miterlimit="10" stroke-linecap="round"/>
<g clip-path="url(#clip0_3370_10195)">
<path d="M35.0993 26.88L26.7733 28.224C26.339 28.2516 25.9145 28.37 25.5254 28.572L24.8641 28.9201L27.537 30.6508C27.8542 30.8553 28.1163 31.1399 28.2987 31.4781C28.4811 31.8163 28.578 32.197 28.5801 32.5846V32.8263C28.5801 33.4366 28.3466 34.0219 27.9309 34.4535C27.5152 34.8851 26.9514 35.1275 26.3636 35.1275C25.9642 35.1284 25.5718 35.0183 25.2273 34.8084L23.0015 33.4161L23.0667 33.3581L21.6697 31.9078L15.7838 38.0281C15.6484 38.1672 15.5574 38.3461 15.523 38.5406C15.4807 38.7343 15.497 38.9369 15.5696 39.1207C15.6473 39.3045 15.7732 39.4619 15.9328 39.5751C16.091 39.6814 16.2752 39.7384 16.4636 39.7395C16.7197 39.7424 16.9668 39.6418 17.1528 39.4591L21.5021 34.9631L21.8373 35.3112L16.5847 40.7644C16.4373 40.9086 16.3366 41.0967 16.2965 41.3028C16.2565 41.5089 16.2791 41.7228 16.3612 41.915C16.4434 42.1077 16.584 42.2673 16.7616 42.3694C16.9045 42.4614 17.0686 42.5115 17.2366 42.5145H17.3204C17.5819 42.5126 17.8325 42.4051 18.0189 42.2147L23.2343 36.7712L23.5789 37.1289L19.0806 41.799C18.9881 41.892 18.9152 42.0039 18.8664 42.1277C18.8222 42.2514 18.8001 42.3825 18.8012 42.5145C18.7998 42.7149 18.8584 42.9109 18.9689 43.0752C19.0723 43.2401 19.2218 43.3683 19.3973 43.4427C19.5157 43.4923 19.6421 43.5186 19.7698 43.52H19.9654C20.1511 43.4794 20.3221 43.3856 20.459 43.2493L22.7221 40.9094C22.9198 40.4882 23.2477 40.1478 23.6534 39.9426L25.0038 38.5502L25.3391 38.8983L24.5382 39.7298H24.6313C24.8174 39.7336 25.0021 39.7629 25.1808 39.8169V39.7298C25.1823 39.449 25.2426 39.1718 25.3577 38.9177L25.4974 39.0627C25.7036 38.5815 26.0842 38.204 26.5566 38.0121C27.0291 37.8203 27.5554 37.8295 28.0213 38.0378C28.1306 37.5982 28.3774 37.2088 28.723 36.9305C29.0685 36.6523 29.4932 36.501 29.9305 36.5005C30.1807 36.5056 30.4274 36.5614 30.6569 36.6648C30.75 36.2908 30.9429 35.9518 31.2135 35.6867C31.4841 35.4216 31.8213 35.2412 32.1864 35.1664C32.5514 35.0917 32.9293 35.1255 33.2766 35.264C33.6239 35.4025 33.9265 35.6401 34.1494 35.9493L34.466 36.3844L37.26 34.0349L35.0993 26.88Z" fill="#DD3333"/>
<path d="M22.1966 41.931C22.1916 41.867 22.1916 41.8027 22.1966 41.7388V41.6L21.5834 42.2514C21.4799 42.3531 21.3977 42.4768 21.3421 42.6144C21.2885 42.7533 21.2612 42.9021 21.2617 43.0522C21.2622 43.27 21.3253 43.4823 21.4427 43.6609C21.5554 43.8486 21.7206 43.9942 21.9151 44.0773C22.0436 44.1288 22.18 44.1541 22.3172 44.1521C22.3872 44.1626 22.4583 44.1626 22.5283 44.1521C22.7287 44.1073 22.9133 44.0037 23.0611 43.8531L23.1817 43.7249C22.7436 43.2031 22.4086 42.593 22.1966 41.931Z" fill="#DD3333"/>
<path d="M35.3486 37.129L35.3398 37.12L35.3486 37.129Z" fill="#676767"/>
<path d="M35.5179 37.4259C35.4706 37.3172 35.4108 37.2145 35.3398 37.12C35.3398 37.1774 35.3867 37.2347 35.4242 37.2825L35.5179 37.4259Z" fill="#676767"/>
<path d="M34.0625 35.84L35.3425 37.76C35.3425 37.712 35.2977 37.6544 35.2619 37.5968L35.0561 37.3088C34.7517 36.8768 34.34 36.3488 34.0625 35.9072V35.84Z" fill="#676767"/>
<path d="M45.5825 21.12H44.246L42.6648 21.5721L40.2366 22.2596L39.8413 22.3726L34.0625 24.0018L34.6366 25.8854L37.7613 35.84H45.5825V21.12ZM44.246 34.4744H38.7307L35.7472 24.9154L44.2178 22.4856L44.246 34.4744Z" fill="#676767"/>
<path d="M35.7432 37.4165L34.3797 35.4815L34.3034 35.3848C34.0758 35.0752 33.7668 34.8372 33.4118 34.698C33.0569 34.5588 32.6704 34.5241 32.2968 34.5979C31.9233 34.6716 31.5778 34.8509 31.3002 35.1151C31.0227 35.3792 30.8242 35.7175 30.7277 36.091C30.4631 35.9793 30.1779 35.9268 29.8915 35.9371C29.6052 35.9473 29.3243 36.0202 29.0682 36.1506C28.8121 36.281 28.5867 36.4659 28.4074 36.6927C28.2281 36.9195 28.0991 37.1829 28.0292 37.4649C27.7199 37.3288 27.3816 37.2745 27.0459 37.3072C26.7103 37.3398 26.3883 37.4584 26.1101 37.6517C25.8319 37.8451 25.6066 38.1069 25.4553 38.4126C25.304 38.7184 25.2316 39.058 25.2449 39.3999V39.487C25.062 39.433 24.8729 39.4037 24.6824 39.3999H24.5679C24.3017 39.3999 24.038 39.4533 23.7922 39.557C23.5463 39.6607 23.323 39.8126 23.1352 40.0041C22.9473 40.1956 22.7986 40.4228 22.6976 40.6728C22.5966 40.9228 22.5452 41.1905 22.5465 41.4607V41.5671C22.5418 41.6251 22.5418 41.6833 22.5465 41.7413C22.7471 42.3427 23.0722 42.8936 23.5 43.357L23.4428 43.299L23.7002 43.5602C23.8875 43.7515 24.1104 43.903 24.356 44.006C24.6015 44.109 24.8648 44.1613 25.1305 44.16H25.2449C25.6616 44.1612 26.0685 44.0317 26.4099 43.7893C26.7513 43.5468 27.0105 43.2032 27.152 42.8055C27.3412 43.0148 27.571 43.1821 27.827 43.297C28.083 43.4119 28.3596 43.4718 28.6395 43.4731C29.0781 43.4642 29.5019 43.3099 29.8462 43.034C30.1905 42.758 30.4364 42.3754 30.5465 41.9445C30.7851 42.0471 31.0407 42.1029 31.2998 42.1089C31.7393 42.0978 32.1632 41.9416 32.5074 41.664C32.8515 41.3864 33.0971 41.0025 33.2068 40.5706C33.5157 40.7046 33.853 40.7571 34.1873 40.7234C34.5216 40.6897 34.842 40.5708 35.1189 40.3777C35.3957 40.1846 35.62 39.9237 35.7708 39.6191C35.9216 39.3145 35.9941 38.9762 35.9816 38.6356V38.4131C35.9841 38.066 35.9022 37.7238 35.7432 37.4165ZM25.9219 42.1476C25.9219 42.2374 25.9044 42.3263 25.8702 42.4091C25.8361 42.4919 25.7861 42.567 25.7231 42.63C25.6601 42.693 25.5854 42.7427 25.5033 42.7761C25.4212 42.8096 25.3334 42.8262 25.2449 42.8249H25.1305C25.0424 42.8262 24.9549 42.8097 24.8731 42.7765C24.7912 42.7433 24.7167 42.694 24.6538 42.6314L24.0912 42.0605C23.964 41.9325 23.892 41.7586 23.891 41.5768V41.4607C23.891 41.3705 23.9085 41.2812 23.9425 41.1978C23.9765 41.1145 24.0264 41.0388 24.0892 40.975C24.1521 40.9112 24.2267 40.8606 24.3089 40.8261C24.391 40.7915 24.479 40.7738 24.5679 40.7738H24.6824C24.7727 40.773 24.8622 40.7906 24.9458 40.8255C25.0293 40.8604 25.1051 40.9119 25.1687 40.9769L25.7217 41.5381C25.7851 41.6012 25.8355 41.6764 25.8699 41.7595C25.9042 41.8426 25.922 41.9318 25.9219 42.0219V42.1476ZM29.2974 41.4607C29.3002 41.6054 29.2573 41.7472 29.1749 41.8653C29.0925 41.9834 28.9751 42.0717 28.8396 42.1171C28.7042 42.1626 28.558 42.1628 28.4225 42.1178C28.287 42.0728 28.1692 41.9849 28.0864 41.8671L26.7324 40.0385C26.6464 39.9209 26.5996 39.7785 26.5989 39.6321V39.3999C26.5989 39.2177 26.6703 39.043 26.7972 38.9142C26.9242 38.7854 27.0964 38.713 27.2759 38.713C27.3816 38.7148 27.4854 38.7411 27.5796 38.7897C27.6738 38.8383 27.7558 38.908 27.8194 38.9936L29.1639 40.8221C29.25 40.9397 29.2967 41.0821 29.2974 41.2285V41.4607ZM32.0054 40.0868C32.0054 40.269 31.9341 40.4438 31.8071 40.5726C31.6802 40.7014 31.5079 40.7738 31.3284 40.7738C31.2228 40.7719 31.1189 40.7457 31.0248 40.6971C30.9306 40.6485 30.8486 40.5787 30.7849 40.4932L29.4404 38.6646C29.3477 38.5501 29.2972 38.4064 29.2974 38.2583V38.0261C29.2974 37.8439 29.3687 37.6691 29.4957 37.5403C29.6226 37.4115 29.7948 37.3391 29.9744 37.3391C30.0804 37.3387 30.1851 37.364 30.2796 37.4128C30.3741 37.4615 30.4558 37.5325 30.5179 37.6197L31.8719 39.4483C31.9579 39.5658 32.0047 39.7082 32.0054 39.8546V40.0868ZM34.7134 38.713C34.7134 38.8952 34.6421 39.0699 34.5151 39.1987C34.3881 39.3275 34.216 39.3999 34.0364 39.3999C33.931 39.4022 33.8267 39.3788 33.7321 39.3317C33.6375 39.2845 33.5555 39.215 33.4929 39.129L32.1103 37.3004C32.0241 37.1793 31.9774 37.0338 31.9768 36.8844V36.6619C31.9754 36.5169 32.0193 36.3751 32.1022 36.257C32.1851 36.1389 32.3027 36.0504 32.4382 36.0042C32.5736 35.958 32.7201 35.9565 32.8564 35.9999C32.9928 36.0433 33.1121 36.1294 33.1973 36.2458L34.5418 38.0744C34.6366 38.1915 34.6873 38.339 34.6848 38.4905L34.7134 38.713Z" fill="#676767"/>
<path d="M15.8252 37.0728C16.013 37.1297 16.2124 37.1352 16.4031 37.089C16.5938 37.0428 16.7691 36.9464 16.9112 36.8096L20.9584 32.8144C21.1574 32.6195 21.4137 32.4957 21.6884 32.4618C21.9632 32.4279 22.2414 32.4856 22.4808 32.6264L24.9499 34.1304C25.3201 34.3532 25.7463 34.462 26.1765 34.4436C26.6067 34.4253 27.0223 34.2805 27.3727 34.027C27.6642 33.8113 27.9005 33.528 28.062 33.201C28.2234 32.8739 28.3054 32.5125 28.3009 32.1469V31.9965C28.2988 31.6197 28.2023 31.2495 28.0205 30.9207C27.8386 30.5919 27.5774 30.3151 27.2613 30.1164L23.2698 27.6064C22.6446 27.2998 21.9594 27.1391 21.2647 27.1364H16.6234L13.5231 25.5665L13.9872 24.0624L10.5898 22.8121L8.56618 22.0601L6.05061 21.12H4.62109V35.7755H10.367L10.7105 34.6569L13.4952 36.349L15.8252 37.0728ZM9.38305 34.4407H5.92065V22.4925L12.3442 24.8614L9.38305 34.4407ZM14.0243 35.1551L11.0539 33.3502L13.0589 26.8356L16.2429 28.4525H21.2462C21.8622 28.452 22.4662 28.6245 22.9913 28.9507L26.5651 31.2163C26.6902 31.2996 26.7935 31.4124 26.8663 31.545C26.939 31.6776 26.979 31.8261 26.9828 31.9777V32.2127C26.9718 32.3673 26.9233 32.5168 26.8414 32.6478C26.7596 32.7788 26.6471 32.8873 26.5139 32.9636C26.3806 33.0399 26.2308 33.0816 26.0778 33.0851C25.9248 33.0886 25.7733 33.0537 25.6368 32.9836L23.1677 31.4795C22.6743 31.1937 22.1026 31.0777 21.5386 31.1489C20.9745 31.2201 20.4485 31.4746 20.0394 31.8743L16.2522 35.7098L14.0243 35.1551Z" fill="#676767"/>
</g>
<defs>
<clipPath id="clip0_3370_10195">
<rect width="40.96" height="23.04" fill="white" transform="translate(4.62109 21.12)"/>
</clipPath>
</defs>
</svg>
