<svg width="48" height="48" viewBox="0 0 48 48" fill="none" xmlns="http://www.w3.org/2000/svg">
<rect width="48" height="48" fill="white"/>
<path d="M39.6319 4.00001C38.7334 4.00367 37.858 4.28019 37.1257 4.79167C36.3935 5.30315 35.8402 6.02456 35.5416 6.85703H16.3629C15.9772 6.85703 15.6073 7.00754 15.3346 7.27543C15.0618 7.54333 14.9086 7.90667 14.9086 8.28554C14.9086 8.6644 15.0618 9.02775 15.3346 9.29564C15.6073 9.56354 15.9772 9.71404 16.3629 9.71404H35.528C35.7475 10.3116 36.0989 10.854 36.557 11.3025C37.0151 11.7509 37.5685 12.0942 38.1776 12.3077V35.6906C37.57 35.9041 37.0184 36.2475 36.5625 36.696C36.1066 37.1446 35.758 37.6871 35.5416 38.2842H13.4543C13.0686 38.2842 12.6987 38.4347 12.426 38.7026C12.1532 38.9705 12 39.3338 12 39.7127C12 40.0916 12.1532 40.4549 12.426 40.7228C12.6987 40.9907 13.0686 41.1412 13.4543 41.1412H35.5416C35.7855 41.8235 36.2015 42.4338 36.7508 42.9152C37.3002 43.3965 37.9648 43.7331 38.6826 43.8935C39.4004 44.0539 40.1479 44.0328 40.8551 43.8323C41.5624 43.6317 42.2063 43.2582 42.7266 42.7467C43.2469 42.2352 43.6266 41.6024 43.8302 40.9076C44.0338 40.2127 44.0547 39.4785 43.8908 38.7735C43.7269 38.0686 43.3837 37.416 42.8932 36.8769C42.4027 36.3377 41.781 35.9295 41.0862 35.6906V12.3077C42.0562 11.9727 42.8742 11.3112 43.3951 10.4404C43.916 9.56961 44.1062 8.54577 43.932 7.55038C43.7577 6.555 43.2303 5.65237 42.4432 5.00249C41.6561 4.35261 40.6601 3.99747 39.6319 4.00001Z" stroke="#676767" stroke-miterlimit="10"/>
<path d="M9.0004 32C7.57088 32.0027 6.17585 32.4592 5 33.3091L8.04203 39.353C8.24409 39.7545 8.60747 40 9.0004 40C9.39333 40 9.75671 39.7545 9.95877 39.353L13 33.3091C11.8246 32.459 10.4297 32.0025 9.0004 32Z" stroke="#676767" stroke-miterlimit="10"/>
<path d="M9 5.00311C8.47528 5.00249 7.95558 5.11425 7.47058 5.33198C6.98558 5.54971 6.54478 5.86916 6.17335 6.2721C5.80191 6.67503 5.50712 7.15354 5.30579 7.68033C5.10447 8.20711 5.00056 8.77185 5 9.34229V10C6.19306 9.166 7.58157 8.72257 9 8.72257C10.4184 8.72257 11.8069 9.166 13 10V9.33918C12.9994 8.76874 12.8955 8.204 12.6942 7.67722C12.4929 7.15044 12.1981 6.67192 11.8267 6.26899C11.4552 5.86606 11.0144 5.54661 10.5294 5.32888C10.0444 5.11114 9.52472 4.99939 9 5" stroke="#676767" stroke-miterlimit="10"/>
<path d="M34.3292 25.6322L32.6502 24.7032C32.7488 24.2407 32.7488 23.7626 32.6502 23.3L34.3316 22.371C34.4825 22.2912 34.6155 22.1814 34.7225 22.0483C34.8296 21.9153 34.9084 21.7619 34.9541 21.5974C34.9998 21.4329 35.0116 21.2608 34.9885 21.0917C34.9655 20.9225 34.9083 20.7598 34.8202 20.6135L33.4756 18.3859C33.2877 18.0875 32.9926 17.8724 32.651 17.785C32.3094 17.6975 31.9472 17.7443 31.6391 17.9157L29.9697 18.8375C29.5678 18.5554 29.0301 18.3063 28.5704 18.1142V16.286C28.5731 16.1164 28.5417 15.9479 28.478 15.7907C28.4144 15.6335 28.3198 15.4907 28.1998 15.3707C28.0798 15.2508 27.937 15.1562 27.7797 15.0925C27.6225 15.0289 27.454 14.9974 27.2844 15.0002H24.7125C24.5428 14.9974 24.3744 15.0289 24.2171 15.0925C24.0599 15.1562 23.9171 15.2508 23.7971 15.3707C23.6771 15.4907 23.5825 15.6335 23.5188 15.7907C23.4552 15.9479 23.4238 16.1164 23.4265 16.286V18.1142C22.9668 18.3071 22.4266 18.5562 22.0272 18.8375L20.3578 17.9157C20.0497 17.7443 19.6875 17.6975 19.3459 17.785C19.0043 17.8724 18.7092 18.0875 18.5213 18.3859L17.1782 20.6135C17.0906 20.7599 17.0337 20.9227 17.0111 21.0918C16.9885 21.2609 17.0005 21.4329 17.0466 21.5972C17.0926 21.7615 17.1716 21.9148 17.2788 22.0475C17.386 22.1803 17.5192 22.2898 17.6701 22.3694L19.3523 23.2984C19.2538 23.761 19.2538 24.239 19.3523 24.7016L17.6701 25.6306C17.5192 25.7102 17.386 25.8197 17.2788 25.9525C17.1716 26.0852 17.0926 26.2384 17.0466 26.4028C17.0005 26.5671 16.9885 26.7391 17.0111 26.9082C17.0337 27.0773 17.0906 27.2401 17.1782 27.3865L18.5229 29.6141C18.7108 29.9125 19.0059 30.1276 19.3475 30.215C19.6891 30.3025 20.0513 30.2557 20.3594 30.0843L22.0288 29.1625C22.4307 29.4438 22.9684 29.6937 23.4281 29.8858V31.714C23.4254 31.8836 23.4568 32.0521 23.5205 32.2093C23.5841 32.3665 23.6787 32.5093 23.7987 32.6293C23.9187 32.7492 24.0615 32.8438 24.2188 32.9075C24.376 32.9711 24.5444 33.0026 24.7141 32.9998H27.286C27.4557 33.0026 27.6241 32.9711 27.7813 32.9075C27.9386 32.8438 28.0814 32.7492 28.2014 32.6293C28.3214 32.5093 28.416 32.3665 28.4796 32.2093C28.5433 32.0521 28.5747 31.8836 28.572 31.714V29.8858C29.0317 29.6929 29.5719 29.443 29.9713 29.1625L31.6407 30.0843C31.9488 30.2557 32.311 30.3025 32.6526 30.215C32.9942 30.1276 33.2893 29.9125 33.4772 29.6141L34.8202 27.3881C34.9079 27.2417 34.9648 27.079 34.9875 26.9099C35.0102 26.7408 34.9982 26.5689 34.9523 26.4046C34.9063 26.2403 34.8274 26.087 34.7202 25.9542C34.6131 25.8214 34.4801 25.7118 34.3292 25.6322ZM26.0001 27.859C25.237 27.859 24.4911 27.6328 23.8567 27.2089C23.2223 26.7851 22.7278 26.1826 22.4358 25.4778C22.1438 24.7729 22.0674 23.9973 22.2162 23.2491C22.3651 22.5008 22.7325 21.8135 23.2721 21.274C23.8116 20.7345 24.499 20.3671 25.2474 20.2183C25.9958 20.0695 26.7715 20.1459 27.4764 20.4378C28.1814 20.7298 28.7839 21.2242 29.2078 21.8585C29.6317 22.4929 29.858 23.2387 29.858 24.0016C29.858 25.0247 29.4515 26.0058 28.728 26.7292C28.0045 27.4526 27.0232 27.859 26.0001 27.859Z" fill="#DD3333"/>
<path d="M9 29.8645C10.4544 29.8645 11.7931 30.2649 13 31V12.1702C11.7974 11.4051 10.4126 11 9 11C7.58741 11 6.20259 11.4051 5 12.1702V31C6.2055 30.2642 7.54414 29.8645 9 29.8645Z" stroke="#676767" stroke-miterlimit="10"/>
</svg>
