<svg width="81" height="76" viewBox="0 0 81 76" fill="none" xmlns="http://www.w3.org/2000/svg">
<path d="M72.8348 71.4131H4.86153C3.70184 71.4131 2.76172 72.2012 2.76172 73.1734C2.76172 74.1456 3.70184 74.9337 4.86153 74.9337H72.8348C73.9945 74.9337 74.9346 74.1456 74.9346 73.1734C74.9346 72.2012 73.9945 71.4131 72.8348 71.4131Z" stroke="#676767" stroke-width="2" stroke-miterlimit="10" stroke-linecap="round"/>
<path d="M22.1233 69.6525H22.1068C22.0457 68.6971 21.6491 67.8023 20.9971 67.1488C20.3451 66.4953 19.4864 66.1318 18.5944 66.1318C17.7024 66.1318 16.8437 66.4953 16.1917 67.1488C15.5397 67.8023 15.1431 68.6971 15.082 69.6525" stroke="#676767" stroke-width="2" stroke-miterlimit="10" stroke-linecap="round"/>
<path d="M45.0061 69.6525H44.9772C44.9162 68.6971 44.5204 67.8023 43.8695 67.1488C43.2187 66.4953 42.3615 66.1318 41.471 66.1318C40.5806 66.1318 39.7234 66.4953 39.0726 67.1488C38.4217 67.8023 38.0258 68.6971 37.9648 69.6525" stroke="#676767" stroke-width="2" stroke-miterlimit="10" stroke-linecap="round"/>
<path d="M67.8928 69.6525H67.8763C67.9093 69.2018 67.8431 68.7496 67.6817 68.3239C67.5204 67.8983 67.2673 67.5083 66.9383 67.1781C66.6093 66.8479 66.2114 66.5847 65.7692 66.4047C65.3271 66.2247 64.8501 66.1318 64.3681 66.1318C63.886 66.1318 63.409 66.2247 62.9669 66.4047C62.5247 66.5847 62.1268 66.8479 61.7978 67.1781C61.4688 67.5083 61.2157 67.8983 61.0544 68.3239C60.893 68.7496 60.8268 69.2018 60.8598 69.6525" stroke="#676767" stroke-width="2" stroke-miterlimit="10" stroke-linecap="round"/>
<path d="M64.3672 48.5283V66.1315" stroke="#676767" stroke-width="2" stroke-miterlimit="10" stroke-linecap="round"/>
<path d="M41.4922 48.5283V66.1315" stroke="#676767" stroke-width="2" stroke-miterlimit="10" stroke-linecap="round"/>
<path d="M18.6055 48.5283V66.1315" stroke="#676767" stroke-width="2" stroke-miterlimit="10" stroke-linecap="round"/>
<path fill-rule="evenodd" clip-rule="evenodd" d="M74.7198 41.9295L55.9179 61.9065C55.492 62.3576 54.9152 62.6109 54.3139 62.6109C53.7125 62.6109 53.1357 62.3576 52.7098 61.9065C52.2853 61.454 52.0469 60.8412 52.0469 60.2022C52.0469 59.5633 52.2853 58.9504 52.7098 58.4979L76.3409 33.3899C76.7667 32.9388 77.3436 32.6855 77.9449 32.6855C78.5463 32.6855 79.1231 32.9388 79.549 33.3899C79.9735 33.8424 80.2119 34.4553 80.2119 35.0942C80.2119 35.7331 79.9735 36.346 79.549 36.7985L77.9662 38.4802" fill="#DD3333"/>
<path d="M27.0607 57.2361C26.16 58.1424 26.2658 59.7131 27.297 60.7442C28.3281 61.7754 29.8942 61.8766 30.7949 60.9703L54.832 36.7833C55.7327 35.877 55.6269 34.3063 54.5958 33.2752C53.5646 32.244 51.9985 32.1428 51.0978 33.0491L27.0607 57.2361Z" fill="#DD3333"/>
<path fill-rule="evenodd" clip-rule="evenodd" d="M10.9218 52.404L28.8174 33.3899C29.2433 32.9388 29.8201 32.6855 30.4215 32.6855C31.0228 32.6855 31.5996 32.9388 32.0255 33.3899C32.4501 33.8424 32.6885 34.4553 32.6885 35.0942C32.6885 35.7331 32.4501 36.346 32.0255 36.7985L8.39448 61.9065C7.9686 62.3576 7.39178 62.6109 6.79043 62.6109C6.18908 62.6109 5.61227 62.3576 5.18638 61.9065C4.76183 61.454 4.52344 60.8412 4.52344 60.2022C4.52344 59.5633 4.76183 58.9504 5.18638 58.4979L8.06686 55.4374" fill="#DD3333"/>
<path d="M25.6484 25.6445L27.4088 27.4048" stroke="#676767" stroke-width="2" stroke-miterlimit="10" stroke-linecap="round"/>
<path d="M29.1641 16.8428H32.6847" stroke="#676767" stroke-width="2" stroke-miterlimit="10" stroke-linecap="round"/>
<path d="M25.6484 8.04156L27.4088 6.28125" stroke="#676767" stroke-width="2" stroke-miterlimit="10" stroke-linecap="round"/>
<path d="M16.8438 4.52063V1" stroke="#676767" stroke-width="2" stroke-miterlimit="10" stroke-linecap="round"/>
<path d="M8.03766 8.04156L6.27734 6.28125" stroke="#676767" stroke-width="2" stroke-miterlimit="10" stroke-linecap="round"/>
<path d="M4.52063 16.8428H1" stroke="#676767" stroke-width="2" stroke-miterlimit="10" stroke-linecap="round"/>
<path d="M8.03766 25.6445L6.27734 27.4048" stroke="#676767" stroke-width="2" stroke-miterlimit="10" stroke-linecap="round"/>
<path d="M16.8438 29.165V32.6857" stroke="#676767" stroke-width="2" stroke-miterlimit="10" stroke-linecap="round"/>
<path d="M16.8509 9.80176C18.5126 9.80292 20.1203 10.3917 21.3897 11.4641C22.6591 12.5364 23.5084 14.0231 23.7873 15.6612C24.0662 17.2993 23.7568 18.9833 22.9137 20.4153C22.0707 21.8473 20.7484 22.9349 19.1807 23.4859C17.613 24.0369 15.9009 24.0157 14.3474 23.4261C12.7938 22.8364 11.4988 21.7163 10.6915 20.2639C9.88423 18.8115 9.6166 17.1204 9.93599 15.4896C10.2554 13.8589 11.1412 12.3937 12.4368 11.3531" stroke="#676767" stroke-width="2" stroke-miterlimit="10" stroke-linecap="round"/>
</svg>
