<svg width="645" height="89" viewBox="0 0 645 89" fill="none" xmlns="http://www.w3.org/2000/svg">
<path d="M4.10156 48H1.17827L12.2898 17.4545H15.2727L26.3842 48H23.4609L13.8857 21.0788H13.6768L4.10156 48ZM6.20455 36.2919H21.358V38.7976H6.20455V36.2919ZM36.6259 48.522C35.2438 48.522 33.981 48.2536 32.8376 47.7166C31.6941 47.1697 30.7843 46.3842 30.1082 45.3601C29.432 44.326 29.0939 43.0732 29.0939 41.6016C29.0939 40.468 29.3077 39.5135 29.7353 38.7379C30.1628 37.9624 30.7694 37.326 31.5549 36.8288C32.3404 36.3317 33.2701 35.9389 34.3439 35.6506C35.4178 35.3622 36.6011 35.1385 37.8937 34.9794C39.1763 34.8203 40.2601 34.6811 41.1451 34.5618C42.04 34.4425 42.7211 34.2536 43.1884 33.995C43.6557 33.7365 43.8894 33.3189 43.8894 32.7422V32.2053C43.8894 30.6442 43.4221 29.4162 42.4874 28.5213C41.5627 27.6165 40.2303 27.1641 38.4903 27.1641C36.8397 27.1641 35.4924 27.527 34.4484 28.2528C33.4143 28.9787 32.6884 29.8338 32.2708 30.8182L29.7502 29.9084C30.2672 28.6555 30.9832 27.6562 31.8979 26.9105C32.8127 26.1548 33.8368 25.6129 34.9704 25.2848C36.1039 24.9467 37.2523 24.7777 38.4157 24.7777C39.2907 24.7777 40.2005 24.892 41.1451 25.1207C42.0996 25.3494 42.9846 25.7472 43.7999 26.3139C44.6153 26.8707 45.2765 27.6513 45.7836 28.6555C46.2907 29.6499 46.5442 30.9126 46.5442 32.4439V48H43.8894V44.3757H43.7253C43.4072 45.0518 42.9349 45.7081 42.3084 46.3445C41.682 46.9808 40.8965 47.5028 39.9519 47.9105C39.0073 48.3182 37.8986 48.522 36.6259 48.522ZM36.9839 46.0909C38.3958 46.0909 39.6188 45.7777 40.6529 45.1513C41.687 44.5249 42.4824 43.6946 43.0393 42.6605C43.606 41.6165 43.8894 40.468 43.8894 39.2152V35.9041C43.6905 36.093 43.3574 36.2621 42.8901 36.4112C42.4327 36.5604 41.9008 36.6946 41.2942 36.8139C40.6976 36.9233 40.1011 37.0178 39.5045 37.0973C38.9079 37.1768 38.3709 37.2464 37.8937 37.3061C36.6011 37.4652 35.4974 37.7138 34.5826 38.0518C33.6678 38.3899 32.9668 38.8572 32.4796 39.4538C31.9924 40.0405 31.7488 40.7962 31.7488 41.7209C31.7488 43.1129 32.2459 44.1918 33.2403 44.9574C34.2346 45.7131 35.4824 46.0909 36.9839 46.0909Z" fill="#333333"/>
<path d="M4.914 85V77.09L5.586 77.16L2.254 81.234L2.1 80.982H8.33V82.564H1.12L0.364 81.108L5.236 75.172H6.664V85H4.914ZM9.74728 85L9.28528 83.852L12.2253 80.562C12.3933 80.394 12.5659 80.2027 12.7433 79.988C12.9206 79.764 13.0886 79.5353 13.2473 79.302C13.4153 79.0593 13.5506 78.826 13.6533 78.602C13.7559 78.3687 13.8073 78.154 13.8073 77.958C13.8073 77.706 13.7513 77.4867 13.6393 77.3C13.5366 77.1133 13.3873 76.9687 13.1913 76.866C12.9953 76.7633 12.7526 76.712 12.4633 76.712C12.2113 76.712 11.9639 76.7867 11.7213 76.936C11.4879 77.076 11.2686 77.2813 11.0633 77.552C10.8673 77.8133 10.7039 78.126 10.5733 78.49L9.20128 77.678C9.36928 77.1367 9.62128 76.67 9.95728 76.278C10.3026 75.8767 10.7039 75.5687 11.1613 75.354C11.6279 75.1393 12.1319 75.032 12.6733 75.032C13.2333 75.032 13.7326 75.1487 14.1713 75.382C14.6099 75.6153 14.9553 75.9373 15.2073 76.348C15.4686 76.7587 15.5993 77.2393 15.5993 77.79C15.5993 77.9953 15.5759 78.21 15.5293 78.434C15.4826 78.6487 15.4079 78.8773 15.3053 79.12C15.2119 79.3533 15.0859 79.6007 14.9273 79.862C14.7686 80.114 14.5773 80.38 14.3533 80.66C14.1386 80.94 13.8913 81.234 13.6113 81.542L11.3853 83.964L11.1053 83.32H15.9493V85H9.74728ZM17.2912 88.08V77.622H18.9852L19.0132 79.302L18.7192 79.176C18.7752 78.8867 18.9339 78.616 19.1952 78.364C19.4565 78.1027 19.7739 77.8927 20.1472 77.734C20.5299 77.5753 20.9265 77.496 21.3372 77.496C21.9905 77.496 22.5692 77.6593 23.0732 77.986C23.5865 78.3127 23.9879 78.7607 24.2772 79.33C24.5759 79.8993 24.7252 80.5573 24.7252 81.304C24.7252 82.0413 24.5759 82.6993 24.2772 83.278C23.9879 83.8473 23.5865 84.3 23.0732 84.636C22.5692 84.9627 21.9999 85.126 21.3652 85.126C20.9359 85.126 20.5205 85.042 20.1192 84.874C19.7272 84.706 19.3912 84.4867 19.1112 84.216C18.8405 83.9453 18.6725 83.6607 18.6072 83.362L19.0272 83.166V88.08H17.2912ZM21.0152 83.6C21.4072 83.6 21.7572 83.502 22.0652 83.306C22.3732 83.11 22.6112 82.8393 22.7792 82.494C22.9565 82.1487 23.0452 81.752 23.0452 81.304C23.0452 80.856 22.9612 80.464 22.7932 80.128C22.6252 79.7827 22.3872 79.512 22.0792 79.316C21.7712 79.12 21.4165 79.022 21.0152 79.022C20.6045 79.022 20.2452 79.12 19.9372 79.316C19.6385 79.5027 19.4005 79.7687 19.2232 80.114C19.0459 80.4593 18.9572 80.856 18.9572 81.304C18.9572 81.752 19.0459 82.1487 19.2232 82.494C19.4005 82.8393 19.6385 83.11 19.9372 83.306C20.2452 83.502 20.6045 83.6 21.0152 83.6ZM30.7605 85L28.6605 82.158L28.2685 81.626L25.2305 77.622H27.3585L29.4025 80.394L29.8365 80.982L32.8465 85H30.7605ZM25.2165 85L28.1425 81.08L29.1225 82.256L27.2465 85H25.2165ZM29.8365 81.556L28.8985 80.394L30.5925 77.622H32.6225L29.8365 81.556Z" fill="#333333"/>
<rect y="61" width="80" height="1" fill="#333333"/>
<path d="M116.32 45H113.954L122.949 20.2727H125.364L134.359 45H131.992L124.241 23.2067H124.072L116.32 45ZM118.023 35.522H130.29V37.5504H118.023V35.522ZM143.33 45.4226C142.211 45.4226 141.188 45.2053 140.263 44.7706C139.337 44.3279 138.601 43.692 138.053 42.8629C137.506 42.0258 137.232 41.0116 137.232 39.8203C137.232 38.9027 137.405 38.13 137.751 37.5021C138.098 36.8743 138.589 36.3591 139.224 35.9567C139.86 35.5542 140.613 35.2363 141.482 35.0028C142.352 34.7694 143.309 34.5883 144.356 34.4595C145.394 34.3307 146.272 34.218 146.988 34.1214C147.712 34.0249 148.264 33.8719 148.642 33.6626C149.02 33.4534 149.21 33.1153 149.21 32.6484V32.2138C149.21 30.95 148.831 29.956 148.075 29.2315C147.326 28.4991 146.247 28.1328 144.839 28.1328C143.503 28.1328 142.412 28.4266 141.567 29.0142C140.73 29.6018 140.142 30.294 139.804 31.0909L137.763 30.3544C138.182 29.3402 138.762 28.5312 139.502 27.9276C140.243 27.3158 141.072 26.8771 141.989 26.6115C142.907 26.3378 143.837 26.201 144.778 26.201C145.487 26.201 146.223 26.2936 146.988 26.4787C147.761 26.6638 148.477 26.9858 149.137 27.4446C149.797 27.8954 150.332 28.5272 150.743 29.3402C151.153 30.1451 151.359 31.1674 151.359 32.407V45H149.21V42.0661H149.077C148.819 42.6134 148.437 43.1446 147.93 43.6598C147.423 44.175 146.787 44.5975 146.022 44.9276C145.257 45.2576 144.36 45.4226 143.33 45.4226ZM143.619 43.4545C144.762 43.4545 145.752 43.201 146.589 42.6939C147.427 42.1868 148.071 41.5147 148.521 40.6776C148.98 39.8324 149.21 38.9027 149.21 37.8885V35.2081C149.049 35.361 148.779 35.4979 148.401 35.6186C148.03 35.7393 147.6 35.848 147.109 35.9446C146.626 36.0331 146.143 36.1096 145.66 36.174C145.177 36.2384 144.742 36.2947 144.356 36.343C143.309 36.4718 142.416 36.6731 141.675 36.9467C140.935 37.2204 140.367 37.5987 139.973 38.0817C139.579 38.5566 139.381 39.1683 139.381 39.9169C139.381 41.0438 139.784 41.9171 140.589 42.5369C141.394 43.1487 142.404 43.4545 143.619 43.4545Z" fill="#333333"/>
<path d="M116.696 85.14C115.968 85.14 115.333 84.9813 114.792 84.664C114.251 84.3373 113.751 83.7867 113.294 83.012L114.666 82.144C114.881 82.4893 115.1 82.7693 115.324 82.984C115.557 83.1893 115.791 83.3433 116.024 83.446C116.267 83.5393 116.523 83.586 116.794 83.586C117.102 83.586 117.382 83.5113 117.634 83.362C117.895 83.2127 118.101 83.0073 118.25 82.746C118.409 82.4847 118.488 82.186 118.488 81.85C118.488 81.514 118.423 81.2293 118.292 80.996C118.171 80.7627 117.989 80.5853 117.746 80.464C117.513 80.3333 117.228 80.268 116.892 80.268C116.743 80.268 116.584 80.2867 116.416 80.324C116.248 80.352 116.071 80.3987 115.884 80.464C115.697 80.52 115.492 80.59 115.268 80.674L114.82 79.484L117.606 76.404L118.026 76.81L113.896 76.782V75.172H119.65L119.986 75.844L116.766 79.358L116.346 78.896C116.421 78.8587 116.542 78.826 116.71 78.798C116.887 78.7607 117.041 78.742 117.172 78.742C117.583 78.742 117.975 78.8213 118.348 78.98C118.721 79.1293 119.043 79.344 119.314 79.624C119.594 79.904 119.813 80.2307 119.972 80.604C120.131 80.968 120.21 81.3647 120.21 81.794C120.21 82.438 120.051 83.012 119.734 83.516C119.426 84.0107 119.006 84.4073 118.474 84.706C117.942 84.9953 117.349 85.14 116.696 85.14ZM125.625 85V77.09L126.297 77.16L122.965 81.234L122.811 80.982H129.041V82.564H121.831L121.075 81.108L125.947 75.172H127.375V85H125.625ZM130.606 88.08V77.622H132.3L132.328 79.302L132.034 79.176C132.09 78.8867 132.248 78.616 132.51 78.364C132.771 78.1027 133.088 77.8927 133.462 77.734C133.844 77.5753 134.241 77.496 134.652 77.496C135.305 77.496 135.884 77.6593 136.388 77.986C136.901 78.3127 137.302 78.7607 137.592 79.33C137.89 79.8993 138.04 80.5573 138.04 81.304C138.04 82.0413 137.89 82.6993 137.592 83.278C137.302 83.8473 136.901 84.3 136.388 84.636C135.884 84.9627 135.314 85.126 134.68 85.126C134.25 85.126 133.835 85.042 133.434 84.874C133.042 84.706 132.706 84.4867 132.426 84.216C132.155 83.9453 131.987 83.6607 131.922 83.362L132.342 83.166V88.08H130.606ZM134.33 83.6C134.722 83.6 135.072 83.502 135.38 83.306C135.688 83.11 135.926 82.8393 136.094 82.494C136.271 82.1487 136.36 81.752 136.36 81.304C136.36 80.856 136.276 80.464 136.108 80.128C135.94 79.7827 135.702 79.512 135.394 79.316C135.086 79.12 134.731 79.022 134.33 79.022C133.919 79.022 133.56 79.12 133.252 79.316C132.953 79.5027 132.715 79.7687 132.538 80.114C132.36 80.4593 132.272 80.856 132.272 81.304C132.272 81.752 132.36 82.1487 132.538 82.494C132.715 82.8393 132.953 83.11 133.252 83.306C133.56 83.502 133.919 83.6 134.33 83.6ZM144.075 85L141.975 82.158L141.583 81.626L138.545 77.622H140.673L142.717 80.394L143.151 80.982L146.161 85H144.075ZM138.531 85L141.457 81.08L142.437 82.256L140.561 85H138.531ZM143.151 81.556L142.213 80.394L143.907 77.622H145.937L143.151 81.556Z" fill="#333333"/>
<rect x="113" y="61" width="80" height="1" fill="#333333"/>
<path d="M228.734 49H226.786L234.193 28.6364H236.182L243.589 49H241.641L235.257 31.0526H235.118L228.734 49ZM230.136 41.1946H240.239V42.8651H230.136V41.1946ZM250.977 49.348C250.056 49.348 249.214 49.169 248.452 48.8111C247.689 48.4465 247.083 47.9228 246.632 47.2401C246.181 46.5507 245.956 45.7154 245.956 44.7344C245.956 43.9787 246.098 43.3423 246.384 42.8253C246.669 42.3082 247.073 41.884 247.597 41.5526C248.12 41.2211 248.74 40.9593 249.456 40.767C250.172 40.5748 250.961 40.4257 251.822 40.3196C252.678 40.2135 253.4 40.1207 253.99 40.0412C254.587 39.9616 255.041 39.8357 255.352 39.6634C255.664 39.491 255.82 39.2126 255.82 38.8281V38.4702C255.82 37.4295 255.508 36.6108 254.885 36.0142C254.268 35.411 253.38 35.1094 252.22 35.1094C251.12 35.1094 250.222 35.3513 249.526 35.8352C248.836 36.3191 248.352 36.8892 248.074 37.5455L246.393 36.9389C246.738 36.1037 247.215 35.4375 247.825 34.9403C248.435 34.4366 249.118 34.0753 249.874 33.8565C250.629 33.6312 251.395 33.5185 252.17 33.5185C252.754 33.5185 253.36 33.5947 253.99 33.7472C254.626 33.8996 255.216 34.1648 255.76 34.5426C256.304 34.9138 256.744 35.4342 257.082 36.1037C257.42 36.7666 257.589 37.6084 257.589 38.6293V49H255.82V46.5838H255.71C255.498 47.0346 255.183 47.4721 254.766 47.8963C254.348 48.3205 253.824 48.6686 253.195 48.9403C252.565 49.2121 251.826 49.348 250.977 49.348ZM251.216 47.7273C252.157 47.7273 252.973 47.5185 253.662 47.1009C254.351 46.6832 254.882 46.1297 255.253 45.4403C255.631 44.7443 255.82 43.9787 255.82 43.1435V40.9361C255.687 41.062 255.465 41.1747 255.153 41.2741C254.848 41.3736 254.494 41.4631 254.089 41.5426C253.692 41.6155 253.294 41.6785 252.896 41.7315C252.499 41.7846 252.141 41.831 251.822 41.8707C250.961 41.9768 250.225 42.1425 249.615 42.3679C249.005 42.5933 248.538 42.9048 248.213 43.3026C247.888 43.6937 247.726 44.1974 247.726 44.8139C247.726 45.742 248.057 46.4612 248.72 46.9716C249.383 47.4754 250.215 47.7273 251.216 47.7273Z" fill="#333333"/>
<path d="M227.134 85L226.672 83.852L229.612 80.562C229.78 80.394 229.953 80.2027 230.13 79.988C230.307 79.764 230.475 79.5353 230.634 79.302C230.802 79.0593 230.937 78.826 231.04 78.602C231.143 78.3687 231.194 78.154 231.194 77.958C231.194 77.706 231.138 77.4867 231.026 77.3C230.923 77.1133 230.774 76.9687 230.578 76.866C230.382 76.7633 230.139 76.712 229.85 76.712C229.598 76.712 229.351 76.7867 229.108 76.936C228.875 77.076 228.655 77.2813 228.45 77.552C228.254 77.8133 228.091 78.126 227.96 78.49L226.588 77.678C226.756 77.1367 227.008 76.67 227.344 76.278C227.689 75.8767 228.091 75.5687 228.548 75.354C229.015 75.1393 229.519 75.032 230.06 75.032C230.62 75.032 231.119 75.1487 231.558 75.382C231.997 75.6153 232.342 75.9373 232.594 76.348C232.855 76.7587 232.986 77.2393 232.986 77.79C232.986 77.9953 232.963 78.21 232.916 78.434C232.869 78.6487 232.795 78.8773 232.692 79.12C232.599 79.3533 232.473 79.6007 232.314 79.862C232.155 80.114 231.964 80.38 231.74 80.66C231.525 80.94 231.278 81.234 230.998 81.542L228.772 83.964L228.492 83.32H233.336V85H227.134ZM237.758 85.042C237.133 85.042 236.559 84.916 236.036 84.664C235.523 84.4027 235.112 84.0573 234.804 83.628C234.496 83.1893 234.342 82.704 234.342 82.172C234.342 81.8547 234.384 81.5607 234.468 81.29C234.561 81.0193 234.692 80.7767 234.86 80.562C235.037 80.3473 235.247 80.156 235.49 79.988C235.742 79.8107 236.027 79.6567 236.344 79.526L236.232 79.918C235.989 79.8153 235.765 79.694 235.56 79.554C235.364 79.414 235.191 79.2553 235.042 79.078C234.902 78.8913 234.795 78.6953 234.72 78.49C234.645 78.2753 234.608 78.0513 234.608 77.818C234.608 77.314 234.748 76.8613 235.028 76.46C235.317 76.0587 235.7 75.7413 236.176 75.508C236.652 75.2653 237.179 75.144 237.758 75.144C238.346 75.144 238.878 75.2653 239.354 75.508C239.83 75.7413 240.208 76.0587 240.488 76.46C240.777 76.8613 240.922 77.314 240.922 77.818C240.922 78.0513 240.885 78.2753 240.81 78.49C240.735 78.6953 240.628 78.8867 240.488 79.064C240.357 79.232 240.189 79.3907 239.984 79.54C239.779 79.68 239.541 79.806 239.27 79.918L239.2 79.582C239.499 79.6847 239.769 79.82 240.012 79.988C240.255 80.156 240.465 80.352 240.642 80.576C240.819 80.8 240.955 81.0473 241.048 81.318C241.151 81.5887 241.202 81.8733 241.202 82.172C241.202 82.7133 241.048 83.2033 240.74 83.642C240.432 84.0713 240.017 84.412 239.494 84.664C238.981 84.916 238.402 85.042 237.758 85.042ZM237.758 83.474C238.075 83.474 238.36 83.4133 238.612 83.292C238.864 83.1707 239.06 83.0073 239.2 82.802C239.349 82.5967 239.424 82.3587 239.424 82.088C239.424 81.7987 239.349 81.5467 239.2 81.332C239.06 81.108 238.864 80.9353 238.612 80.814C238.36 80.6833 238.075 80.618 237.758 80.618C237.45 80.618 237.17 80.6833 236.918 80.814C236.675 80.9353 236.479 81.108 236.33 81.332C236.181 81.5467 236.106 81.7987 236.106 82.088C236.106 82.3493 236.181 82.5827 236.33 82.788C236.479 82.9933 236.675 83.1613 236.918 83.292C237.17 83.4133 237.45 83.474 237.758 83.474ZM237.758 79.078C238.038 79.078 238.285 79.0267 238.5 78.924C238.724 78.8213 238.897 78.6813 239.018 78.504C239.139 78.3267 239.2 78.1213 239.2 77.888C239.2 77.6453 239.139 77.4353 239.018 77.258C238.897 77.0713 238.724 76.9267 238.5 76.824C238.285 76.712 238.038 76.656 237.758 76.656C237.487 76.656 237.24 76.712 237.016 76.824C236.801 76.9267 236.633 77.0713 236.512 77.258C236.391 77.4353 236.33 77.6453 236.33 77.888C236.33 78.1213 236.391 78.3267 236.512 78.504C236.633 78.6813 236.801 78.8213 237.016 78.924C237.24 79.0267 237.487 79.078 237.758 79.078ZM242.881 88.08V77.622H244.575L244.603 79.302L244.309 79.176C244.365 78.8867 244.524 78.616 244.785 78.364C245.046 78.1027 245.364 77.8927 245.737 77.734C246.12 77.5753 246.516 77.496 246.927 77.496C247.58 77.496 248.159 77.6593 248.663 77.986C249.176 78.3127 249.578 78.7607 249.867 79.33C250.166 79.8993 250.315 80.5573 250.315 81.304C250.315 82.0413 250.166 82.6993 249.867 83.278C249.578 83.8473 249.176 84.3 248.663 84.636C248.159 84.9627 247.59 85.126 246.955 85.126C246.526 85.126 246.11 85.042 245.709 84.874C245.317 84.706 244.981 84.4867 244.701 84.216C244.43 83.9453 244.262 83.6607 244.197 83.362L244.617 83.166V88.08H242.881ZM246.605 83.6C246.997 83.6 247.347 83.502 247.655 83.306C247.963 83.11 248.201 82.8393 248.369 82.494C248.546 82.1487 248.635 81.752 248.635 81.304C248.635 80.856 248.551 80.464 248.383 80.128C248.215 79.7827 247.977 79.512 247.669 79.316C247.361 79.12 247.006 79.022 246.605 79.022C246.194 79.022 245.835 79.12 245.527 79.316C245.228 79.5027 244.99 79.7687 244.813 80.114C244.636 80.4593 244.547 80.856 244.547 81.304C244.547 81.752 244.636 82.1487 244.813 82.494C244.99 82.8393 245.228 83.11 245.527 83.306C245.835 83.502 246.194 83.6 246.605 83.6ZM256.35 85L254.25 82.158L253.858 81.626L250.82 77.622H252.948L254.992 80.394L255.426 80.982L258.436 85H256.35ZM250.806 85L253.732 81.08L254.712 82.256L252.836 85H250.806ZM255.426 81.556L254.488 80.394L256.182 77.622H258.212L255.426 81.556Z" fill="#333333"/>
<rect x="226" y="61" width="80" height="1" fill="#333333"/>
<path d="M340.953 46H339.561L344.852 31.4545H346.273L351.564 46H350.172L345.612 33.1804H345.513L340.953 46ZM341.955 40.4247H349.17V41.6179H341.955V40.4247ZM356.841 46.2486C356.183 46.2486 355.581 46.1207 355.037 45.8651C354.492 45.6046 354.059 45.2306 353.737 44.7429C353.415 44.2505 353.254 43.6539 353.254 42.9531C353.254 42.4134 353.356 41.9588 353.56 41.5895C353.763 41.2202 354.052 40.9171 354.426 40.6804C354.8 40.4437 355.243 40.2566 355.754 40.1193C356.266 39.982 356.829 39.8755 357.445 39.7997C358.055 39.724 358.571 39.6577 358.993 39.6009C359.419 39.544 359.743 39.4541 359.966 39.331C360.188 39.2079 360.3 39.009 360.3 38.7344V38.4787C360.3 37.7353 360.077 37.1506 359.632 36.7244C359.192 36.2936 358.557 36.0781 357.729 36.0781C356.943 36.0781 356.301 36.2509 355.804 36.5966C355.312 36.9422 354.966 37.3494 354.767 37.8182L353.567 37.3849C353.813 36.7884 354.154 36.3125 354.589 35.9574C355.025 35.5975 355.513 35.3395 356.053 35.1832C356.592 35.0223 357.139 34.9418 357.693 34.9418C358.11 34.9418 358.543 34.9962 358.993 35.1051C359.447 35.214 359.869 35.4034 360.257 35.6733C360.645 35.9384 360.96 36.3101 361.202 36.7884C361.443 37.2618 361.564 37.8632 361.564 38.5923V46H360.3V44.2741H360.222C360.07 44.5961 359.845 44.9086 359.547 45.2116C359.249 45.5147 358.875 45.7633 358.425 45.9574C357.975 46.1515 357.447 46.2486 356.841 46.2486ZM357.011 45.0909C357.684 45.0909 358.266 44.9418 358.759 44.6435C359.251 44.3452 359.63 43.9498 359.895 43.4574C360.165 42.9602 360.3 42.4134 360.3 41.8168V40.2401C360.205 40.33 360.046 40.4105 359.824 40.4815C359.606 40.5526 359.353 40.6165 359.064 40.6733C358.78 40.7254 358.496 40.7704 358.212 40.8082C357.928 40.8461 357.672 40.8793 357.445 40.9077C356.829 40.9834 356.304 41.1018 355.868 41.2628C355.432 41.4238 355.098 41.6463 354.866 41.9304C354.634 42.2098 354.518 42.5696 354.518 43.0099C354.518 43.6728 354.755 44.1866 355.229 44.5511C355.702 44.911 356.296 45.0909 357.011 45.0909Z" fill="#333333"/>
<path d="M340.134 85L339.672 83.852L342.612 80.562C342.78 80.394 342.953 80.2027 343.13 79.988C343.307 79.764 343.475 79.5353 343.634 79.302C343.802 79.0593 343.937 78.826 344.04 78.602C344.143 78.3687 344.194 78.154 344.194 77.958C344.194 77.706 344.138 77.4867 344.026 77.3C343.923 77.1133 343.774 76.9687 343.578 76.866C343.382 76.7633 343.139 76.712 342.85 76.712C342.598 76.712 342.351 76.7867 342.108 76.936C341.875 77.076 341.655 77.2813 341.45 77.552C341.254 77.8133 341.091 78.126 340.96 78.49L339.588 77.678C339.756 77.1367 340.008 76.67 340.344 76.278C340.689 75.8767 341.091 75.5687 341.548 75.354C342.015 75.1393 342.519 75.032 343.06 75.032C343.62 75.032 344.119 75.1487 344.558 75.382C344.997 75.6153 345.342 75.9373 345.594 76.348C345.855 76.7587 345.986 77.2393 345.986 77.79C345.986 77.9953 345.963 78.21 345.916 78.434C345.869 78.6487 345.795 78.8773 345.692 79.12C345.599 79.3533 345.473 79.6007 345.314 79.862C345.155 80.114 344.964 80.38 344.74 80.66C344.525 80.94 344.278 81.234 343.998 81.542L341.772 83.964L341.492 83.32H346.336V85H340.134ZM351.08 85.14C350.287 85.14 349.605 84.9393 349.036 84.538C348.476 84.1273 348.042 83.5487 347.734 82.802C347.435 82.046 347.286 81.1453 347.286 80.1C347.286 79.0547 347.435 78.1587 347.734 77.412C348.042 76.656 348.476 76.0773 349.036 75.676C349.605 75.2653 350.287 75.06 351.08 75.06C351.873 75.06 352.555 75.2653 353.124 75.676C353.693 76.0773 354.127 76.656 354.426 77.412C354.734 78.1587 354.888 79.0547 354.888 80.1C354.888 81.1453 354.734 82.046 354.426 82.802C354.127 83.5487 353.693 84.1273 353.124 84.538C352.555 84.9393 351.873 85.14 351.08 85.14ZM351.08 83.544C351.733 83.544 352.237 83.2453 352.592 82.648C352.956 82.0413 353.138 81.192 353.138 80.1C353.138 78.9987 352.956 78.1447 352.592 77.538C352.237 76.9313 351.733 76.628 351.08 76.628C350.427 76.628 349.918 76.9313 349.554 77.538C349.199 78.1447 349.022 78.9987 349.022 80.1C349.022 81.192 349.199 82.0413 349.554 82.648C349.918 83.2453 350.427 83.544 351.08 83.544ZM356.51 88.08V77.622H358.204L358.232 79.302L357.938 79.176C357.994 78.8867 358.153 78.616 358.414 78.364C358.675 78.1027 358.993 77.8927 359.366 77.734C359.749 77.5753 360.145 77.496 360.556 77.496C361.209 77.496 361.788 77.6593 362.292 77.986C362.805 78.3127 363.207 78.7607 363.496 79.33C363.795 79.8993 363.944 80.5573 363.944 81.304C363.944 82.0413 363.795 82.6993 363.496 83.278C363.207 83.8473 362.805 84.3 362.292 84.636C361.788 84.9627 361.219 85.126 360.584 85.126C360.155 85.126 359.739 85.042 359.338 84.874C358.946 84.706 358.61 84.4867 358.33 84.216C358.059 83.9453 357.891 83.6607 357.826 83.362L358.246 83.166V88.08H356.51ZM360.234 83.6C360.626 83.6 360.976 83.502 361.284 83.306C361.592 83.11 361.83 82.8393 361.998 82.494C362.175 82.1487 362.264 81.752 362.264 81.304C362.264 80.856 362.18 80.464 362.012 80.128C361.844 79.7827 361.606 79.512 361.298 79.316C360.99 79.12 360.635 79.022 360.234 79.022C359.823 79.022 359.464 79.12 359.156 79.316C358.857 79.5027 358.619 79.7687 358.442 80.114C358.265 80.4593 358.176 80.856 358.176 81.304C358.176 81.752 358.265 82.1487 358.442 82.494C358.619 82.8393 358.857 83.11 359.156 83.306C359.464 83.502 359.823 83.6 360.234 83.6ZM369.979 85L367.879 82.158L367.487 81.626L364.449 77.622H366.577L368.621 80.394L369.055 80.982L372.065 85H369.979ZM364.435 85L367.361 81.08L368.341 82.256L366.465 85H364.435ZM369.055 81.556L368.117 80.394L369.811 77.622H371.841L369.055 81.556Z" fill="#333333"/>
<rect x="339" y="61" width="80" height="1" fill="#333333"/>
<path d="M453.953 46H452.561L457.852 31.4545H459.273L464.564 46H463.172L458.612 33.1804H458.513L453.953 46ZM454.955 40.4247H462.17V41.6179H454.955V40.4247ZM469.841 46.2486C469.183 46.2486 468.581 46.1207 468.037 45.8651C467.492 45.6046 467.059 45.2306 466.737 44.7429C466.415 44.2505 466.254 43.6539 466.254 42.9531C466.254 42.4134 466.356 41.9588 466.56 41.5895C466.763 41.2202 467.052 40.9171 467.426 40.6804C467.8 40.4437 468.243 40.2566 468.754 40.1193C469.266 39.982 469.829 39.8755 470.445 39.7997C471.055 39.724 471.571 39.6577 471.993 39.6009C472.419 39.544 472.743 39.4541 472.966 39.331C473.188 39.2079 473.3 39.009 473.3 38.7344V38.4787C473.3 37.7353 473.077 37.1506 472.632 36.7244C472.192 36.2936 471.557 36.0781 470.729 36.0781C469.943 36.0781 469.301 36.2509 468.804 36.5966C468.312 36.9422 467.966 37.3494 467.767 37.8182L466.567 37.3849C466.813 36.7884 467.154 36.3125 467.589 35.9574C468.025 35.5975 468.513 35.3395 469.053 35.1832C469.592 35.0223 470.139 34.9418 470.693 34.9418C471.11 34.9418 471.543 34.9962 471.993 35.1051C472.447 35.214 472.869 35.4034 473.257 35.6733C473.645 35.9384 473.96 36.3101 474.202 36.7884C474.443 37.2618 474.564 37.8632 474.564 38.5923V46H473.3V44.2741H473.222C473.07 44.5961 472.845 44.9086 472.547 45.2116C472.249 45.5147 471.875 45.7633 471.425 45.9574C470.975 46.1515 470.447 46.2486 469.841 46.2486ZM470.011 45.0909C470.684 45.0909 471.266 44.9418 471.759 44.6435C472.251 44.3452 472.63 43.9498 472.895 43.4574C473.165 42.9602 473.3 42.4134 473.3 41.8168V40.2401C473.205 40.33 473.046 40.4105 472.824 40.4815C472.606 40.5526 472.353 40.6165 472.064 40.6733C471.78 40.7254 471.496 40.7704 471.212 40.8082C470.928 40.8461 470.672 40.8793 470.445 40.9077C469.829 40.9834 469.304 41.1018 468.868 41.2628C468.432 41.4238 468.098 41.6463 467.866 41.9304C467.634 42.2098 467.518 42.5696 467.518 43.0099C467.518 43.6728 467.755 44.1866 468.229 44.5511C468.702 44.911 469.296 45.0909 470.011 45.0909Z" fill="#333333"/>
<path d="M455.01 84.314V76.362L455.528 77.034L453.54 78.042L453.134 76.446L455.808 75.06H456.816V84.314H455.01ZM453.372 85V83.32H458.496V85H453.372ZM463.402 85.042C462.777 85.042 462.203 84.916 461.68 84.664C461.167 84.4027 460.756 84.0573 460.448 83.628C460.14 83.1893 459.986 82.704 459.986 82.172C459.986 81.8547 460.028 81.5607 460.112 81.29C460.206 81.0193 460.336 80.7767 460.504 80.562C460.682 80.3473 460.892 80.156 461.134 79.988C461.386 79.8107 461.671 79.6567 461.988 79.526L461.876 79.918C461.634 79.8153 461.41 79.694 461.204 79.554C461.008 79.414 460.836 79.2553 460.686 79.078C460.546 78.8913 460.439 78.6953 460.364 78.49C460.29 78.2753 460.252 78.0513 460.252 77.818C460.252 77.314 460.392 76.8613 460.672 76.46C460.962 76.0587 461.344 75.7413 461.82 75.508C462.296 75.2653 462.824 75.144 463.402 75.144C463.99 75.144 464.522 75.2653 464.998 75.508C465.474 75.7413 465.852 76.0587 466.132 76.46C466.422 76.8613 466.566 77.314 466.566 77.818C466.566 78.0513 466.529 78.2753 466.454 78.49C466.38 78.6953 466.272 78.8867 466.132 79.064C466.002 79.232 465.834 79.3907 465.628 79.54C465.423 79.68 465.185 79.806 464.914 79.918L464.844 79.582C465.143 79.6847 465.414 79.82 465.656 79.988C465.899 80.156 466.109 80.352 466.286 80.576C466.464 80.8 466.599 81.0473 466.692 81.318C466.795 81.5887 466.846 81.8733 466.846 82.172C466.846 82.7133 466.692 83.2033 466.384 83.642C466.076 84.0713 465.661 84.412 465.138 84.664C464.625 84.916 464.046 85.042 463.402 85.042ZM463.402 83.474C463.72 83.474 464.004 83.4133 464.256 83.292C464.508 83.1707 464.704 83.0073 464.844 82.802C464.994 82.5967 465.068 82.3587 465.068 82.088C465.068 81.7987 464.994 81.5467 464.844 81.332C464.704 81.108 464.508 80.9353 464.256 80.814C464.004 80.6833 463.72 80.618 463.402 80.618C463.094 80.618 462.814 80.6833 462.562 80.814C462.32 80.9353 462.124 81.108 461.974 81.332C461.825 81.5467 461.75 81.7987 461.75 82.088C461.75 82.3493 461.825 82.5827 461.974 82.788C462.124 82.9933 462.32 83.1613 462.562 83.292C462.814 83.4133 463.094 83.474 463.402 83.474ZM463.402 79.078C463.682 79.078 463.93 79.0267 464.144 78.924C464.368 78.8213 464.541 78.6813 464.662 78.504C464.784 78.3267 464.844 78.1213 464.844 77.888C464.844 77.6453 464.784 77.4353 464.662 77.258C464.541 77.0713 464.368 76.9267 464.144 76.824C463.93 76.712 463.682 76.656 463.402 76.656C463.132 76.656 462.884 76.712 462.66 76.824C462.446 76.9267 462.278 77.0713 462.156 77.258C462.035 77.4353 461.974 77.6453 461.974 77.888C461.974 78.1213 462.035 78.3267 462.156 78.504C462.278 78.6813 462.446 78.8213 462.66 78.924C462.884 79.0267 463.132 79.078 463.402 79.078ZM468.526 88.08V77.622H470.22L470.248 79.302L469.954 79.176C470.01 78.8867 470.168 78.616 470.43 78.364C470.691 78.1027 471.008 77.8927 471.382 77.734C471.764 77.5753 472.161 77.496 472.572 77.496C473.225 77.496 473.804 77.6593 474.308 77.986C474.821 78.3127 475.222 78.7607 475.512 79.33C475.81 79.8993 475.96 80.5573 475.96 81.304C475.96 82.0413 475.81 82.6993 475.512 83.278C475.222 83.8473 474.821 84.3 474.308 84.636C473.804 84.9627 473.234 85.126 472.6 85.126C472.17 85.126 471.755 85.042 471.354 84.874C470.962 84.706 470.626 84.4867 470.346 84.216C470.075 83.9453 469.907 83.6607 469.842 83.362L470.262 83.166V88.08H468.526ZM472.25 83.6C472.642 83.6 472.992 83.502 473.3 83.306C473.608 83.11 473.846 82.8393 474.014 82.494C474.191 82.1487 474.28 81.752 474.28 81.304C474.28 80.856 474.196 80.464 474.028 80.128C473.86 79.7827 473.622 79.512 473.314 79.316C473.006 79.12 472.651 79.022 472.25 79.022C471.839 79.022 471.48 79.12 471.172 79.316C470.873 79.5027 470.635 79.7687 470.458 80.114C470.28 80.4593 470.192 80.856 470.192 81.304C470.192 81.752 470.28 82.1487 470.458 82.494C470.635 82.8393 470.873 83.11 471.172 83.306C471.48 83.502 471.839 83.6 472.25 83.6ZM481.995 85L479.895 82.158L479.503 81.626L476.465 77.622H478.593L480.637 80.394L481.071 80.982L484.081 85H481.995ZM476.451 85L479.377 81.08L480.357 82.256L478.481 85H476.451ZM481.071 81.556L480.133 80.394L481.827 77.622H483.857L481.071 81.556Z" fill="#333333"/>
<rect x="452" y="61" width="80" height="1" fill="#333333"/>
<path d="M567.358 55H565.511L570.852 40.4545H572.67L578.011 55H576.165L571.818 42.7557H571.705L567.358 55ZM568.04 49.3182H575.483V50.8807H568.04V49.3182ZM583.26 55.2557C582.569 55.2557 581.941 55.1255 581.378 54.8651C580.814 54.5999 580.367 54.2188 580.036 53.7216C579.704 53.2197 579.538 52.6136 579.538 51.9034C579.538 51.2784 579.661 50.7718 579.908 50.3835C580.154 49.9905 580.483 49.6828 580.895 49.4602C581.307 49.2377 581.761 49.072 582.259 48.9631C582.76 48.8494 583.265 48.7595 583.771 48.6932C584.434 48.608 584.972 48.544 585.384 48.5014C585.8 48.4541 586.103 48.3759 586.293 48.267C586.487 48.1581 586.584 47.9687 586.584 47.6989V47.642C586.584 46.9413 586.392 46.3968 586.009 46.0085C585.63 45.6203 585.054 45.4261 584.283 45.4261C583.482 45.4261 582.855 45.6013 582.401 45.9517C581.946 46.3021 581.626 46.6761 581.442 47.0739L579.851 46.5057C580.135 45.8428 580.514 45.3267 580.987 44.9574C581.465 44.5833 581.986 44.3229 582.55 44.1761C583.118 44.0246 583.677 43.9489 584.226 43.9489C584.576 43.9489 584.979 43.9915 585.433 44.0767C585.893 44.1572 586.335 44.3253 586.761 44.581C587.192 44.8366 587.55 45.2225 587.834 45.7386C588.118 46.2547 588.26 46.946 588.26 47.8125V55H586.584V53.5227H586.499C586.385 53.7595 586.196 54.0128 585.93 54.2827C585.665 54.5526 585.313 54.7822 584.872 54.9716C584.432 55.161 583.894 55.2557 583.26 55.2557ZM583.516 53.75C584.179 53.75 584.737 53.6198 585.192 53.3594C585.651 53.099 585.997 52.7628 586.229 52.3509C586.465 51.9389 586.584 51.5057 586.584 51.0511V49.517C586.513 49.6023 586.357 49.6804 586.115 49.7514C585.878 49.8177 585.604 49.8769 585.291 49.929C584.983 49.9763 584.683 50.0189 584.389 50.0568C584.1 50.09 583.866 50.1184 583.686 50.142C583.25 50.1989 582.843 50.2912 582.464 50.419C582.09 50.5421 581.787 50.7292 581.555 50.9801C581.328 51.2263 581.214 51.5625 581.214 51.9886C581.214 52.571 581.43 53.0114 581.861 53.3097C582.296 53.6032 582.848 53.75 583.516 53.75Z" fill="#333333"/>
<path d="M568.01 84.314V76.362L568.528 77.034L566.54 78.042L566.134 76.446L568.808 75.06H569.816V84.314H568.01ZM566.372 85V83.32H571.496V85H566.372ZM576.332 85C575.838 85 575.376 84.9113 574.946 84.734C574.526 84.5567 574.158 84.314 573.84 84.006C573.532 83.6887 573.29 83.32 573.112 82.9C572.935 82.48 572.846 82.018 572.846 81.514C572.846 81.234 572.879 80.9353 572.944 80.618C573.019 80.3007 573.126 79.9647 573.266 79.61C573.416 79.246 573.588 78.868 573.784 78.476C573.98 78.084 574.209 77.6733 574.47 77.244L575.772 75.032H577.508L577.564 75.172L575.898 77.916C575.628 78.364 575.39 78.7887 575.184 79.19C574.979 79.582 574.802 79.96 574.652 80.324C574.512 80.6787 574.396 81.024 574.302 81.36L573.924 80.086C574.064 79.7873 574.237 79.5167 574.442 79.274C574.648 79.0313 574.876 78.826 575.128 78.658C575.38 78.49 575.642 78.364 575.912 78.28C576.192 78.196 576.477 78.154 576.766 78.154C577.308 78.154 577.807 78.3033 578.264 78.602C578.722 78.8913 579.086 79.2787 579.356 79.764C579.636 80.2493 579.776 80.7813 579.776 81.36C579.776 82.06 579.627 82.6853 579.328 83.236C579.039 83.7773 578.633 84.2067 578.11 84.524C577.588 84.8413 576.995 85 576.332 85ZM576.346 83.404C576.682 83.404 576.981 83.3247 577.242 83.166C577.513 83.0073 577.723 82.788 577.872 82.508C578.022 82.2187 578.096 81.8873 578.096 81.514C578.096 81.1967 578.017 80.9027 577.858 80.632C577.709 80.352 577.504 80.128 577.242 79.96C576.981 79.7827 576.687 79.694 576.36 79.694C576.006 79.694 575.688 79.778 575.408 79.946C575.138 80.1047 574.923 80.324 574.764 80.604C574.615 80.8747 574.54 81.178 574.54 81.514C574.54 81.8687 574.615 82.1907 574.764 82.48C574.923 82.76 575.138 82.984 575.408 83.152C575.679 83.32 575.992 83.404 576.346 83.404ZM581.238 88.08V77.622H582.932L582.96 79.302L582.666 79.176C582.722 78.8867 582.881 78.616 583.142 78.364C583.404 78.1027 583.721 77.8927 584.094 77.734C584.477 77.5753 584.874 77.496 585.284 77.496C585.938 77.496 586.516 77.6593 587.02 77.986C587.534 78.3127 587.935 78.7607 588.224 79.33C588.523 79.8993 588.672 80.5573 588.672 81.304C588.672 82.0413 588.523 82.6993 588.224 83.278C587.935 83.8473 587.534 84.3 587.02 84.636C586.516 84.9627 585.947 85.126 585.312 85.126C584.883 85.126 584.468 85.042 584.066 84.874C583.674 84.706 583.338 84.4867 583.058 84.216C582.788 83.9453 582.62 83.6607 582.554 83.362L582.974 83.166V88.08H581.238ZM584.962 83.6C585.354 83.6 585.704 83.502 586.012 83.306C586.32 83.11 586.558 82.8393 586.726 82.494C586.904 82.1487 586.992 81.752 586.992 81.304C586.992 80.856 586.908 80.464 586.74 80.128C586.572 79.7827 586.334 79.512 586.026 79.316C585.718 79.12 585.364 79.022 584.962 79.022C584.552 79.022 584.192 79.12 583.884 79.316C583.586 79.5027 583.348 79.7687 583.17 80.114C582.993 80.4593 582.904 80.856 582.904 81.304C582.904 81.752 582.993 82.1487 583.17 82.494C583.348 82.8393 583.586 83.11 583.884 83.306C584.192 83.502 584.552 83.6 584.962 83.6ZM594.708 85L592.608 82.158L592.216 81.626L589.178 77.622H591.306L593.35 80.394L593.784 80.982L596.794 85H594.708ZM589.164 85L592.09 81.08L593.07 82.256L591.194 85H589.164ZM593.784 81.556L592.846 80.394L594.54 77.622H596.57L593.784 81.556Z" fill="#333333"/>
<rect x="565" y="61" width="80" height="1" fill="#333333"/>
</svg>
