<svg width="542" height="142" viewBox="0 0 542 142" fill="none" xmlns="http://www.w3.org/2000/svg">
<path d="M0 138C0 140.209 1.79086 142 4 142C6.20914 142 8 140.209 8 138C8 135.791 6.20914 134 4 134C1.79086 134 0 135.791 0 138ZM4 1V0.25C3.58579 0.25 3.25 0.585786 3.25 1L4 1ZM4.75 135.554C4.75 135.139 4.41421 134.804 4 134.804C3.58579 134.804 3.25 135.139 3.25 135.554H4.75ZM3.25 130.661C3.25 131.075 3.58579 131.411 4 131.411C4.41421 131.411 4.75 131.075 4.75 130.661H3.25ZM4.75 125.768C4.75 125.354 4.41421 125.018 4 125.018C3.58579 125.018 3.25 125.354 3.25 125.768H4.75ZM3.25 120.875C3.25 121.289 3.58579 121.625 4 121.625C4.41421 121.625 4.75 121.289 4.75 120.875H3.25ZM4.75 115.982C4.75 115.568 4.41421 115.232 4 115.232C3.58579 115.232 3.25 115.568 3.25 115.982H4.75ZM3.25 111.089C3.25 111.503 3.58579 111.839 4 111.839C4.41421 111.839 4.75 111.503 4.75 111.089H3.25ZM4.75 106.196C4.75 105.782 4.41421 105.446 4 105.446C3.58579 105.446 3.25 105.782 3.25 106.196H4.75ZM3.25 101.304C3.25 101.718 3.58579 102.054 4 102.054C4.41421 102.054 4.75 101.718 4.75 101.304H3.25ZM4.75 96.4107C4.75 95.9965 4.41421 95.6607 4 95.6607C3.58579 95.6607 3.25 95.9965 3.25 96.4107H4.75ZM3.25 91.5179C3.25 91.9321 3.58579 92.2679 4 92.2679C4.41421 92.2679 4.75 91.9321 4.75 91.5179H3.25ZM4.75 86.625C4.75 86.2108 4.41421 85.875 4 85.875C3.58579 85.875 3.25 86.2108 3.25 86.625H4.75ZM3.25 81.7321C3.25 82.1464 3.58579 82.4821 4 82.4821C4.41421 82.4821 4.75 82.1464 4.75 81.7321H3.25ZM4.75 76.8393C4.75 76.4251 4.41421 76.0893 4 76.0893C3.58579 76.0893 3.25 76.4251 3.25 76.8393H4.75ZM3.25 71.9464C3.25 72.3606 3.58579 72.6964 4 72.6964C4.41421 72.6964 4.75 72.3606 4.75 71.9464H3.25ZM4.75 67.0536C4.75 66.6394 4.41421 66.3036 4 66.3036C3.58579 66.3036 3.25 66.6394 3.25 67.0536H4.75ZM3.25 62.1607C3.25 62.5749 3.58579 62.9107 4 62.9107C4.41421 62.9107 4.75 62.5749 4.75 62.1607H3.25ZM4.75 57.2679C4.75 56.8536 4.41421 56.5179 4 56.5179C3.58579 56.5179 3.25 56.8536 3.25 57.2679H4.75ZM3.25 52.375C3.25 52.7892 3.58579 53.125 4 53.125C4.41421 53.125 4.75 52.7892 4.75 52.375H3.25ZM4.75 47.4821C4.75 47.0679 4.41421 46.7321 4 46.7321C3.58579 46.7321 3.25 47.0679 3.25 47.4821H4.75ZM3.25 42.5893C3.25 43.0035 3.58579 43.3393 4 43.3393C4.41421 43.3393 4.75 43.0035 4.75 42.5893H3.25ZM4.75 37.6964C4.75 37.2822 4.41421 36.9464 4 36.9464C3.58579 36.9464 3.25 37.2822 3.25 37.6964H4.75ZM3.25 32.8035C3.25 33.2178 3.58579 33.5535 4 33.5535C4.41421 33.5535 4.75 33.2178 4.75 32.8035H3.25ZM4.75 27.9107C4.75 27.4965 4.41421 27.1607 4 27.1607C3.58579 27.1607 3.25 27.4965 3.25 27.9107H4.75ZM3.25 23.0178C3.25 23.432 3.58579 23.7678 4 23.7678C4.41421 23.7678 4.75 23.432 4.75 23.0178H3.25ZM4.75 18.125C4.75 17.7108 4.41421 17.375 4 17.375C3.58579 17.375 3.25 17.7108 3.25 18.125H4.75ZM3.25 13.2321C3.25 13.6463 3.58579 13.9821 4 13.9821C4.41421 13.9821 4.75 13.6463 4.75 13.2321H3.25ZM4.75 8.33925C4.75 7.92504 4.41421 7.58925 4 7.58925C3.58579 7.58925 3.25 7.92504 3.25 8.33925H4.75ZM3.25 3.44639C3.25 3.86061 3.58579 4.19639 4 4.19639C4.41421 4.19639 4.75 3.86061 4.75 3.44639H3.25ZM6.49074 1.75C6.90495 1.75 7.24074 1.41421 7.24074 1C7.24074 0.585786 6.90495 0.25 6.49074 0.25V1.75ZM11.4722 0.25C11.058 0.25 10.7222 0.585786 10.7222 1C10.7222 1.41421 11.058 1.75 11.4722 1.75V0.25ZM16.4537 1.75C16.8679 1.75 17.2037 1.41421 17.2037 1C17.2037 0.585786 16.8679 0.25 16.4537 0.25V1.75ZM21.4352 0.25C21.021 0.25 20.6852 0.585786 20.6852 1C20.6852 1.41421 21.021 1.75 21.4352 1.75V0.25ZM26.4167 1.75C26.8309 1.75 27.1667 1.41421 27.1667 1C27.1667 0.585786 26.8309 0.25 26.4167 0.25V1.75ZM31.3981 0.25C30.9839 0.25 30.6481 0.585786 30.6481 1C30.6481 1.41421 30.9839 1.75 31.3981 1.75V0.25ZM36.3796 1.75C36.7938 1.75 37.1296 1.41421 37.1296 1C37.1296 0.585786 36.7938 0.25 36.3796 0.25V1.75ZM41.3611 0.25C40.9469 0.25 40.6111 0.585786 40.6111 1C40.6111 1.41421 40.9469 1.75 41.3611 1.75V0.25ZM46.3426 1.75C46.7568 1.75 47.0926 1.41421 47.0926 1C47.0926 0.585786 46.7568 0.25 46.3426 0.25V1.75ZM51.3241 0.25C50.9099 0.25 50.5741 0.585786 50.5741 1C50.5741 1.41421 50.9099 1.75 51.3241 1.75V0.25ZM56.3056 1.75C56.7198 1.75 57.0556 1.41421 57.0556 1C57.0556 0.585786 56.7198 0.25 56.3056 0.25V1.75ZM61.287 0.25C60.8728 0.25 60.537 0.585786 60.537 1C60.537 1.41421 60.8728 1.75 61.287 1.75V0.25ZM66.2685 1.75C66.6827 1.75 67.0185 1.41421 67.0185 1C67.0185 0.585786 66.6827 0.25 66.2685 0.25V1.75ZM71.25 0.25C70.8358 0.25 70.5 0.585786 70.5 1C70.5 1.41421 70.8358 1.75 71.25 1.75V0.25ZM76.2315 1.75C76.6457 1.75 76.9815 1.41421 76.9815 1C76.9815 0.585786 76.6457 0.25 76.2315 0.25V1.75ZM81.213 0.25C80.7988 0.25 80.463 0.585786 80.463 1C80.463 1.41421 80.7988 1.75 81.213 1.75V0.25ZM86.1945 1.75C86.6087 1.75 86.9445 1.41421 86.9445 1C86.9445 0.585786 86.6087 0.25 86.1945 0.25V1.75ZM91.1759 0.25C90.7617 0.25 90.4259 0.585786 90.4259 1C90.4259 1.41421 90.7617 1.75 91.1759 1.75V0.25ZM96.1574 1.75C96.5716 1.75 96.9074 1.41421 96.9074 1C96.9074 0.585786 96.5716 0.25 96.1574 0.25V1.75ZM101.139 0.25C100.725 0.25 100.389 0.585786 100.389 1C100.389 1.41421 100.725 1.75 101.139 1.75V0.25ZM106.12 1.75C106.535 1.75 106.87 1.41421 106.87 1C106.87 0.585786 106.535 0.25 106.12 0.25V1.75ZM111.102 0.25C110.688 0.25 110.352 0.585786 110.352 1C110.352 1.41421 110.688 1.75 111.102 1.75V0.25ZM116.083 1.75C116.498 1.75 116.833 1.41421 116.833 1C116.833 0.585786 116.498 0.25 116.083 0.25V1.75ZM121.065 0.25C120.651 0.25 120.315 0.585786 120.315 1C120.315 1.41421 120.651 1.75 121.065 1.75V0.25ZM126.046 1.75C126.461 1.75 126.796 1.41421 126.796 1C126.796 0.585786 126.461 0.25 126.046 0.25V1.75ZM131.028 0.25C130.614 0.25 130.278 0.585786 130.278 1C130.278 1.41421 130.614 1.75 131.028 1.75V0.25ZM136.009 1.75C136.424 1.75 136.759 1.41421 136.759 1C136.759 0.585786 136.424 0.25 136.009 0.25V1.75ZM140.991 0.25C140.577 0.25 140.241 0.585786 140.241 1C140.241 1.41421 140.577 1.75 140.991 1.75V0.25ZM145.972 1.75C146.386 1.75 146.722 1.41421 146.722 1C146.722 0.585786 146.386 0.25 145.972 0.25V1.75ZM150.954 0.25C150.54 0.25 150.204 0.585786 150.204 1C150.204 1.41421 150.54 1.75 150.954 1.75V0.25ZM155.935 1.75C156.349 1.75 156.685 1.41421 156.685 1C156.685 0.585786 156.349 0.25 155.935 0.25V1.75ZM160.917 0.25C160.502 0.25 160.167 0.585786 160.167 1C160.167 1.41421 160.502 1.75 160.917 1.75V0.25ZM165.898 1.75C166.312 1.75 166.648 1.41421 166.648 1C166.648 0.585786 166.312 0.25 165.898 0.25V1.75ZM170.88 0.25C170.465 0.25 170.13 0.585786 170.13 1C170.13 1.41421 170.465 1.75 170.88 1.75V0.25ZM175.861 1.75C176.275 1.75 176.611 1.41421 176.611 1C176.611 0.585786 176.275 0.25 175.861 0.25V1.75ZM180.843 0.25C180.428 0.25 180.093 0.585786 180.093 1C180.093 1.41421 180.428 1.75 180.843 1.75V0.25ZM185.824 1.75C186.238 1.75 186.574 1.41421 186.574 1C186.574 0.585786 186.238 0.25 185.824 0.25V1.75ZM190.806 0.25C190.391 0.25 190.056 0.585786 190.056 1C190.056 1.41421 190.391 1.75 190.806 1.75V0.25ZM195.787 1.75C196.201 1.75 196.537 1.41421 196.537 1C196.537 0.585786 196.201 0.25 195.787 0.25V1.75ZM200.768 0.25C200.354 0.25 200.018 0.585786 200.018 1C200.018 1.41421 200.354 1.75 200.768 1.75V0.25ZM205.75 1.75C206.164 1.75 206.5 1.41421 206.5 1C206.5 0.585786 206.164 0.25 205.75 0.25V1.75ZM210.731 0.25C210.317 0.25 209.981 0.585786 209.981 1C209.981 1.41421 210.317 1.75 210.731 1.75V0.25ZM215.713 1.75C216.127 1.75 216.463 1.41421 216.463 1C216.463 0.585786 216.127 0.25 215.713 0.25V1.75ZM220.694 0.25C220.28 0.25 219.944 0.585786 219.944 1C219.944 1.41421 220.28 1.75 220.694 1.75V0.25ZM225.676 1.75C226.09 1.75 226.426 1.41421 226.426 1C226.426 0.585786 226.09 0.25 225.676 0.25V1.75ZM230.657 0.25C230.243 0.25 229.907 0.585786 229.907 1C229.907 1.41421 230.243 1.75 230.657 1.75V0.25ZM235.639 1.75C236.053 1.75 236.389 1.41421 236.389 1C236.389 0.585786 236.053 0.25 235.639 0.25V1.75ZM240.62 0.25C240.206 0.25 239.87 0.585786 239.87 1C239.87 1.41421 240.206 1.75 240.62 1.75V0.25ZM245.602 1.75C246.016 1.75 246.352 1.41421 246.352 1C246.352 0.585786 246.016 0.25 245.602 0.25V1.75ZM250.583 0.25C250.169 0.25 249.833 0.585786 249.833 1C249.833 1.41421 250.169 1.75 250.583 1.75V0.25ZM255.565 1.75C255.979 1.75 256.315 1.41421 256.315 1C256.315 0.585786 255.979 0.25 255.565 0.25V1.75ZM260.546 0.25C260.132 0.25 259.796 0.585786 259.796 1C259.796 1.41421 260.132 1.75 260.546 1.75V0.25ZM265.528 1.75C265.942 1.75 266.278 1.41421 266.278 1C266.278 0.585786 265.942 0.25 265.528 0.25V1.75ZM270.509 0.25C270.095 0.25 269.759 0.585786 269.759 1C269.759 1.41421 270.095 1.75 270.509 1.75V0.25ZM275.491 1.75C275.905 1.75 276.241 1.41421 276.241 1C276.241 0.585786 275.905 0.25 275.491 0.25V1.75ZM280.472 0.25C280.058 0.25 279.722 0.585786 279.722 1C279.722 1.41421 280.058 1.75 280.472 1.75V0.25ZM285.454 1.75C285.868 1.75 286.204 1.41421 286.204 1C286.204 0.585786 285.868 0.25 285.454 0.25V1.75ZM290.435 0.25C290.021 0.25 289.685 0.585786 289.685 1C289.685 1.41421 290.021 1.75 290.435 1.75V0.25ZM295.417 1.75C295.831 1.75 296.167 1.41421 296.167 1C296.167 0.585786 295.831 0.25 295.417 0.25V1.75ZM300.398 0.25C299.984 0.25 299.648 0.585786 299.648 1C299.648 1.41421 299.984 1.75 300.398 1.75V0.25ZM305.379 1.75C305.794 1.75 306.129 1.41421 306.129 1C306.129 0.585786 305.794 0.25 305.379 0.25V1.75ZM310.361 0.25C309.947 0.25 309.611 0.585786 309.611 1C309.611 1.41421 309.947 1.75 310.361 1.75V0.25ZM315.342 1.75C315.757 1.75 316.092 1.41421 316.092 1C316.092 0.585786 315.757 0.25 315.342 0.25V1.75ZM320.324 0.25C319.91 0.25 319.574 0.585786 319.574 1C319.574 1.41421 319.91 1.75 320.324 1.75V0.25ZM325.305 1.75C325.72 1.75 326.055 1.41421 326.055 1C326.055 0.585786 325.72 0.25 325.305 0.25V1.75ZM330.287 0.25C329.873 0.25 329.537 0.585786 329.537 1C329.537 1.41421 329.873 1.75 330.287 1.75V0.25ZM335.268 1.75C335.683 1.75 336.018 1.41421 336.018 1C336.018 0.585786 335.683 0.25 335.268 0.25V1.75ZM340.25 0.25C339.836 0.25 339.5 0.585786 339.5 1C339.5 1.41421 339.836 1.75 340.25 1.75V0.25ZM345.231 1.75C345.646 1.75 345.981 1.41421 345.981 1C345.981 0.585786 345.646 0.25 345.231 0.25V1.75ZM350.213 0.25C349.799 0.25 349.463 0.585786 349.463 1C349.463 1.41421 349.799 1.75 350.213 1.75V0.25ZM355.194 1.75C355.608 1.75 355.944 1.41421 355.944 1C355.944 0.585786 355.608 0.25 355.194 0.25V1.75ZM360.176 0.25C359.762 0.25 359.426 0.585786 359.426 1C359.426 1.41421 359.762 1.75 360.176 1.75V0.25ZM365.157 1.75C365.571 1.75 365.907 1.41421 365.907 1C365.907 0.585786 365.571 0.25 365.157 0.25V1.75ZM370.139 0.25C369.724 0.25 369.389 0.585786 369.389 1C369.389 1.41421 369.724 1.75 370.139 1.75V0.25ZM375.12 1.75C375.534 1.75 375.87 1.41421 375.87 1C375.87 0.585786 375.534 0.25 375.12 0.25V1.75ZM380.102 0.25C379.687 0.25 379.352 0.585786 379.352 1C379.352 1.41421 379.687 1.75 380.102 1.75V0.25ZM385.083 1.75C385.497 1.75 385.833 1.41421 385.833 1C385.833 0.585786 385.497 0.25 385.083 0.25V1.75ZM390.065 0.25C389.65 0.25 389.315 0.585786 389.315 1C389.315 1.41421 389.65 1.75 390.065 1.75V0.25ZM395.046 1.75C395.46 1.75 395.796 1.41421 395.796 1C395.796 0.585786 395.46 0.25 395.046 0.25V1.75ZM400.028 0.25C399.613 0.25 399.278 0.585786 399.278 1C399.278 1.41421 399.613 1.75 400.028 1.75V0.25ZM405.009 1.75C405.423 1.75 405.759 1.41421 405.759 1C405.759 0.585786 405.423 0.25 405.009 0.25V1.75ZM409.99 0.25C409.576 0.25 409.24 0.585786 409.24 1C409.24 1.41421 409.576 1.75 409.99 1.75V0.25ZM414.972 1.75C415.386 1.75 415.722 1.41421 415.722 1C415.722 0.585786 415.386 0.25 414.972 0.25V1.75ZM419.953 0.25C419.539 0.25 419.203 0.585786 419.203 1C419.203 1.41421 419.539 1.75 419.953 1.75V0.25ZM424.935 1.75C425.349 1.75 425.685 1.41421 425.685 1C425.685 0.585786 425.349 0.25 424.935 0.25V1.75ZM429.916 0.25C429.502 0.25 429.166 0.585786 429.166 1C429.166 1.41421 429.502 1.75 429.916 1.75V0.25ZM434.898 1.75C435.312 1.75 435.648 1.41421 435.648 1C435.648 0.585786 435.312 0.25 434.898 0.25V1.75ZM439.879 0.25C439.465 0.25 439.129 0.585786 439.129 1C439.129 1.41421 439.465 1.75 439.879 1.75V0.25ZM444.861 1.75C445.275 1.75 445.611 1.41421 445.611 1C445.611 0.585786 445.275 0.25 444.861 0.25V1.75ZM449.842 0.25C449.428 0.25 449.092 0.585786 449.092 1C449.092 1.41421 449.428 1.75 449.842 1.75V0.25ZM454.824 1.75C455.238 1.75 455.574 1.41421 455.574 1C455.574 0.585786 455.238 0.25 454.824 0.25V1.75ZM459.805 0.25C459.391 0.25 459.055 0.585786 459.055 1C459.055 1.41421 459.391 1.75 459.805 1.75V0.25ZM464.787 1.75C465.201 1.75 465.537 1.41421 465.537 1C465.537 0.585786 465.201 0.25 464.787 0.25V1.75ZM469.768 0.25C469.354 0.25 469.018 0.585786 469.018 1C469.018 1.41421 469.354 1.75 469.768 1.75V0.25ZM474.75 1.75C475.164 1.75 475.5 1.41421 475.5 1C475.5 0.585786 475.164 0.25 474.75 0.25V1.75ZM479.731 0.25C479.317 0.25 478.981 0.585786 478.981 1C478.981 1.41421 479.317 1.75 479.731 1.75V0.25ZM484.713 1.75C485.127 1.75 485.463 1.41421 485.463 1C485.463 0.585786 485.127 0.25 484.713 0.25V1.75ZM489.694 0.25C489.28 0.25 488.944 0.585786 488.944 1C488.944 1.41421 489.28 1.75 489.694 1.75V0.25ZM494.676 1.75C495.09 1.75 495.426 1.41421 495.426 1C495.426 0.585786 495.09 0.25 494.676 0.25V1.75ZM499.657 0.25C499.243 0.25 498.907 0.585786 498.907 1C498.907 1.41421 499.243 1.75 499.657 1.75V0.25ZM504.639 1.75C505.053 1.75 505.389 1.41421 505.389 1C505.389 0.585786 505.053 0.25 504.639 0.25V1.75ZM509.62 0.25C509.206 0.25 508.87 0.585786 508.87 1C508.87 1.41421 509.206 1.75 509.62 1.75V0.25ZM514.601 1.75C515.016 1.75 515.351 1.41421 515.351 1C515.351 0.585786 515.016 0.25 514.601 0.25V1.75ZM519.583 0.25C519.169 0.25 518.833 0.585786 518.833 1C518.833 1.41421 519.169 1.75 519.583 1.75V0.25ZM524.564 1.75C524.979 1.75 525.314 1.41421 525.314 1C525.314 0.585786 524.979 0.25 524.564 0.25V1.75ZM529.546 0.25C529.132 0.25 528.796 0.585786 528.796 1C528.796 1.41421 529.132 1.75 529.546 1.75V0.25ZM534.527 1.75C534.942 1.75 535.277 1.41421 535.277 1C535.277 0.585786 534.942 0.25 534.527 0.25V1.75ZM539.509 0.25C539.095 0.25 538.759 0.585786 538.759 1C538.759 1.41421 539.095 1.75 539.509 1.75V0.25ZM4.75 138V135.554H3.25V138H4.75ZM4.75 130.661V125.768H3.25V130.661H4.75ZM4.75 120.875V115.982H3.25V120.875H4.75ZM4.75 111.089V106.196H3.25V111.089H4.75ZM4.75 101.304V96.4107H3.25V101.304H4.75ZM4.75 91.5179V86.625H3.25V91.5179H4.75ZM4.75 81.7321V76.8393H3.25V81.7321H4.75ZM4.75 71.9464V67.0536H3.25V71.9464H4.75ZM4.75 62.1607V57.2679H3.25V62.1607H4.75ZM4.75 52.375V47.4821H3.25V52.375H4.75ZM4.75 42.5893V37.6964H3.25V42.5893H4.75ZM4.75 32.8035V27.9107H3.25V32.8035H4.75ZM4.75 23.0178V18.125H3.25V23.0178H4.75ZM4.75 13.2321V8.33925H3.25V13.2321H4.75ZM4.75 3.44639V1H3.25V3.44639H4.75ZM4 1.75H6.49074V0.25H4V1.75ZM11.4722 1.75H16.4537V0.25H11.4722V1.75ZM21.4352 1.75H26.4167V0.25H21.4352V1.75ZM31.3981 1.75H36.3796V0.25H31.3981V1.75ZM41.3611 1.75H46.3426V0.25H41.3611V1.75ZM51.3241 1.75H56.3056V0.25H51.3241V1.75ZM61.287 1.75H66.2685V0.25H61.287V1.75ZM71.25 1.75H76.2315V0.25H71.25V1.75ZM81.213 1.75H86.1945V0.25H81.213V1.75ZM91.1759 1.75H96.1574V0.25H91.1759V1.75ZM101.139 1.75H106.12V0.25H101.139V1.75ZM111.102 1.75H116.083V0.25H111.102V1.75ZM121.065 1.75H126.046V0.25H121.065V1.75ZM131.028 1.75H136.009V0.25H131.028V1.75ZM140.991 1.75H145.972V0.25H140.991V1.75ZM150.954 1.75H155.935V0.25H150.954V1.75ZM160.917 1.75H165.898V0.25H160.917V1.75ZM170.88 1.75H175.861V0.25H170.88V1.75ZM180.843 1.75H185.824V0.25H180.843V1.75ZM190.806 1.75H195.787V0.25H190.806V1.75ZM200.768 1.75H205.75V0.25H200.768V1.75ZM210.731 1.75H215.713V0.25H210.731V1.75ZM220.694 1.75H225.676V0.25H220.694V1.75ZM230.657 1.75H235.639V0.25H230.657V1.75ZM240.62 1.75H245.602V0.25H240.62V1.75ZM250.583 1.75H255.565V0.25H250.583V1.75ZM260.546 1.75H265.528V0.25H260.546V1.75ZM270.509 1.75H275.491V0.25H270.509V1.75ZM280.472 1.75H285.454V0.25H280.472V1.75ZM290.435 1.75H295.417V0.25H290.435V1.75ZM300.398 1.75H305.379V0.25H300.398V1.75ZM310.361 1.75H315.342V0.25H310.361V1.75ZM320.324 1.75H325.305V0.25H320.324V1.75ZM330.287 1.75H335.268V0.25H330.287V1.75ZM340.25 1.75H345.231V0.25H340.25V1.75ZM350.213 1.75H355.194V0.25H350.213V1.75ZM360.176 1.75H365.157V0.25H360.176V1.75ZM370.139 1.75H375.12V0.25H370.139V1.75ZM380.102 1.75H385.083V0.25H380.102V1.75ZM390.065 1.75H395.046V0.25H390.065V1.75ZM400.028 1.75H405.009V0.25H400.028V1.75ZM409.99 1.75H414.972V0.25H409.99V1.75ZM419.953 1.75H424.935V0.25H419.953V1.75ZM429.916 1.75H434.898V0.25H429.916V1.75ZM439.879 1.75H444.861V0.25H439.879V1.75ZM449.842 1.75H454.824V0.25H449.842V1.75ZM459.805 1.75H464.787V0.25H459.805V1.75ZM469.768 1.75H474.75V0.25H469.768V1.75ZM479.731 1.75H484.713V0.25H479.731V1.75ZM489.694 1.75H494.676V0.25H489.694V1.75ZM499.657 1.75H504.639V0.25H499.657V1.75ZM509.62 1.75H514.601V0.25H509.62V1.75ZM519.583 1.75H524.564V0.25H519.583V1.75ZM529.546 1.75H534.527V0.25H529.546V1.75ZM539.509 1.75H542V0.25H539.509V1.75Z" fill="#333333"/>
</svg>
