<svg width="32" height="205" viewBox="0 0 32 205" fill="none" xmlns="http://www.w3.org/2000/svg">
<path d="M1 0V201" stroke="black" stroke-opacity="0.2"/>
<path d="M31.3536 92.3536C31.5488 92.1583 31.5488 91.8417 31.3536 91.6464L28.1716 88.4645C27.9763 88.2692 27.6597 88.2692 27.4645 88.4645C27.2692 88.6597 27.2692 88.9763 27.4645 89.1716L30.2929 92L27.4645 94.8284C27.2692 95.0237 27.2692 95.3403 27.4645 95.5355C27.6597 95.7308 27.9763 95.7308 28.1716 95.5355L31.3536 92.3536ZM1 92.5H31V91.5H1V92.5Z" fill="#CCCCCC"/>
<path d="M31.3536 201.174C31.5488 200.979 31.5488 200.663 31.3536 200.467L28.1716 197.285C27.9763 197.09 27.6597 197.09 27.4645 197.285C27.2692 197.481 27.2692 197.797 27.4645 197.992L30.2929 200.821L27.4645 203.649C27.2692 203.844 27.2692 204.161 27.4645 204.356C27.6597 204.552 27.9763 204.552 28.1716 204.356L31.3536 201.174ZM1 201.321H31V200.321H1V201.321Z" fill="#CCCCCC"/>
</svg>
