<svg width="32" height="564" viewBox="0 0 32 564" fill="none" xmlns="http://www.w3.org/2000/svg">
<path d="M1 0V560.5" stroke="black" stroke-opacity="0.2"/>
<path d="M31.3536 91.3536C31.5488 91.1583 31.5488 90.8417 31.3536 90.6464L28.1716 87.4645C27.9763 87.2692 27.6597 87.2692 27.4645 87.4645C27.2692 87.6597 27.2692 87.9763 27.4645 88.1716L30.2929 91L27.4645 93.8284C27.2692 94.0237 27.2692 94.3403 27.4645 94.5355C27.6597 94.7308 27.9763 94.7308 28.1716 94.5355L31.3536 91.3536ZM1 91.5L31 91.5L31 90.5L1 90.5L1 91.5Z" fill="#CCCCCC"/>
<path d="M31.3536 206.354C31.5488 206.158 31.5488 205.842 31.3536 205.646L28.1716 202.464C27.9763 202.269 27.6597 202.269 27.4645 202.464C27.2692 202.66 27.2692 202.976 27.4645 203.172L30.2929 206L27.4645 208.828C27.2692 209.024 27.2692 209.34 27.4645 209.536C27.6597 209.731 27.9763 209.731 28.1716 209.536L31.3536 206.354ZM1 206.5H31V205.5H1V206.5Z" fill="#CCCCCC"/>
<path d="M31.3536 311.354C31.5488 311.158 31.5488 310.842 31.3536 310.646L28.1716 307.464C27.9763 307.269 27.6597 307.269 27.4645 307.464C27.2692 307.66 27.2692 307.976 27.4645 308.172L30.2929 311L27.4645 313.828C27.2692 314.024 27.2692 314.34 27.4645 314.536C27.6597 314.731 27.9763 314.731 28.1716 314.536L31.3536 311.354ZM1 311.5H31V310.5H1V311.5Z" fill="#CCCCCC"/>
<path d="M31.3536 437.354C31.5488 437.158 31.5488 436.842 31.3536 436.646L28.1716 433.464C27.9763 433.269 27.6597 433.269 27.4645 433.464C27.2692 433.66 27.2692 433.976 27.4645 434.172L30.2929 437L27.4645 439.828C27.2692 440.024 27.2692 440.34 27.4645 440.536C27.6597 440.731 27.9763 440.731 28.1716 440.536L31.3536 437.354ZM1 437.5H31V436.5H1V437.5Z" fill="#CCCCCC"/>
<path d="M31.3536 560.354C31.5488 560.158 31.5488 559.842 31.3536 559.646L28.1716 556.464C27.9763 556.269 27.6597 556.269 27.4645 556.464C27.2692 556.66 27.2692 556.976 27.4645 557.172L30.2929 560L27.4645 562.828C27.2692 563.024 27.2692 563.34 27.4645 563.536C27.6597 563.731 27.9763 563.731 28.1716 563.536L31.3536 560.354ZM1 560.5H31V559.5H1V560.5Z" fill="#CCCCCC"/>
</svg>
