<svg width="375" height="662" viewBox="0 0 375 662" fill="none" xmlns="http://www.w3.org/2000/svg">
<path d="M396.4 323.74C396.4 323.74 44.1046 342.37 -160.639 -250.716" stroke="#F5ECEC" stroke-miterlimit="10" stroke-linecap="round"/>
<path d="M396.726 305.464C396.726 305.464 47.5247 322.032 -159.072 -272.518" stroke="#F5ECEC" stroke-miterlimit="10" stroke-linecap="round"/>
<path d="M397.053 288.347C397.053 288.347 50.9501 302.817 -157.504 -293.052" stroke="#F5ECEC" stroke-miterlimit="10" stroke-linecap="round"/>
<path d="M397.379 269.98C397.379 269.98 54.3736 282.316 -155.933 -314.732" stroke="#F5ECEC" stroke-miterlimit="10" stroke-linecap="round"/>
<path d="M397.697 251.568C397.697 251.568 57.7991 261.742 -154.368 -336.345" stroke="#F5ECEC" stroke-miterlimit="10" stroke-linecap="round"/>
<path d="M397.703 233.248C397.703 233.248 61.0324 242.466 -152.838 -357.429" stroke="#F5ECEC" stroke-miterlimit="10" stroke-linecap="round"/>
<path d="M398.028 214.747C398.028 214.747 64.4502 221.697 -151.261 -378.915" stroke="#F5ECEC" stroke-miterlimit="10" stroke-linecap="round"/>
<path d="M398.349 197.397C398.349 197.397 67.8629 202.029 -149.687 -399.12" stroke="#F5ECEC" stroke-miterlimit="10" stroke-linecap="round"/>
<path d="M398.674 179.277C398.674 179.277 71.22 182.554 -148.153 -420.065" stroke="#F5ECEC" stroke-width="2" stroke-miterlimit="10" stroke-linecap="round"/>
<path d="M399.335 160.64C399.335 160.64 74.9818 161.525 -146.235 -441.313" stroke="#F5ECEC" stroke-width="2" stroke-miterlimit="10" stroke-linecap="round"/>
<path d="M399.655 142.43C399.655 142.43 78.3263 141.857 -144.701 -462.13" stroke="#F5ECEC" stroke-width="2" stroke-miterlimit="10" stroke-linecap="round"/>
<path d="M399.98 125.383C399.98 125.383 81.68 123.317 -143.16 -481.685" stroke="#F5ECEC" stroke-width="2" stroke-miterlimit="10" stroke-linecap="round"/>
<path d="M400.308 107.088C400.308 107.088 85.0367 103.477 -141.613 -502.378" stroke="#F5ECEC" stroke-width="2" stroke-miterlimit="10" stroke-linecap="round"/>
</svg>
